<svg xmlns="http://www.w3.org/2000/svg" viewBox="0 0 240 160" fill="none">
  <!-- trail -->
  <path d="M30 130 C70 120, 100 110, 140 80" stroke="#fb923c" stroke-width="2.5" stroke-linecap="round" stroke-dasharray="4 6" opacity="0.55" />
  <!-- paper plane body -->
  <path d="M188 38 L82 86 L120 96 L142 124 Z" fill="#f97316" />
  <!-- inner fold (darker) -->
  <path d="M188 38 L120 96 L142 124 Z" fill="#c2410c" />
  <!-- light highlight on fuselage -->
  <path d="M188 38 L82 86 L120 96 Z" fill="#fb923c" />
  <!-- sparkle 1 -->
  <g transform="translate(60,46)">
    <path d="M0 -10 L3 -3 L10 0 L3 3 L0 10 L-3 3 L-10 0 L-3 -3 Z" fill="#fbbf24" />
  </g>
  <!-- sparkle 2 -->
  <g transform="translate(190,118)">
    <path d="M0 -7 L2 -2 L7 0 L2 2 L0 7 L-2 2 L-7 0 L-2 -2 Z" fill="#fcd34d" />
  </g>
  <!-- chat bubble -->
  <g transform="translate(36,82)">
    <path d="M0 0 H42 A8 8 0 0 1 50 8 V24 A8 8 0 0 1 42 32 H14 L4 40 V32 H0 A0 0 0 0 1 -8 24 V8 A8 8 0 0 1 0 0 Z" fill="#ffffff" stroke="#f97316" stroke-width="2" />
    <circle cx="14" cy="16" r="2.5" fill="#f97316" />
    <circle cx="25" cy="16" r="2.5" fill="#f97316" />
    <circle cx="36" cy="16" r="2.5" fill="#f97316" />
  </g>
</svg>
