<svg xmlns="http://www.w3.org/2000/svg" xml:space="preserve" id="travel-route-or-tour-itinerary" x="0" y="0" style="enable-background:new 0 0 3000 3000" version="1.1" viewBox="0 0 3000 3000">
  <g>
    <g>
      <g>
        <g>
          <path d="M2712.27,1382.5c-34.38-234.48-152.26-449.82-331.93-606.33c-88.88-77.44-189.53-137.92-299.16-179.78
					c-113.48-43.33-233.17-65.31-355.72-65.31c-5,0-10.01,0.07-14.88,0.14c-88.57,1.28-176.29,14.21-260.71,38.44
					c-81.95,23.51-160.72,57.6-234.15,101.34c-145.03,86.4-266.71,209.08-351.9,354.79c-43.67,74.67-77.41,154.73-100.26,237.96
					c-23.59,85.84-35.54,174.92-35.54,264.76c0,87.87,11.44,175.06,34,259.13c21.88,81.55,54.21,160.18,96.09,233.73
					c82.54,144.93,201.17,267.98,343.07,355.85c103.29,63.9,215.9,107.9,334.69,130.75c62.16,11.93,125.94,17.97,189.58,17.97
					c206.68,0,404.96-62.64,573.38-181.16c81.11-57.09,153.17-125.74,214.13-204.06c61.55-79.06,110.64-166.48,145.89-259.82
					c42.49-112.48,64.03-231.03,64.03-352.39C2722.91,1479.68,2719.33,1430.55,2712.27,1382.5z M2647.63,1876.66
					c-143.98,381.17-514.57,637.27-922.16,637.27c-62.88,0-125.9-5.97-187.31-17.75c-117.36-22.58-228.6-66.04-330.63-129.17
					c-292.72-181.26-467.47-494.71-467.47-838.49c0-174.85,46.39-346.59,134.15-496.66c173.29-296.4,493.84-483.63,836.55-488.61
					c5.03-0.07,9.79-0.14,14.71-0.14c485.47,0,904.59,361.62,974.89,841.13c6.98,47.47,10.52,96.02,10.52,144.28
					C2710.88,1648.41,2689.6,1765.54,2647.63,1876.66z" style="fill:#2e2d33"></path>
          <path d="M2710.88,1528.52c0,119.9-21.28,237.03-63.25,348.14c-143.98,381.17-514.57,637.27-922.16,637.27
					c-62.88,0-125.9-5.97-187.31-17.75c-117.36-22.58-228.6-66.04-330.63-129.17c-292.72-181.26-467.47-494.71-467.47-838.49
					c0-174.85,46.39-346.59,134.15-496.66c173.29-296.4,493.84-483.63,836.55-488.61c5.03-0.07,9.79-0.14,14.71-0.14
					c485.47,0,904.59,361.62,974.89,841.13C2707.34,1431.71,2710.88,1480.26,2710.88,1528.52z" style="fill:#fff"></path>
        </g>
        <g>
          <path d="M2658.49,1875.82c-0.88-1.55-2.41-2.64-4.16-2.96c-22.89-4.14-45.71-11.27-67.8-21.18
					c-29.61-13.27-66.48-10.95-92.2-6.66c-29.78,4.97-59.43,15.12-77.36,26.46c-23.48,14.8-29,71.25-34.84,131.01
					c-4.82,49.36-10.3,105.31-27.05,118.49c-44.44,35.04-115.67,89.92-178.51,138.32c-31.23,24.07-60.75,46.79-81.31,62.74
					c-24.24,18.78-88.55,45.6-163.85,68.35c-77.32,23.37-143.84,35.77-173.63,32.35c-26.97-3-56.07-3.45-88.99-1.36
					c-31.76,2.06-61.87,11.55-87.06,27.41c-19,11.96-35.73,28.76-49.73,49.96c-1.11,1.67-1.31,3.8-0.53,5.65
					c0.78,1.85,2.44,3.19,4.41,3.57c62.16,11.93,125.94,17.97,189.58,17.97c206.68,0,404.96-62.64,573.38-181.16
					c81.11-57.09,153.17-125.74,214.13-204.06c61.55-79.06,110.64-166.48,145.89-259.82
					C2659.51,1879.24,2659.37,1877.37,2658.49,1875.82z M1725.47,2513.93c-59.77,0-119.68-5.39-178.2-16.05
					c11.91-16.24,25.62-29.3,40.87-38.89c23.51-14.81,51.66-23.65,81.42-25.59c32.2-2.04,60.63-1.6,86.87,1.31
					c31.76,3.64,98.47-8.61,178.47-32.78c60.95-18.42,137.02-46.57,167.74-70.37c20.54-15.94,50.04-38.65,81.26-62.71
					c62.87-48.44,134.13-103.33,178.62-138.41c20.78-16.35,26.02-69.99,31.57-126.76c5.06-51.73,10.8-110.35,29.29-122.02
					c16.42-10.39,45.04-20.11,72.92-24.76c34.04-5.68,64.32-3.64,85.28,5.76c20.71,9.29,42.03,16.23,63.49,20.67
					C2499.3,2260.8,2130.66,2513.93,1725.47,2513.93z" style="fill:#2e2d33"></path>
          <path d="M2645.08,1883.33c-145.78,377.47-514.42,630.6-919.61,630.6c-59.77,0-119.68-5.39-178.2-16.05
					c11.91-16.24,25.62-29.3,40.87-38.89c23.51-14.81,51.66-23.65,81.42-25.59c32.2-2.04,60.63-1.6,86.87,1.31
					c31.76,3.64,98.47-8.61,178.47-32.78c60.95-18.42,137.02-46.57,167.74-70.37c20.54-15.94,50.04-38.65,81.26-62.71
					c62.87-48.44,134.13-103.33,178.62-138.41c20.78-16.35,26.02-69.99,31.57-126.76c5.06-51.73,10.8-110.35,29.29-122.02
					c16.42-10.39,45.04-20.11,72.92-24.76c34.04-5.68,64.32-3.64,85.28,5.76C2602.3,1871.95,2623.62,1878.89,2645.08,1883.33z" style="fill:#00dcab"></path>
        </g>
        <g>
          <path d="M1411.61,2113.14c0-33.55-12.02-66.29-33.83-92.18c-22.44-26.64-53.87-44.08-88.5-49.09l-13.72-1.99
					c-26.22-4.37-53.76-0.07-77.55,12.11l-97.29,50.05c-4.34,2.23-7.39,6.48-8.17,11.47c-0.36,2.59-2.55,2.79-3.21,2.79
					c-0.96,0-2.67-0.32-3.19-2.54l-7.4-30.92c-0.22-1.14-0.62-2.27-1.25-3.53l-31.11-61.51c-19.66-38.67-12.57-85.53,17.62-116.62
					l28.51-29.44c26.76-27.6,48.54-59.08,64.69-93.57l17.33-36.81c33.44-70.96,35.68-153.26,6.15-225.8l-42.56-104.46
					c-12.67-31.2-15.24-64.93-7.44-97.42c0.74-2.91,1.12-6.02,1.12-9.26c0-14.11-7.97-27-20.79-33.66
					c-12.8-6.64-27.54-5.59-39.4,2.78l-19.62,13.79c-33.01,23.31-76.99,22.82-109.47-1.19c-5.12-3.79-8.06-9.6-8.06-15.98
					c0-4.67,1.54-9.02,4.46-12.59l62.32-76.24c9.53-11.78,15.73-25.76,17.93-40.42l3.02-19.61c2.88-18.9-5.47-36.8-21.81-46.71
					c-16.32-9.91-36.04-9.07-51.44,2.19l-10.91,7.9c-0.04,0.03-0.08,0.06-0.12,0.09c-0.36,0.27-0.75,0.44-1.26,0.54
					c-22.26,4.13-45.1,6.67-67.85,7.53c-2.05,0.08-3.93,1.2-4.97,2.98c-43.67,74.67-77.41,154.73-100.27,237.96
					c-23.58,85.84-35.53,174.92-35.53,264.76c0,87.87,11.44,175.06,34,259.13c21.88,81.55,54.21,160.18,96.09,233.73
					c82.54,144.93,201.17,267.98,343.07,355.85c0.96,0.6,2.07,0.9,3.17,0.9c0.67,0,1.35-0.11,2-0.34
					c25.5-9.04,53.08-18.81,79.44-28.18c36.72-13.05,68.33-38.42,89.01-71.46c20.4-32.6,29.45-71.51,25.54-109.75
					C1407.82,2150.71,1411.61,2132.12,1411.61,2113.14z M1388.23,2168.14c8.37,74.94-35.41,144.9-106.46,170.14
					c-25.42,9.04-51.97,18.44-76.7,27.21c-291.23-181.5-465.01-494.15-465.01-836.96c0-173.75,45.8-344.43,132.5-493.81
					c22.25-1,44.54-3.55,66.31-7.6c2.34-0.44,4.45-1.36,6.29-2.75l10.87-7.88c11.43-8.34,26.04-8.97,38.13-1.63
					c12.1,7.35,18.29,20.62,16.16,34.61l-3.02,19.63c-1.9,12.56-7.22,24.54-15.38,34.63l-62.3,76.21
					c-4.63,5.65-7.18,12.83-7.18,20.21c0,10.08,4.84,19.67,12.94,25.65c36.65,27.11,86.3,27.66,123.55,1.35l19.62-13.79
					c8.13-5.73,18.2-6.46,26.95-1.92c8.82,4.57,14.29,13.37,14.29,22.97c0,2.23-0.25,4.34-0.77,6.37
					c-8.41,35.04-5.65,71.3,7.98,104.85l42.56,104.46c28.26,69.44,26.1,148.21-5.89,216.15l-17.34,36.82
					c-15.6,33.29-36.61,63.67-62.45,90.32l-28.5,29.43c-33.78,34.77-41.7,87.19-19.73,130.44l31.1,61.47
					c0.17,0.34,0.2,0.46,0.2,0.46c0.02,0.11,0.04,0.22,0.07,0.33l7.43,31.03c1.66,7.06,7.64,11.79,14.89,11.79
					c7.81,0,14.03-5.4,15.11-13.05c0.17-1.09,0.84-2.06,1.76-2.54l97.29-50.05c21.51-11.02,46.43-14.9,70.15-10.93
					c0.04,0,0.08,0.01,0.12,0.02l13.79,2c63.86,9.24,112.03,64.86,112.03,129.36c0,17.85-3.67,35.33-10.89,51.94
					C1388.28,2166.04,1388.12,2167.1,1388.23,2168.14z" style="fill:#2e2d33"></path>
          <path d="M1388.23,2168.14c8.37,74.94-35.41,144.9-106.46,170.14c-25.42,9.04-51.97,18.44-76.7,27.21
					c-291.23-181.5-465.01-494.15-465.01-836.96c0-173.75,45.8-344.43,132.5-493.81c22.25-1,44.54-3.55,66.31-7.6
					c2.34-0.44,4.45-1.36,6.29-2.75l10.87-7.88c11.43-8.34,26.04-8.97,38.13-1.63c12.1,7.35,18.29,20.62,16.16,34.61l-3.02,19.63
					c-1.9,12.56-7.22,24.54-15.38,34.63l-62.3,76.21c-4.63,5.65-7.18,12.83-7.18,20.21c0,10.08,4.84,19.67,12.94,25.65
					c36.65,27.11,86.3,27.66,123.55,1.35l19.62-13.79c8.13-5.73,18.2-6.46,26.95-1.92c8.82,4.57,14.29,13.37,14.29,22.97
					c0,2.23-0.25,4.34-0.77,6.37c-8.41,35.04-5.65,71.3,7.98,104.85l42.56,104.46c28.26,69.44,26.1,148.21-5.89,216.15l-17.34,36.82
					c-15.6,33.29-36.61,63.67-62.45,90.32l-28.5,29.43c-33.78,34.77-41.7,87.19-19.73,130.44l31.1,61.47
					c0.17,0.34,0.2,0.46,0.2,0.46c0.02,0.11,0.04,0.22,0.07,0.33l7.43,31.03c1.66,7.06,7.64,11.79,14.89,11.79
					c7.81,0,14.03-5.4,15.11-13.05c0.17-1.09,0.84-2.06,1.76-2.54l97.29-50.05c21.51-11.02,46.43-14.9,70.15-10.93
					c0.04,0,0.08,0.01,0.12,0.02l13.79,2c63.86,9.24,112.03,64.86,112.03,129.36c0,17.85-3.67,35.33-10.89,51.94
					C1388.28,2166.04,1388.12,2167.1,1388.23,2168.14z" style="fill:#00dcab"></path>
        </g>
        <g>
          <path d="M2712.27,1382.5c-34.38-234.48-152.26-449.82-331.93-606.33c-88.88-77.44-189.53-137.92-299.16-179.78
					c-113.48-43.33-233.17-65.31-355.72-65.31c-5,0-10.01,0.07-14.88,0.14c-1.87,0.02-3.64,0.93-4.76,2.45l-15.93,21.62
					c-21.74,29.68-51.47,52.14-86,64.98l-167.29,62.44c-38.57,14.36-69.15,44.69-83.89,83.19l-44.51,116.38
					c-13.12,34.34-6.07,72.7,18.39,100.1l43.04,48.4c23.2,25.93,61.13,32.25,90.21,15.01c17.31-10.3,19.65-21.6,21.91-32.52
					c5.25-25.42,12.46-60.22,282.43-118.81c21.79-4.67,43.95-2.49,64.13,6.33c15.71,6.86,31.79,12.66,47.34,18.26
					c42.84,15.46,83.3,30.04,114.12,64.61c20.17,22.6,36.41,40.3,50.74,55.91c18.98,20.67,35.36,38.51,56.07,62.39
					c15.71,18.22,28.48,39.04,37.94,61.89c19.72,47.46,41.15,85.67,63.7,113.58c24.09,29.81,50.38,49.02,78.14,57.1
					c10.27,2.99,20.81,4.48,31.61,4.48c30.64,0,63.3-12.03,97.48-35.95c23.23-16.23,41.36-40.56,52.46-70.37
					c5.28-14.24,14.51-24.71,28.21-31.97c23.11-12.16,51.71-10.25,74.62,4.96c18.94,12.71,35.27,29.64,47.22,48.96
					c12.13,19.62,19.75,41.2,22.64,64.23c0.1,0.72,0.18,1.44,0.26,2.18c0.09,0.75,0.17,1.51,0.27,2.29
					c0.01,0.04,0.01,0.08,0.02,0.12c2.87,18.86,12.04,35.25,26.51,47.39c13.53,11.34,30.72,17.92,48.42,18.54h0.21
					c1.71,0,3.34-0.72,4.48-2C2711.99,1386.06,2712.53,1384.26,2712.27,1382.5z M2643.08,1321.69c-0.09-0.67-0.16-1.33-0.23-1.99
					c-0.09-0.82-0.19-1.63-0.29-2.4c-3.11-24.69-11.3-47.9-24.34-69c-12.85-20.77-30.4-38.96-50.78-52.64
					c-26.59-17.66-59.89-19.81-86.91-5.59c-16.21,8.59-27.61,21.52-33.87,38.41c-10.23,27.51-26.85,49.87-48.08,64.7
					c-43.09,30.17-83.08,40.19-118.84,29.78c-25.35-7.38-49.63-25.25-72.14-53.11c-21.83-27.01-42.67-64.23-61.94-110.64
					c-9.96-24.02-23.41-45.93-39.97-65.14c-20.81-24.02-37.25-41.93-56.3-62.67c-14.3-15.58-30.51-33.24-50.63-55.78
					c-32.84-36.84-76.64-52.64-119.01-67.92c-15.37-5.54-31.27-11.28-46.61-17.96c-22.49-9.83-47.2-12.28-71.48-7.07
					c-122.16,26.51-202.5,50.75-245.62,74.1c-39.27,21.27-43.03,39.43-46.05,54.03c-2.04,9.88-3.53,17.03-16.28,24.62
					c-24.14,14.32-55.72,8.98-75.09-12.67l-43.03-48.4c-21.46-24.03-27.65-57.68-16.14-87.8l44.51-116.37
					c13.5-35.27,41.52-63.06,76.85-76.22l167.29-62.43c36.73-13.65,68.36-37.56,91.49-69.13l14.15-19.21
					c3.95-0.06,7.78-0.1,11.72-0.1c482.93,0,900.19,357.81,973.76,833.58C2673.88,1372.86,2648,1353.88,2643.08,1321.69z" style="fill:#2e2d33"></path>
          <path d="M2699.23,1376.68c-25.35-3.82-51.23-22.8-56.16-54.99c-0.09-0.67-0.16-1.33-0.23-1.99
					c-0.09-0.82-0.19-1.63-0.29-2.4c-3.11-24.69-11.3-47.9-24.34-69c-12.85-20.77-30.4-38.96-50.78-52.64
					c-26.59-17.66-59.89-19.81-86.91-5.59c-16.21,8.59-27.61,21.52-33.87,38.41c-10.23,27.51-26.85,49.87-48.08,64.7
					c-43.09,30.17-83.08,40.19-118.84,29.78c-25.35-7.38-49.63-25.25-72.14-53.11c-21.83-27.01-42.67-64.23-61.94-110.64
					c-9.96-24.02-23.41-45.93-39.97-65.14c-20.81-24.02-37.25-41.93-56.3-62.67c-14.3-15.58-30.51-33.24-50.63-55.78
					c-32.84-36.84-76.64-52.64-119.01-67.92c-15.37-5.54-31.27-11.28-46.61-17.96c-22.49-9.83-47.2-12.28-71.48-7.07
					c-122.16,26.51-202.5,50.75-245.62,74.1c-39.27,21.27-43.03,39.43-46.05,54.03c-2.04,9.88-3.53,17.03-16.28,24.62
					c-24.14,14.32-55.72,8.98-75.09-12.67l-43.03-48.4c-21.46-24.03-27.65-57.68-16.14-87.8l44.51-116.37
					c13.5-35.27,41.52-63.06,76.85-76.22l167.29-62.43c36.73-13.65,68.36-37.56,91.49-69.13l14.15-19.21
					c3.95-0.06,7.78-0.1,11.72-0.1C2208.4,543.11,2625.66,900.91,2699.23,1376.68z" style="fill:#00dcab"></path>
        </g>
        <g>
          <path d="M2215.2,1597.46c-3.79-21.94-16.99-41-36.22-52.29c-11.68-6.84-22.37-15.3-31.78-25.17
					c-9.35-9.81-17.28-20.9-23.58-32.94c-20.81-39.91-52.2-98.13-83.6-148.89c-38.35-62.01-65.73-95.26-83.71-101.63
					c-3.98-1.4-8.66-3.02-14.07-4.87c-18.29-6.29-43.36-14.91-64.43-23.82c-34.71-14.75-75.06-12.03-107.94,7.28
					c-10.18,5.97-21.86,9.14-33.75,9.14c-18.49,0-36.32-7.75-48.88-21.23l-10.02-10.87c-26.07-27.99-62.91-42.73-101.08-40.44
					l-50.59,3.01c-26.8,1.57-52.91,10.11-75.48,24.7c-22.58,14.6-41.11,34.88-53.55,58.68c-23.41,44.78-38.61,86.84-45.2,125.03
					c-6.84,39.68-4.59,76.42,6.69,109.19c10.13,29.48,27.83,56.48,52.59,80.24c25.08,24.09,58.15,45.54,98.28,63.77
					c43.15,19.62,76.15,54.51,92.93,98.27l7.23,18.84c9.53,25,24.86,47.79,44.33,65.92c35.54,33.03,49.35,51.76,52.8,71.57
					c3.64,20.88-4.39,44.88-17.7,84.65c-3,8.97-6.4,19.14-9.94,30.11c-5.86,18.14-5.45,38.07,1.16,56.12
					c25.21,68.92,44.5,113.98,62.56,146.12c22.77,40.53,44.31,61.92,67.74,67.29c11.67,3.31,23.7,4.95,36.07,4.95
					c18.71,0,38.16-3.78,58.15-11.33c37.15-14.01,62.11-50.51,62.11-90.85v-24.73c0-41.22,22.6-78.86,58.99-98.24l7.54-4.01
					c43.92-23.4,71.2-68.82,71.2-118.55v-65.8c0-48.3,17.08-95.28,48.11-132.3l46.54-55.64
					C2212.97,1641.74,2218.99,1619.38,2215.2,1597.46z M2189.45,1651.05c0,0,0,0,0,0.01l-46.54,55.64
					c-32.83,39.17-50.91,88.89-50.91,140.02v65.8c0,45.28-24.84,86.64-64.83,107.94l-7.54,4.01
					c-40.32,21.46-65.37,63.17-65.37,108.85v24.73c0,35.36-21.82,67.34-54.32,79.59c-30.78,11.63-60,13.65-86.85,6.02
					c-0.1-0.03-0.21-0.06-0.32-0.08c-42.09-9.52-79.14-89.18-121.81-205.86c-5.69-15.54-6.05-32.69-1.01-48.29
					c3.52-10.92,6.92-21.05,9.9-30c13.91-41.56,22.31-66.65,18.15-90.53c-4.49-25.77-24.11-48.24-56.47-78.32
					c-18.12-16.87-32.4-38.1-41.29-61.41l-7.23-18.86c-17.91-46.72-53.14-83.97-99.18-104.9
					c-76.56-34.79-125.17-80.88-144.48-136.99c-20.98-61-8.26-136.62,37.81-224.73c23.27-44.51,68.9-74,119.08-76.94l50.6-3.01
					c2.35-0.14,4.68-0.21,7.01-0.21c32.05,0,62.54,13.2,84.53,36.82l10.02,10.87c14.86,15.94,35.88,25.08,57.7,25.08
					c14.03,0,27.81-3.74,39.85-10.8c29.6-17.38,65.92-19.85,97.15-6.58c21.46,9.08,46.75,17.76,65.22,24.12
					c5.39,1.84,10.04,3.45,13.97,4.84c25.37,8.99,85.43,100.48,160.65,244.74c6.82,13.05,15.41,25.05,25.54,35.68
					c10.17,10.69,21.75,19.85,34.39,27.26c16.16,9.48,27.26,25.5,30.44,43.95C2206.53,1617.94,2201.47,1636.73,2189.45,1651.05z" style="fill:#2e2d33"></path>
          <path d="M2189.45,1651.05c0,0,0,0,0,0.01l-46.54,55.64c-32.83,39.17-50.91,88.89-50.91,140.02v65.8
					c0,45.28-24.84,86.64-64.83,107.94l-7.54,4.01c-40.32,21.46-65.37,63.17-65.37,108.85v24.73c0,35.36-21.82,67.34-54.32,79.59
					c-30.78,11.63-60,13.65-86.85,6.02c-0.1-0.03-0.21-0.06-0.32-0.08c-42.09-9.52-79.14-89.18-121.81-205.86
					c-5.69-15.54-6.05-32.69-1.01-48.29c3.52-10.92,6.92-21.05,9.9-30c13.91-41.56,22.31-66.65,18.15-90.53
					c-4.49-25.77-24.11-48.24-56.47-78.32c-18.12-16.87-32.4-38.1-41.29-61.41l-7.23-18.86c-17.91-46.72-53.14-83.97-99.18-104.9
					c-76.56-34.79-125.17-80.88-144.48-136.99c-20.98-61-8.26-136.62,37.81-224.73c23.27-44.51,68.9-74,119.08-76.94l50.6-3.01
					c2.35-0.14,4.68-0.21,7.01-0.21c32.05,0,62.54,13.2,84.53,36.82l10.02,10.87c14.86,15.94,35.88,25.08,57.7,25.08
					c14.03,0,27.81-3.74,39.85-10.8c29.6-17.38,65.92-19.85,97.15-6.58c21.46,9.08,46.75,17.76,65.22,24.12
					c5.39,1.84,10.04,3.45,13.97,4.84c25.37,8.99,85.43,100.48,160.65,244.74c6.82,13.05,15.41,25.05,25.54,35.68
					c10.17,10.69,21.75,19.85,34.39,27.26c16.16,9.48,27.26,25.5,30.44,43.95C2206.53,1617.94,2201.47,1636.73,2189.45,1651.05z" style="fill:#00dcab"></path>
        </g>
      </g>
      <g>
        <g>
          <path d="M2487.66,647.96c-3.16-30.71-13.9-60.74-31.07-86.82c-17.17-26.08-40.49-47.81-67.45-62.87
					c-28.82-16.08-60.49-24.23-94.16-24.23h-12.15c-33.67,0-65.35,8.15-94.17,24.23c-26.95,15.06-50.28,36.79-67.45,62.87
					s-27.92,56.1-31.07,86.82c-3.38,32.82,1.65,65.15,14.97,96.07l178.28,414.16c0.95,2.21,3.12,3.63,5.52,3.63
					c2.41,0,4.57-1.42,5.52-3.63l178.28-414.16C2486,713.1,2491.03,680.78,2487.66,647.96z M2461.64,739.28l-172.75,401.32
					l-172.75-401.32c-24.21-56.25-18.56-120.37,15.11-171.52c33.67-51.15,90.34-81.69,151.57-81.69h12.15
					c61.24,0,117.9,30.53,151.57,81.69C2480.21,618.91,2485.85,683.02,2461.64,739.28z" style="fill:#2e2d33"></path>
          <path d="M2446.54,567.76c-33.67-51.15-90.34-81.69-151.57-81.69h-12.15c-61.24,0-117.9,30.53-151.57,81.69
					c-33.67,51.15-39.31,115.27-15.11,171.52l172.75,401.32l172.75-401.32C2485.85,683.02,2480.21,618.91,2446.54,567.76z
					 M2288.89,792.35c-64.38,0-116.77-52.39-116.77-116.77c0-64.39,52.39-116.78,116.77-116.78c64.39,0,116.78,52.39,116.78,116.78
					S2353.28,792.35,2288.89,792.35z" style="fill:#fa5669"></path>
        </g>
        <g>
          <path d="M2288.89,558.8c-64.38,0-116.77,52.39-116.77,116.78c0,64.38,52.39,116.77,116.77,116.77
					c64.39,0,116.78-52.39,116.78-116.77C2405.67,611.19,2353.28,558.8,2288.89,558.8z M2288.89,780.32
					c-57.76,0-104.74-46.99-104.74-104.74c0-57.76,46.98-104.75,104.74-104.75s104.75,46.99,104.75,104.75
					C2393.64,733.33,2346.65,780.32,2288.89,780.32z" style="fill:#2e2d33"></path>
          <path d="M2393.64,675.58c0,57.75-46.99,104.74-104.75,104.74s-104.74-46.99-104.74-104.74
					c0-57.76,46.98-104.75,104.74-104.75S2393.64,617.82,2393.64,675.58z" style="fill:#fff"></path>
        </g>
      </g>
      <g>
        <g>
          <path d="M1105.35,1213.39c-3.17-30.71-13.91-60.74-31.07-86.81c-17.17-26.08-40.5-47.82-67.46-62.87
					c-28.81-16.08-60.49-24.24-94.16-24.24h-12.15c-33.67,0-65.35,8.16-94.17,24.24c-26.96,15.05-50.29,36.79-67.45,62.87
					c-17.17,26.07-27.92,56.09-31.07,86.81c-3.38,32.83,1.65,65.16,14.97,96.08l178.28,414.15c0.94,2.21,3.12,3.64,5.52,3.64
					s4.57-1.43,5.52-3.64l178.28-414.15C1103.69,1278.55,1108.72,1246.22,1105.35,1213.39z M1079.32,1304.71l-172.74,401.32
					l-172.75-401.32c-24.21-56.25-18.56-120.37,15.11-171.51c33.67-51.15,90.34-81.7,151.57-81.7h12.15
					c61.24,0,117.89,30.54,151.56,81.7C1097.89,1184.34,1103.54,1248.47,1079.32,1304.71z" style="fill:#2e2d33"></path>
          <path d="M1064.22,1133.2c-33.67-51.15-90.33-81.7-151.56-81.7h-12.15c-61.24,0-117.9,30.54-151.57,81.7
					c-33.67,51.14-39.31,115.27-15.11,171.51l172.75,401.32l172.74-401.32C1103.54,1248.47,1097.89,1184.34,1064.22,1133.2z
					 M906.58,1357.8c-64.39,0-116.78-52.39-116.78-116.78c0-64.38,52.39-116.77,116.78-116.77c64.38,0,116.77,52.39,116.77,116.77
					C1023.35,1305.41,970.96,1357.8,906.58,1357.8z" style="fill:#fa5669"></path>
        </g>
        <g>
          <path d="M906.58,1124.25c-64.39,0-116.78,52.39-116.78,116.77c0,64.39,52.39,116.78,116.78,116.78
					c64.38,0,116.77-52.39,116.77-116.78C1023.35,1176.63,970.96,1124.25,906.58,1124.25z M906.58,1345.77
					c-57.76,0-104.75-46.99-104.75-104.75s46.99-104.74,104.75-104.74s104.74,46.98,104.74,104.74S964.34,1345.77,906.58,1345.77z" style="fill:#2e2d33"></path>
          <path d="M1011.32,1241.02c0,57.76-46.98,104.75-104.74,104.75s-104.75-46.99-104.75-104.75
					s46.99-104.74,104.75-104.74S1011.32,1183.26,1011.32,1241.02z" style="fill:#fff"></path>
        </g>
      </g>
      <g>
        <g>
          <path d="M2040.06,1408.92c-3.17-30.71-13.91-60.74-31.07-86.81c-17.17-26.08-40.5-47.82-67.46-62.87
					c-28.81-16.08-60.49-24.24-94.16-24.24h-12.15c-33.67,0-65.36,8.16-94.17,24.24c-26.96,15.05-50.29,36.79-67.45,62.87
					c-17.17,26.07-27.92,56.09-31.07,86.81c-3.39,32.83,1.65,65.16,14.97,96.08l178.28,414.15c0.94,2.21,3.12,3.64,5.52,3.64
					s4.57-1.43,5.52-3.64L2025.08,1505C2038.39,1474.08,2043.43,1441.75,2040.06,1408.92z M2014.03,1500.24l-172.74,401.32
					l-172.75-401.32c-24.21-56.25-18.56-120.37,15.11-171.52c33.67-51.14,90.34-81.69,151.57-81.69h12.15
					c61.24,0,117.89,30.54,151.56,81.69C2032.6,1379.87,2038.25,1443.99,2014.03,1500.24z" style="fill:#2e2d33"></path>
          <path d="M1998.93,1328.72c-33.67-51.14-90.33-81.69-151.56-81.69h-12.15c-61.24,0-117.9,30.54-151.57,81.69
					c-33.67,51.15-39.31,115.28-15.11,171.52l172.75,401.32l172.74-401.32C2038.25,1443.99,2032.6,1379.87,1998.93,1328.72z
					 M1841.29,1553.33c-64.39,0-116.78-52.39-116.78-116.78c0-64.38,52.39-116.77,116.78-116.77c64.38,0,116.77,52.39,116.77,116.77
					C1958.06,1500.94,1905.67,1553.33,1841.29,1553.33z" style="fill:#fa5669"></path>
        </g>
        <g>
          <path d="M1841.29,1319.78c-64.39,0-116.78,52.39-116.78,116.77c0,64.39,52.39,116.78,116.78,116.78
					c64.38,0,116.77-52.39,116.77-116.78S1905.67,1319.78,1841.29,1319.78z M1841.29,1541.3c-57.76,0-104.75-46.99-104.75-104.75
					s46.99-104.74,104.75-104.74s104.74,46.98,104.74,104.74C1946.03,1494.3,1899.05,1541.3,1841.29,1541.3z" style="fill:#2e2d33"></path>
          <path d="M1946.03,1436.55c0,57.76-46.98,104.75-104.74,104.75s-104.75-46.99-104.75-104.75
					s46.99-104.74,104.75-104.74S1946.03,1378.79,1946.03,1436.55z" style="fill:#fff"></path>
        </g>
      </g>
    </g>
    <g>
      <g>
        <path d="M1196.57,827.93l-136.88,98.47c-0.96,0.69-2.11,1.08-3.31,1.12L617.54,942.1l-5.81,0.19h-0.2
				c-0.24,0-0.47-0.01-0.7-0.05c-2.91-0.33-5.2-2.76-5.3-5.76c-0.11-3.32,2.49-6.1,5.8-6.22l0.58-0.02l5.63-0.19l436.63-14.49
				l127.49-91.7l-139.19-72.99l-424.92,28.98l-5.6,0.38c-3.3,0.22-6.18-2.29-6.41-5.59c-0.23-3.32,2.28-6.18,5.59-6.42l6.42-0.44
				l425.8-29.03c1.1-0.07,2.22,0.16,3.2,0.67l149.33,78.31c1.85,0.97,3.06,2.83,3.2,4.9
				C1199.21,824.71,1198.27,826.72,1196.57,827.93z" style="fill:#2e2d33"></path>
      </g>
      <g>
        <path d="M617.54,1362.52v0.41c0,0.07,0,0.14-0.01,0.22c-0.24,3.31-3.12,5.8-6.44,5.56l-5.58-0.4L182,1337.63
				l-139.57,72.25l126.98,92.38l436.09,16.83l6.24,0.24c3.32,0.13,5.9,2.93,5.77,6.24c-0.12,3.24-2.79,5.78-6,5.78
				c-0.08,0-0.15,0-0.23-0.01l-5.78-0.22l-438.38-16.92c-1.19-0.05-2.35-0.44-3.31-1.14l-136.35-99.19
				c-1.68-1.22-2.62-3.24-2.46-5.31c0.15-2.09,1.37-3.93,3.23-4.89l149.73-77.51c0.99-0.51,2.09-0.74,3.2-0.66l424.34,30.73
				l6.45,0.47C615.06,1356.95,617.45,1359.47,617.54,1362.52z" style="fill:#2e2d33"></path>
      </g>
      <g>
        <path d="M1147.33,1608.95c-0.01,2.19-1.19,4.2-3.11,5.25l-127.13,70.04c-0.89,0.49-1.89,0.74-2.91,0.74h-0.12
				l-396.52-8.07l-6.13-0.12c-3.28-0.07-5.89-2.76-5.89-6.02v-0.11c0.07-3.28,2.76-5.89,6.01-5.89h0.13l5.88,0.12l395.16,8.04
				l116.24-64.03l-135.71-76.03l-375.68-20.84l-6.35-0.35c-3.21-0.17-5.68-2.84-5.68-6c0-0.11,0-0.22,0.01-0.33
				c0.19-3.32,3.01-5.85,6.35-5.67l5.67,0.31l377.73,20.96c0.91,0.05,1.8,0.31,2.61,0.75l146.37,82.01
				C1146.15,1604.75,1147.34,1606.77,1147.33,1608.95z" style="fill:#2e2d33"></path>
      </g>
      <g>
        <path d="M1178.85,1236.88c-0.02,2.09-1.11,4.01-2.9,5.09l-144.16,87.44c-0.94,0.57-2.01,0.87-3.12,0.87h-0.06
				l-411.08-4.19l-6.08-0.06c-3.3-0.03-5.95-2.73-5.95-6.01v-0.06c0.04-3.3,2.73-5.95,6.01-5.95h0.07l5.94,0.06l409.49,4.17
				l134.36-81.49l-133.14-83.72l-410.71-18.82l-3.25-0.15l-3.04-0.14c-3.23-0.15-5.74-2.81-5.74-6c0-0.1,0.01-0.19,0.01-0.28
				c0.1-2.23,1.4-4.11,3.26-5.06c0.9-0.47,1.93-0.71,3.03-0.67l5.73,0.26l412.84,18.92c1.04,0.05,2.05,0.37,2.93,0.92l142.73,89.74
				C1177.8,1232.85,1178.87,1234.79,1178.85,1236.88z" style="fill:#2e2d33"></path>
      </g>
      <g>
        <path d="M188.8,938.23l-137.56,76.25l129.66,88.79l424.61,19.15l3.26,0.14h0.01l3.02,0.14
				c3.16,0.15,5.64,2.7,5.74,5.79v0.48c-0.1,2.23-1.4,4.12-3.25,5.07c-0.83,0.43-1.76,0.67-2.76,0.67c-0.09,0-0.18,0-0.28-0.01
				l-5.74-0.26l-426.86-19.23c-1.12-0.06-2.21-0.42-3.13-1.05l-139.11-95.27c-1.71-1.18-2.71-3.17-2.61-5.24
				c0.1-2.09,1.26-3.97,3.09-4.98l147.47-81.74c0.91-0.5,1.95-0.77,2.98-0.75l418.17,3.97l6.07,0.06c0.1,0,0.21,0,0.31,0.02h0.01
				c3.15,0.19,5.63,2.8,5.63,5.97v0.07c-0.03,3.31-2.72,5.96-6.01,5.96h-0.05l-0.61-0.01h-0.04l-5.31-0.05L188.8,938.23z" style="fill:#2e2d33"></path>
      </g>
      <g>
        <path d="M619.88,2358.43h-18.07c-89.06,0-161.53,72.45-161.53,161.51c0,3.33,2.7,6.01,6.01,6.01h329.09
				c3.33,0,6.01-2.69,6.01-6.01C781.4,2430.89,708.95,2358.43,619.88,2358.43z M452.43,2513.93
				c3.17-79.65,68.96-143.46,149.38-143.46h18.07c80.42,0,146.21,63.81,149.38,143.46H452.43z" style="fill:#2e2d33"></path>
        <path d="M769.26,2513.93H452.43c3.17-79.65,68.96-143.46,149.38-143.46h18.07
				C700.31,2370.46,766.09,2434.28,769.26,2513.93z" style="fill:#fff"></path>
      </g>
    </g>
    <g>
      <polygon points="1181.65 823.86 1054.16 915.56 617.54 930.05 617.54 779.84 1042.45 750.86" style="fill:#ffc42e"></polygon>
      <polygon points="1161.39 1236.74 1027.03 1318.23 617.54 1314.06 617.54 1134.2 1028.25 1153.02" style="fill:#8a8bc4"></polygon>
      <polygon points="1128.93 1608.89 1012.69 1672.92 617.54 1664.88 617.54 1512.02 993.22 1532.86" style="fill:#53b4ed"></polygon>
      <polygon points="605.51 942.19 605.51 1122.42 180.9 1103.28 51.24 1014.48 188.8 938.23" style="fill:#fa5669"></polygon>
      <polygon points="605.51 1368.31 605.51 1519.09 169.41 1502.26 42.43 1409.88 182 1337.63" style="fill:#00dcab"></polygon>
      <path d="M617.54,743.72v1620.73c0,3.32-2.7,6.01-6.01,6.01c-3.32,0-6.01-2.7-6.01-6.01V743.72
			c0-3.32,2.7-6.01,6.01-6.01C614.84,737.7,617.54,740.4,617.54,743.72z" style="fill:#2e2d33"></path>
    </g>
    <g>
      <g>
        <g>
          <g>
            <path d="M2357.77,1866.12v97.38c0,3.33-2.7,6.01-6.01,6.01c-3.32,0-6.01-2.69-6.01-6.01v-97.38
						c0-18.38-14.96-33.34-33.34-33.34h-316.76c-18.38,0-33.33,14.96-33.33,33.34v97.38c0,3.33-2.7,6.01-6.01,6.01
						c-3.32,0-6.01-2.69-6.01-6.01v-97.38c0-25.01,20.35-45.37,45.36-45.37h316.76C2337.42,1820.75,2357.77,1841.11,2357.77,1866.12
						z" style="fill:#2e2d33"></path>
          </g>
          <g>
            <path d="M2306.03,1878.5v84.99c0,3.33-2.7,6.01-6.01,6.01c-3.33,0-6.01-2.69-6.01-6.01v-78.98h-279.97v78.98
						c0,3.33-2.7,6.01-6.01,6.01c-3.32,0-6.01-2.69-6.01-6.01v-84.99c0-3.33,2.7-6.01,6.01-6.01h292
						C2303.34,1872.49,2306.03,1875.18,2306.03,1878.5z" style="fill:#2e2d33"></path>
          </g>
        </g>
      </g>
      <g>
        <g>
          <g>
            <g>
              <path d="M2568.74,2229.42v257.14c0,21.72-17.68,39.39-39.41,39.39h-750.65c-21.72,0-39.39-17.67-39.39-39.39
							v-257.14c0-0.42,0.04-0.82,0.12-1.21c0-0.01,0-0.01,0-0.02c0.57-2.73,3-4.78,5.9-4.78h0.23c3.11,0,5.67,2.37,5.98,5.4
							c0.02,0.2,0.03,0.4,0.03,0.61c0,0.57-0.08,1.12-0.23,1.64v255.49c0,15.09,12.28,27.37,27.37,27.37h750.65
							c15.1,0,27.38-12.28,27.38-27.37v-255.54c-0.14-0.51-0.22-1.04-0.22-1.59c0-0.21,0.01-0.41,0.03-0.61
							c0.31-3.04,2.88-5.4,5.98-5.4h0.22c2.91,0,5.33,2.07,5.89,4.8c0,0,0.01,0.01,0,0.02
							C2568.7,2228.61,2568.74,2229.01,2568.74,2229.42z" style="fill:#2e2d33"></path>
            </g>
            <g>
              <path d="M2294,1963.5v-6.01h-279.97v6.01c0,3.33-2.7,6.01-6.01,6.01h292
							C2296.69,1969.51,2294,1966.83,2294,1963.5z M2523.03,1957.48h-738.02c-25.21,0-45.72,20.51-45.72,45.71v221.01
							c0,1.34,0.04,2.67,0.12,3.99c0,0.01,0,0.01,0,0.02c0.76,12.44,5.06,23.95,11.91,33.51c11.74,16.42,30.95,27.15,52.64,27.15
							h700.13c21.67,0,40.89-10.72,52.63-27.14c6.85-9.56,11.15-21.06,11.91-33.5c0.01-0.01,0-0.02,0-0.02
							c0.09-1.32,0.13-2.67,0.13-4.01v-221.01C2568.75,1977.99,2548.24,1957.48,2523.03,1957.48z M2504.09,2276.84h-700.13
							c-27.47,0-50.09-21.15-52.44-48.03c-0.13-1.51-0.2-3.06-0.2-4.61v-221.01c0-18.57,15.12-33.68,33.69-33.68h738.02
							c18.57,0,33.69,15.11,33.69,33.68v221.01c0,1.55-0.07,3.1-0.2,4.61C2554.18,2255.69,2531.56,2276.84,2504.09,2276.84z" style="fill:#2e2d33"></path>
              <path d="M2345.74,1866.12v91.37h-39.7v-78.98c0-3.33-2.7-6.01-6.01-6.01h-292c-3.32,0-6.01,2.69-6.01,6.01v78.98
							h-39.69v-91.37c0-18.38,14.95-33.34,33.33-33.34h316.76C2330.78,1832.78,2345.74,1847.73,2345.74,1866.12z" style="fill:#fff"></path>
              <path d="M2556.71,2261.73v224.83c0,15.09-12.28,27.37-27.38,27.37h-750.65c-15.09,0-27.37-12.28-27.37-27.37
							v-224.84c11.74,16.42,30.95,27.15,52.64,27.15h700.13C2525.76,2288.87,2544.97,2278.15,2556.71,2261.73z" style="fill:#bf6f31"></path>
              <path d="M2556.72,2003.19v221.01c0,1.55-0.07,3.1-0.2,4.61c-2.35,26.87-24.96,48.03-52.44,48.03h-700.13
							c-27.47,0-50.09-21.15-52.44-48.03c-0.13-1.51-0.2-3.06-0.2-4.61v-221.01c0-18.57,15.12-33.68,33.69-33.68h738.02
							C2541.61,1969.51,2556.72,1984.62,2556.72,2003.19z" style="fill:#bf6f31"></path>
            </g>
          </g>
        </g>
        <g>
          <g>
            <path d="M2200.35,2238.49h-92.66c-12.83,0-23.28,10.45-23.28,23.29v42.87c0,12.83,10.44,23.28,23.28,23.28h92.66
						c12.83,0,23.28-10.45,23.28-23.28v-42.87C2223.62,2248.93,2213.18,2238.49,2200.35,2238.49z M2211.6,2304.65
						c0,6.21-5.04,11.25-11.25,11.25h-92.66c-6.21,0-11.25-5.04-11.25-11.25v-42.87c0-6.21,5.04-11.26,11.25-11.26h92.66
						c6.21,0,11.25,5.05,11.25,11.26V2304.65z" style="fill:#2e2d33"></path>
            <path d="M2211.6,2261.77v42.87c0,6.21-5.04,11.25-11.25,11.25h-92.66c-6.21,0-11.25-5.04-11.25-11.25v-42.87
						c0-6.21,5.04-11.26,11.25-11.26h92.66C2206.55,2250.52,2211.6,2255.57,2211.6,2261.77z" style="fill:#ffc42e"></path>
          </g>
        </g>
      </g>
    </g>
    <g>
      <g>
        <path d="M2514.88,1457.04l0.03,0.3c0.07,0.61,0.24,1.22,0.52,1.8c1.02,2.18,3.19,3.46,5.45,3.46
				c0.85,0,1.72-0.18,2.55-0.57c1.17-0.55,2.44-1.17,3.8-1.86c14.24-7.33,38.23-23.13,65.93-55.52c3.56-4.16,7.18-8.6,10.85-13.32
				c0.82-1.06,1.23-2.32,1.25-3.56c0.01-0.07,0.01-0.14,0-0.21c-0.02-1.77-0.82-3.51-2.31-4.67c-2.63-2.04-6.41-1.55-8.44,1.06
				c-0.42,0.54-0.84,1.08-1.26,1.61c-27.6,35.17-51.85,52.92-67.17,61.58c-2.92,1.64-5.51,2.97-7.74,4.01
				C2516,1452.23,2514.7,1454.62,2514.88,1457.04z" style="fill:#2e2d33"></path>
      </g>
      <g>
        <path d="M2509.16,1377.59c1.17,1.2,2.74,1.81,4.3,1.81c1.51,0,3.04-0.57,4.2-1.72c0.69-0.68,1.37-1.37,2.02-2.08
				c15.87-16.87,25.06-42.92,30.29-64.74c0.73-3.1,1.39-6.1,1.98-8.99c0.66-3.26-1.44-6.44-4.69-7.1c-3.26-0.65-6.44,1.43-7.1,4.69
				c-0.23,1.15-0.49,2.37-0.76,3.62c-3.36,15.28-9.88,38.14-21.27,55.13c-2.69,4.01-5.64,7.7-8.89,10.88
				C2506.87,1371.41,2506.83,1375.22,2509.16,1377.59z" style="fill:#2e2d33"></path>
      </g>
      <g>
        <g>
          <g>
            <path d="M2560.53,2408.88l0.22,5.78l0.31,7.96l0.4,10.17c0.08,1.95,1.1,3.75,2.75,4.81
						c0.01,0.01,0.01,0.02,0.02,0.02c0.46,0.3,0.92,0.58,1.38,0.86c1.06,0.65,2.15,1.26,3.24,1.83c1.1,0.57,2.21,1.11,3.34,1.62
						c0.75,0.34,1.5,0.66,2.27,0.97c1.52,0.63,3.07,1.19,4.63,1.7c1.04,0.34,2.1,0.66,3.16,0.96c0,0.01,0.01,0.01,0.02,0.01
						c0.84,0.23,1.69,0.46,2.55,0.67c1.49,0.37,3.01,0.7,4.53,0.99c0.76,0.15,1.53,0.29,2.31,0.42c13.13,2.23,26.96,1.92,39.77,1.3
						c3.27-0.16,5.8-2.9,5.72-6.17l-0.15-6.17l-0.56-21.98l-0.15-6.16c-0.09-3.27-2.76-5.86-6.01-5.86h-63.73
						c-1.63,0-3.2,0.66-4.33,1.84C2561.07,2405.66,2560.46,2407.25,2560.53,2408.88z M2572.79,2414.66h51.61l0.57,22.55
						c-0.61,0.02-1.23,0.04-1.84,0.06c-1.25,0.04-2.51,0.07-3.76,0.09c-1.28,0.03-2.58,0.04-3.86,0.04c-1.01,0-2.02-0.01-3.04-0.02
						c-0.67-0.01-1.34-0.03-2.01-0.05c-0.67-0.01-1.34-0.04-2.02-0.06c-1.65-0.07-3.32-0.17-4.97-0.29
						c-0.49-0.03-0.99-0.07-1.48-0.12c-0.99-0.08-1.99-0.18-2.97-0.29c-1.01-0.12-2.02-0.25-3.02-0.39
						c-1.35-0.19-2.7-0.42-4.03-0.67c-0.19-0.04-0.38-0.07-0.56-0.11c-0.36-0.07-0.72-0.14-1.08-0.22c-0.47-0.1-0.94-0.2-1.41-0.31
						c-0.94-0.22-1.87-0.45-2.79-0.7c-0.46-0.12-0.92-0.25-1.38-0.39c-0.46-0.13-0.91-0.27-1.36-0.41
						c-0.45-0.15-0.89-0.29-1.33-0.45c-0.45-0.15-0.89-0.31-1.33-0.47c-0.5-0.19-1.01-0.38-1.5-0.58c-0.4-0.16-0.8-0.32-1.2-0.5
						c-0.84-0.36-1.66-0.74-2.48-1.14c-0.4-0.19-0.8-0.4-1.19-0.61c-0.33-0.17-0.65-0.34-0.97-0.52L2572.79,2414.66z" style="fill:#2e2d33"></path>
            <path d="M2572.79,2414.66l0.57,14.43c0.32,0.18,0.64,0.35,0.97,0.52c0.39,0.21,0.79,0.42,1.19,0.61
						c0.81,0.4,1.63,0.78,2.48,1.14c0.4,0.18,0.8,0.34,1.2,0.5c0.49,0.2,1,0.39,1.5,0.58c0.44,0.16,0.88,0.32,1.33,0.47
						c0.44,0.16,0.88,0.3,1.33,0.45c0.45,0.14,0.9,0.28,1.36,0.41c0.46,0.14,0.92,0.27,1.38,0.39c0.91,0.25,1.84,0.48,2.79,0.7
						c0.47,0.11,0.94,0.21,1.41,0.31c0.36,0.08,0.72,0.15,1.08,0.22c0.18,0.04,0.37,0.07,0.56,0.11c1.33,0.25,2.68,0.47,4.03,0.67
						c1,0.14,2,0.27,3.02,0.39c0.98,0.11,1.97,0.21,2.97,0.29c0.49,0.05,0.99,0.09,1.48,0.12c1.65,0.12,3.32,0.22,4.97,0.29
						c0.68,0.02,1.35,0.05,2.02,0.06c0.67,0.02,1.34,0.04,2.01,0.05c1.01,0.01,2.02,0.02,3.04,0.02c1.28,0,2.58-0.01,3.86-0.04
						c1.25-0.02,2.51-0.05,3.76-0.09c0.61-0.02,1.23-0.04,1.84-0.06l-0.57-22.55h-51.58V2414.66z" style="fill:#fff"></path>
          </g>
          <g>
            <path d="M2477.66,2499.36v0.01V2499.36L2477.66,2499.36z M2465.62,2499.36L2465.62,2499.36L2465.62,2499.36z
						 M2465.63,2499.35c0,3.55,0.69,6.99,2,10.17c1.31,3.19,3.26,6.11,5.76,8.61c5.02,5.02,11.69,7.79,18.79,7.79l127.83,0.04
						c0,0,0.01,0,0.02,0c18.89,0,34.33-15.28,34.43-34.08c0.08-13.96-1.24-32.51-12.27-52.16c-1.05-1.89-3.05-3.07-5.19-3.08
						c-0.13,0-0.25,0-0.38,0.01c-1.92,0.11-3.86,0.22-5.78,0.31s-3.88,0.18-5.85,0.25c-0.61,0.02-1.23,0.04-1.84,0.06
						c-1.25,0.04-2.51,0.07-3.76,0.09c-1.28,0.03-2.58,0.04-3.86,0.04c-1.01,0-2.02-0.01-3.04-0.02c-0.67-0.01-1.34-0.03-2.01-0.05
						c-0.67-0.01-1.34-0.04-2.02-0.06c-1.65-0.07-3.32-0.17-4.97-0.29c-0.49-0.03-0.99-0.07-1.48-0.12
						c-0.99-0.08-1.99-0.18-2.97-0.29c-1.01-0.12-2.02-0.25-3.02-0.39c-1.35-0.2-2.7-0.42-4.03-0.67c-0.19-0.04-0.38-0.07-0.56-0.11
						c-0.36-0.07-0.72-0.14-1.08-0.22c-0.47-0.1-0.94-0.2-1.41-0.31c-0.94-0.22-1.87-0.45-2.79-0.7c-0.46-0.12-0.92-0.25-1.38-0.39
						c-0.46-0.13-0.91-0.27-1.36-0.41c-0.45-0.15-0.89-0.29-1.33-0.45c-0.45-0.15-0.89-0.31-1.33-0.47c-0.5-0.19-1.01-0.38-1.5-0.58
						c-0.4-0.16-0.8-0.33-1.2-0.5c-0.84-0.36-1.66-0.74-2.48-1.14c-0.4-0.19-0.8-0.4-1.19-0.61c-0.33-0.17-0.65-0.34-0.97-0.52
						c-0.89-0.5-1.76-1.02-2.62-1.57c-0.89-0.57-1.68-1.12-2.44-1.69c-2.36-1.75-4.83-2.82-7.25-3.2c-3.4-0.55-6.69,0.25-9.39,2.41
						l-80.11,62.02c-0.04,0.04-0.08,0.07-0.13,0.11c-1.82,1.48-3.18,3.84-3.99,5.54C2466.61,2494.44,2465.64,2497,2465.63,2499.35z
						 M2477.65,2499.56c0.06-0.24,0.24-0.84,0.64-1.68c0.38-0.78,0.72-1.3,0.88-1.51l79.9-61.85c0.01-0.01,0.02-0.02,0.03-0.02
						c0.27,0.03,0.99,0.22,1.99,0.96c0.96,0.73,2,1.44,3.11,2.16c0.01,0.01,0.01,0.02,0.02,0.02c0.46,0.3,0.92,0.58,1.38,0.86
						c1.06,0.65,2.15,1.26,3.24,1.83c1.1,0.58,2.21,1.12,3.34,1.62c0.75,0.34,1.5,0.66,2.27,0.97c1.52,0.63,3.07,1.19,4.63,1.7
						c1.04,0.34,2.1,0.66,3.16,0.96c0,0.01,0.01,0.01,0.02,0.01c0.84,0.23,1.69,0.46,2.55,0.67c1.49,0.37,3.01,0.7,4.53,0.99
						c0.76,0.15,1.53,0.29,2.31,0.42c13.13,2.23,26.96,1.92,39.77,1.3c0.67-0.04,1.34-0.07,2.02-0.11c8,15.85,9.06,30.53,8.99,42.94
						c-0.06,12.2-10.11,22.11-22.4,22.11c-0.01,0-0.01,0-0.02,0l-127.82-0.04c-3.89,0-7.54-1.51-10.28-4.26
						C2479.21,2506.93,2477.7,2503.37,2477.65,2499.56z" style="fill:#2e2d33"></path>
            <path d="M2477.65,2499.56c0.05,3.81,1.55,7.38,4.25,10.07c2.75,2.75,6.4,4.26,10.28,4.26l127.82,0.04
						c0.01,0,0.01,0,0.02,0c12.29,0,22.34-9.91,22.4-22.11c0.07-12.41-0.99-27.1-8.99-42.94c-0.67,0.04-1.34,0.07-2.02,0.11
						c-12.81,0.62-26.64,0.92-39.77-1.3c-0.77-0.13-1.54-0.27-2.31-0.42c-1.52-0.29-3.04-0.62-4.53-0.99
						c-0.85-0.21-1.7-0.44-2.55-0.67c-0.01,0-0.02,0-0.02-0.01c-1.06-0.3-2.11-0.62-3.16-0.96c-1.56-0.51-3.11-1.07-4.63-1.7
						c-0.76-0.31-1.51-0.63-2.27-0.97c-1.13-0.5-2.24-1.04-3.34-1.62c-1.09-0.57-2.18-1.18-3.24-1.83
						c-0.46-0.28-0.92-0.56-1.38-0.86c-0.01,0-0.01-0.01-0.02-0.02c-1.11-0.71-2.15-1.42-3.11-2.16c-1-0.74-1.72-0.93-1.99-0.96
						c-0.01,0-0.02,0.01-0.03,0.02l-79.9,61.85c-0.16,0.21-0.5,0.73-0.88,1.51C2477.9,2498.71,2477.71,2499.32,2477.65,2499.56z" style="fill:#67737e"></path>
          </g>
          <g>
            <path d="M2798.42,2408.88l0.23,5.78l0.31,7.95l0.4,10.18c0.08,1.95,1.09,3.75,2.74,4.81
						c0.01,0.01,0.02,0.01,0.03,0.02c0.46,0.3,0.93,0.59,1.4,0.88c2.36,1.42,4.78,2.68,7.29,3.77c0.5,0.22,1.01,0.43,1.52,0.64
						c17.61,7.2,38.37,6.97,56.98,6.06c3.26-0.16,5.8-2.9,5.71-6.17l-0.15-6.17l-0.56-21.98l-0.15-6.16
						c-0.08-3.27-2.75-5.86-6.01-5.86h-63.72c-1.64,0-3.21,0.66-4.34,1.84C2798.96,2405.66,2798.36,2407.25,2798.42,2408.88z
						 M2810.69,2414.66h51.6l0.57,22.55c-0.61,0.02-1.22,0.04-1.84,0.06c-1.24,0.04-2.5,0.07-3.76,0.09
						c-1.28,0.03-2.57,0.04-3.85,0.04c-1.01,0-2.03-0.01-3.04-0.02c-0.67-0.01-1.33-0.03-2-0.05c-0.68-0.01-1.36-0.04-2.04-0.06
						c-1.65-0.07-3.32-0.17-4.96-0.29c-0.49-0.03-0.99-0.07-1.48-0.12c-0.99-0.08-1.99-0.18-2.97-0.29
						c-0.49-0.06-0.98-0.12-1.47-0.18c-0.48-0.06-0.97-0.13-1.45-0.2c-0.03,0-0.06-0.01-0.09-0.01c-1.36-0.19-2.71-0.42-4.04-0.67
						c-0.14-0.03-0.27-0.05-0.4-0.08c-0.41-0.08-0.82-0.16-1.23-0.25c-0.47-0.1-0.94-0.2-1.41-0.31c-0.47-0.1-0.94-0.22-1.4-0.34
						c-0.47-0.11-0.93-0.23-1.38-0.36c-0.92-0.24-1.83-0.51-2.74-0.8c-0.45-0.14-0.9-0.29-1.34-0.45c-0.45-0.14-0.89-0.3-1.33-0.47
						c-0.4-0.14-0.8-0.3-1.2-0.46c-0.54-0.21-1.07-0.43-1.59-0.65c-0.77-0.33-1.52-0.68-2.28-1.05c-0.02-0.01-0.04-0.02-0.07-0.04
						c-0.37-0.18-0.75-0.37-1.11-0.56c-0.37-0.19-0.74-0.39-1.1-0.59v-0.01L2810.69,2414.66z" style="fill:#2e2d33"></path>
            <path d="M2810.69,2414.66l0.56,14.41c0.36,0.21,0.73,0.41,1.1,0.6c0.36,0.19,0.74,0.38,1.11,0.56
						c0.03,0.02,0.05,0.03,0.07,0.04c0.75,0.37,1.5,0.72,2.28,1.05c0.52,0.22,1.05,0.44,1.59,0.65c0.4,0.16,0.8,0.31,1.2,0.46
						c0.44,0.16,0.88,0.32,1.33,0.47c0.44,0.16,0.89,0.31,1.34,0.45c0.9,0.29,1.81,0.55,2.74,0.8c0.45,0.13,0.91,0.25,1.38,0.36
						c0.46,0.12,0.93,0.23,1.4,0.34s0.94,0.21,1.41,0.31c0.41,0.09,0.82,0.17,1.23,0.25c0.13,0.03,0.26,0.05,0.4,0.08
						c1.33,0.25,2.68,0.47,4.04,0.67c0.03,0,0.06,0.01,0.09,0.01c0.48,0.07,0.97,0.14,1.45,0.2c0.49,0.06,0.98,0.12,1.47,0.18
						c0.98,0.11,1.97,0.21,2.97,0.29c0.49,0.05,0.99,0.09,1.48,0.12c1.64,0.12,3.31,0.22,4.96,0.29c0.68,0.02,1.36,0.05,2.04,0.06
						c0.67,0.02,1.33,0.04,2,0.05c1.01,0.01,2.02,0.02,3.04,0.02c1.28,0,2.57-0.01,3.85-0.04c1.26-0.02,2.52-0.05,3.76-0.09
						c0.62-0.02,1.23-0.04,1.84-0.06l-0.57-22.55h-51.56V2414.66z" style="fill:#fff"></path>
          </g>
          <g>
            <path d="M2703.53,2499.35v0.04c0,7.08,2.76,13.74,7.77,18.75c5.01,5.02,11.69,7.79,18.79,7.79l127.82,0.04h0.03
						c18.89,0,34.33-15.28,34.43-34.08c0.08-13.96-1.25-32.51-12.27-52.16c-1.05-1.89-3.05-3.07-5.2-3.08c-0.12,0-0.25,0-0.38,0.01
						c-1.91,0.11-3.85,0.22-5.77,0.31c-1.93,0.09-3.89,0.18-5.86,0.25c-0.61,0.02-1.22,0.04-1.84,0.06
						c-1.24,0.04-2.5,0.07-3.76,0.09c-1.28,0.03-2.57,0.04-3.85,0.04c-1.01,0-2.03-0.01-3.04-0.02c-0.67-0.01-1.33-0.03-2-0.05
						c-0.68-0.01-1.36-0.04-2.04-0.06c-1.65-0.07-3.32-0.17-4.96-0.29c-0.49-0.03-0.99-0.07-1.48-0.12
						c-0.99-0.08-1.99-0.18-2.97-0.29c-0.49-0.06-0.98-0.12-1.47-0.18c-0.48-0.06-0.97-0.13-1.45-0.2c-0.03,0-0.06-0.01-0.09-0.01
						c-1.36-0.2-2.71-0.42-4.04-0.67c-0.14-0.03-0.27-0.05-0.4-0.08c-0.41-0.08-0.82-0.16-1.23-0.25c-0.47-0.1-0.94-0.2-1.41-0.31
						s-0.94-0.22-1.4-0.34c-0.47-0.11-0.93-0.23-1.38-0.36c-0.92-0.25-1.83-0.51-2.74-0.8c-0.45-0.14-0.9-0.29-1.34-0.45
						c-0.45-0.15-0.89-0.31-1.33-0.47c-0.4-0.15-0.8-0.3-1.2-0.46c-0.54-0.21-1.07-0.43-1.59-0.65c-0.77-0.33-1.52-0.68-2.28-1.05
						c-0.02-0.01-0.04-0.02-0.07-0.04c-0.37-0.18-0.75-0.37-1.11-0.56c-0.37-0.19-0.74-0.39-1.1-0.6c-0.88-0.49-1.75-1.01-2.61-1.56
						c-0.89-0.57-1.68-1.12-2.44-1.69c-2.36-1.75-4.82-2.83-7.25-3.21c-3.39-0.55-6.69,0.25-9.39,2.41l-80.11,62.02
						c-0.05,0.04-0.09,0.07-0.13,0.11c-1.82,1.48-3.18,3.84-4,5.54C2704.51,2494.44,2703.53,2497,2703.53,2499.35z M2715.55,2499.56
						c0.06-0.24,0.24-0.84,0.63-1.68c0.38-0.78,0.73-1.3,0.89-1.51l79.9-61.85c0.01-0.01,0.02-0.02,0.03-0.02
						c0.26,0.02,0.98,0.21,1.97,0.95c0.97,0.73,2,1.45,3.12,2.17c0.01,0.01,0.02,0.01,0.03,0.02c0.46,0.3,0.93,0.59,1.4,0.88
						c2.36,1.42,4.78,2.68,7.29,3.77c0.5,0.22,1.01,0.43,1.52,0.64c17.61,7.2,38.37,6.97,56.98,6.06c0.67-0.04,1.34-0.07,2.02-0.11
						c8,15.85,9.06,30.53,8.99,42.94c-0.07,12.2-10.11,22.11-22.41,22.11h-0.01l-127.83-0.04c-3.89,0-7.54-1.51-10.27-4.26
						C2717.11,2506.93,2715.6,2503.37,2715.55,2499.56z" style="fill:#2e2d33"></path>
            <path d="M2715.55,2499.56c0.05,3.81,1.55,7.38,4.25,10.07c2.74,2.75,6.39,4.26,10.27,4.26l127.83,0.04h0.01
						c12.3,0,22.34-9.91,22.41-22.11c0.07-12.41-0.99-27.1-8.99-42.94c-0.67,0.04-1.34,0.07-2.02,0.11
						c-18.6,0.9-39.36,1.13-56.98-6.06c-0.51-0.2-1.02-0.42-1.52-0.64c-2.51-1.09-4.93-2.35-7.29-3.77
						c-0.47-0.29-0.94-0.58-1.4-0.88c-0.01-0.01-0.02-0.01-0.03-0.02c-1.11-0.71-2.14-1.43-3.12-2.17
						c-0.99-0.74-1.71-0.93-1.97-0.95c-0.01,0-0.02,0.01-0.03,0.02l-79.9,61.85c-0.16,0.21-0.51,0.73-0.89,1.51
						C2715.8,2498.71,2715.61,2499.32,2715.55,2499.56z" style="fill:#67737e"></path>
          </g>
          <g>
            <g>
              <path d="M2514.88,1976.57l33.37,432.54c0.24,3.14,2.85,5.55,5.99,5.55h87.52c3.25,0,5.91-2.58,6.01-5.81
							l11.98-366.62c1.47-26.21,6.28-52.17,14.26-77.11l42.48-118.25l21.81,148.42c0.51,6.68,1.23,13.31,2.16,19.73l44.11,394.31
							c0.34,3.04,2.92,5.34,5.98,5.34h90.14c3.29,0,5.96-2.64,6.01-5.92c1.03-68.78,2.55-136.96,4.02-202.89
							c4.03-180.99,7.83-352.03,2.18-532.32c-0.04-1.31-0.08-2.63-0.12-3.94c-0.1-3.32-2.9-5.93-6.2-5.82
							c-3.32,0.11-5.92,2.89-5.81,6.2c0.09,2.91,0.18,5.81,0.27,8.71c5.43,178.21,1.66,347.66-2.34,526.89
							c-1.42,64.06-2.9,130.24-3.93,197.05h-78.84l-43.52-389.06c0-0.06-0.01-0.13-0.02-0.19c-0.9-6.24-1.6-12.71-2.09-19.22
							c-0.01-0.14-0.02-0.29-0.04-0.43l-25.34-172.38c-0.4-2.73-2.61-4.83-5.35-5.1s-5.32,1.35-6.26,3.95l-50.63,140.95
							c-0.03,0.06-0.05,0.13-0.07,0.19c-8.33,25.98-13.33,53-14.86,80.29c0,0.05-0.01,0.1-0.01,0.14l-11.79,360.86h-76.14
							l-32.94-426.98c-2.2-28.38,0.08-56.8,6.78-84.47l58.98-244.01l1.46-6.07c0.78-3.23-1.2-6.48-4.43-7.26s-6.48,1.2-7.26,4.43
							l-1.37,5.67l-59.08,244.42C2514.96,1917.26,2512.59,1946.94,2514.88,1976.57z" style="fill:#2e2d33"></path>
            </g>
            <g>
              <path d="M2518.7,1279.72c5.46,9.1,12.76,16.85,20.71,23.36c3.43,2.83,6.99,5.41,10.56,7.78
							c16.68,11.05,33.84,17.29,41.6,19.79c0.6,10.69,1.03,21.43,1.32,32.74c0.16,6.08,0.26,11.55,0.29,16.7
							c0,0.01,0.01,0.01,0.01,0.01c0.02,1.8,0.03,3.63,0.04,5.46c0.02,6.22,0,12.6-0.08,19.09c-0.93,78.73-9.32,173.99-20.76,231.12
							c-0.62,3.11,1.27,6.15,4.33,6.99c1.43,0.39,2.87,0.78,4.3,1.18c3.85,1.04,7.73,2.13,11.6,3.23
							c11.85,3.34,23.73,6.83,35.33,10.22c45.11,13.23,91.76,26.91,136.06,32.39c13.61,1.68,26.62,2.53,39.06,2.53
							c28.78,0,54.57-4.51,77.96-13.61c3.82-1.48,7.57-3.09,11.26-4.81c0.21-0.1,0.42-0.21,0.61-0.34c1.75-1.07,2.84-2.98,2.86-5.06
							c0.28-38.54-5.91-145.28-8.56-190.86l-0.42-7.23c-1.51-27.1-3.65-53.07-6.37-77.19c-2.35-21.21-5.23-42.18-8.58-62.38
							l71.78-38.29l10.58-5.61c2.89-1.53,4.02-5.08,2.56-8l-50.14-100.27c-11.94-23.88-34.84-40.59-61.28-44.69l-85.03-12.39
							l-4.57-0.66c-1.84-0.27-3.71,0.33-5.04,1.62c-1.26,1.21-1.92,2.93-1.83,4.66l0.09,0.81c1.84,15.87-9.05,30.24-24.81,32.75
							c-1.56,0.25-3.15,0.37-4.68,0.37c-14.97,0-27.61-11.22-29.39-26.1l-0.5-3.93c-0.17-1.36-0.8-2.64-1.79-3.59
							c-0.33-0.31-0.51-0.47-0.51-0.47c-1.3-1.21-3.09-1.78-4.85-1.56l-5.57,0.72l-29.95,3.86c-24.89,0.14-48.37,13.33-61.35,34.51
							l-66.8,108.93C2517.56,1275.4,2517.55,1277.81,2518.7,1279.72z M2530.95,1276.57l64.84-105.72
							c10.88-17.74,30.6-28.77,51.48-28.77c0.26,0,0.51-0.02,0.77-0.05l30.3-3.91c0.02,0.11,0.03,0.21,0.06,0.32
							c0.05,0.32,0.11,0.64,0.17,0.96c0.06,0.31,0.13,0.63,0.19,0.94c0.07,0.32,0.14,0.63,0.22,0.95c0.23,0.93,0.48,1.86,0.77,2.77
							c0.09,0.31,0.19,0.61,0.3,0.91c0.44,1.3,0.95,2.59,1.52,3.83c0.12,0.28,0.25,0.56,0.39,0.83c0.1,0.22,0.21,0.43,0.31,0.63
							c0.13,0.26,0.26,0.51,0.4,0.76c0.09,0.18,0.18,0.34,0.27,0.51s0.19,0.35,0.29,0.52c1.65,2.92,3.66,5.6,5.93,8.02
							c0.21,0.22,0.42,0.44,0.64,0.66c0.43,0.44,0.88,0.87,1.33,1.29c0.22,0.21,0.45,0.42,0.68,0.62c1.99,1.76,4.16,3.35,6.46,4.7
							c0.23,0.14,0.46,0.28,0.7,0.41c2.57,1.45,5.28,2.64,8.14,3.52c0.25,0.08,0.5,0.16,0.75,0.23c0.49,0.14,0.98,0.27,1.48,0.4
							c0.55,0.13,1.1,0.26,1.65,0.37c0.91,0.19,1.82,0.35,2.76,0.47c0.31,0.05,0.62,0.09,0.93,0.12c0.36,0.04,0.71,0.08,1.06,0.11
							c0.27,0.02,0.54,0.04,0.82,0.06c0.11,0.01,0.23,0.02,0.34,0.02c0.48,0.03,0.97,0.05,1.46,0.07c0.35,0.01,0.7,0.01,1.05,0.01
							c2.16,0,4.37-0.17,6.57-0.52c0.51-0.08,1.02-0.17,1.52-0.27c0.21-0.04,0.42-0.08,0.62-0.13c0.5-0.1,0.99-0.22,1.48-0.34
							c0.53-0.13,1.05-0.27,1.57-0.43c0.14-0.03,0.27-0.07,0.4-0.11c0.51-0.15,1.02-0.32,1.52-0.49c0.56-0.19,1.11-0.39,1.65-0.6
							c0.03-0.02,0.05-0.03,0.08-0.04c0.46-0.18,0.92-0.37,1.37-0.57c0.21-0.09,0.42-0.18,0.62-0.28c0.45-0.2,0.89-0.41,1.32-0.63
							c0.39-0.19,0.78-0.39,1.16-0.6c1.17-0.63,2.32-1.32,3.42-2.05c0.41-0.28,0.82-0.57,1.22-0.86c0.04-0.03,0.08-0.06,0.12-0.09
							c0.45-0.32,0.89-0.66,1.33-1c0.02-0.02,0.04-0.04,0.06-0.05c0.45-0.36,0.89-0.73,1.33-1.11c0,0,0.01,0,0.01-0.01
							c0.43-0.37,0.86-0.76,1.28-1.16c0.01-0.01,0.03-0.02,0.05-0.04c0.41-0.39,0.8-0.78,1.19-1.18c0.03-0.03,0.06-0.06,0.09-0.09
							c0.34-0.35,0.67-0.7,0.99-1.06c0.48-0.53,0.94-1.07,1.4-1.63c0.29-0.36,0.57-0.72,0.85-1.08c0.08-0.11,0.16-0.22,0.25-0.34
							c0.28-0.37,0.55-0.75,0.81-1.13c0.33-0.48,0.65-0.96,0.96-1.45c0.56-0.89,1.09-1.8,1.59-2.75c0.07-0.12,0.13-0.24,0.19-0.37
							c0.22-0.41,0.42-0.82,0.62-1.24c0.06-0.12,0.12-0.25,0.17-0.37c0.2-0.42,0.39-0.85,0.58-1.28c0.02-0.05,0.04-0.1,0.06-0.15
							c0.41-0.99,0.79-2.02,1.13-3.05c0.06-0.17,0.12-0.35,0.17-0.53c0.15-0.46,0.28-0.92,0.41-1.38c0.16-0.57,0.3-1.14,0.43-1.71
							c0.14-0.58,0.26-1.15,0.36-1.73c0.11-0.59,0.21-1.17,0.29-1.76c0.17-1.18,0.29-2.38,0.35-3.58l82.43,12.01
							c22.54,3.5,42.11,17.76,52.3,38.17l47.52,95.02l-5.4,2.86l-74.15,39.57l-1.4,0.72c-2.33,1.2-3.6,3.77-3.16,6.35
							c3.62,21.29,6.72,43.49,9.21,66.01c2.69,23.91,4.8,49.65,6.3,76.53l0.42,7.24c2.34,40.24,8.42,145.02,8.54,186.25
							c-75.21,33.26-161.32,8-252.38-18.7c-13.67-4.01-27.72-8.13-41.69-12.02c-1.47-0.41-2.94-0.82-4.4-1.22
							c11.83-62.58,20.2-164.98,20-244.85c0.01-0.07,0.01-0.14,0-0.21c0-2.55-0.02-5.06-0.04-7.57c-0.04-5.23-0.13-10.77-0.3-16.91
							c-0.32-12.92-0.84-25.13-1.57-37.33c-0.16-2.59-1.94-4.77-4.44-5.44C2598.43,1320.17,2551.77,1307.2,2530.95,1276.57z" style="fill:#2e2d33"></path>
              <path d="M2605.22,1379.98c0.78,80.89-7.74,187.99-19.96,252.63c1.46,0.4,2.93,0.81,4.4,1.22
							c13.97,3.89,28.02,8.01,41.69,12.02c91.07,26.7,177.17,51.96,252.38,18.7c-0.12-41.23-6.21-146.01-8.54-186.25l-0.42-7.24
							c-1.5-26.88-3.62-52.63-6.3-76.53c-2.5-22.51-5.59-44.72-9.21-66.01c-0.44-2.58,0.83-5.14,3.16-6.35l1.4-0.72l74.15-39.57
							l5.4-2.86l-47.52-95.02c-10.19-20.41-29.76-34.67-52.3-38.17l-82.43-12.01c-1.05,19.28-15.37,35.66-35.09,38.78
							c-2.2,0.35-4.4,0.52-6.57,0.52c-20.5,0-37.88-14.96-41.11-35.03l-30.3,3.91c-0.26,0.03-0.51,0.05-0.77,0.05
							c-20.88,0-40.61,11.03-51.48,28.77l-64.84,105.72c20.82,30.63,67.48,43.6,67.95,43.73c2.5,0.67,4.28,2.86,4.44,5.44
							c0.73,12.2,1.25,24.41,1.57,37.33C2605.09,1369.22,2605.18,1374.75,2605.22,1379.98z" style="fill:#8a8bc4"></path>
              <path d="M2526.87,1975.65l32.94,426.98h76.14l11.79-360.86c0-0.04,0.01-0.09,0.01-0.14
							c1.52-27.3,6.53-54.31,14.86-80.29c0.02-0.06,0.04-0.13,0.07-0.19l50.63-140.95c0.93-2.6,3.52-4.22,6.26-3.95
							c2.75,0.27,4.95,2.38,5.35,5.1l25.34,172.38c0.02,0.14,0.03,0.29,0.04,0.43c0.49,6.51,1.19,12.98,2.09,19.22
							c0.01,0.06,0.02,0.13,0.02,0.19l43.52,389.06h78.84c1.03-66.81,2.51-132.99,3.93-197.05c4-179.23,7.77-348.68,2.34-526.89
							c-23.39,9.1-49.18,13.61-77.96,13.61c-12.44,0-25.45-0.84-39.06-2.53c-44.3-5.47-90.95-19.16-136.06-32.39
							c-11.61-3.4-23.49-6.89-35.33-10.22l-58.98,244.01C2526.95,1918.86,2524.68,1947.27,2526.87,1975.65z" style="fill:#fff"></path>
            </g>
          </g>
        </g>
        <g>
          <path d="M2587.35,1375.23c1.33,5.2,5.1,9.11,10.1,10.57c2.46,0.78,5.31,0.86,8.38-0.04l6.47-1.95l-6.04,6.99
					c-4,4.67-4.34,11.41-0.82,16.41c2.42,3.54,6.53,5.69,10.95,5.69c2.73,0,5.31-0.78,7.49-2.26l7.77-5.18l-2.81,5.37
					c-3.58,6.82-1.23,15.31,5.33,19.32c2.21,1.39,4.86,2.15,7.59,2.15c3.45,0,6.8-1.21,9.43-3.43l19.9-16.6
					c2.3-1.89,5.48-2.16,8.09-0.67c23.49,13.62,107.46,58.62,201.19,65.15c7.64,0.55,15.23,0.82,22.7,0.82
					c7.26,0,14.4-0.26,21.4-0.77c22.79-1.6,41.98-18.21,46.66-40.4c6.8-31.92,7.99-84.16-24.93-151.8
					c-0.72-1.47-1.99-2.59-3.56-3.09c-1.54-0.5-3.24-0.36-4.68,0.41l-74.14,39.56c-2.61,1.38-3.82,4.46-2.86,7.26l20.31,59
					c-2.49,0.1-4.99,0.13-7.51,0.13c-43.43,0-96.81-12.2-172.96-39.5c-0.06-0.02-0.13-0.04-0.2-0.07
					c-2.31-0.73-57.06-17.69-104.63,9.7c-0.55,0.3-1.23,0.67-1.95,1.13C2588.53,1362.49,2585.82,1368.99,2587.35,1375.23z
					 M2600.39,1369.31c0.51-0.32,0.95-0.56,1.39-0.8c0.05-0.02,0.09-0.04,0.13-0.07c42.08-24.27,92.55-9.45,94.96-8.72
					c77.85,27.91,132.62,40.33,177.6,40.17c5.24,0,10.49-0.21,15.57-0.63c1.84-0.15,3.53-1.14,4.54-2.71
					c1.01-1.55,1.25-3.49,0.65-5.24l-21.22-61.64l64.05-34.17c28.68,61.82,27.53,109.21,21.3,138.39c0,0.01,0,0.01,0,0.01
					c-3.57,16.96-18.27,29.66-35.76,30.89c-13.64,1-27.91,0.98-42.4-0.05c-91.16-6.35-173.08-50.26-196.02-63.56
					c-7.01-4.03-15.55-3.31-21.77,1.82l-19.94,16.64c-0.84,0.7-2.14,0.8-2.97,0.28c-1.27-0.77-1.68-2.27-1.02-3.51l13.72-26.24
					c1.27-2.44,0.73-5.42-1.3-7.26c-2.04-1.83-5.08-2.05-7.37-0.53l-27.39,18.28c-0.12,0.08-0.3,0.2-0.77,0.2
					c-0.32,0-0.76-0.09-1.06-0.52c-0.38-0.54-0.33-1.24,0.06-1.69l19.59-22.67c1.74-2.02,1.94-4.96,0.49-7.21
					c-1.46-2.25-4.22-3.26-6.79-2.49l-26.28,7.95c-0.47,0.14-0.74,0.15-0.79,0.15c-0.33,0-0.47-0.04-0.47-0.04
					c-0.08-0.03-0.21-0.07-0.28-0.09c-0.91-0.25-1.57-0.96-1.83-1.94C2598.74,1371.22,2599.3,1369.99,2600.39,1369.31z" style="fill:#2e2d33"></path>
          <path d="M2599.01,1372.31c0.26,0.98,0.92,1.69,1.83,1.94c0.07,0.02,0.2,0.06,0.28,0.09c0,0,0.14,0.04,0.47,0.04
					c0.05,0,0.32-0.01,0.79-0.15l26.28-7.95c2.57-0.77,5.32,0.24,6.79,2.49c1.45,2.25,1.25,5.18-0.49,7.21l-19.59,22.67
					c-0.39,0.45-0.44,1.15-0.06,1.69c0.3,0.43,0.74,0.52,1.06,0.52c0.47,0,0.65-0.12,0.77-0.2l27.39-18.28
					c2.29-1.52,5.32-1.3,7.37,0.53c2.04,1.83,2.58,4.82,1.3,7.26l-13.72,26.24c-0.66,1.24-0.25,2.74,1.02,3.51
					c0.82,0.52,2.13,0.42,2.97-0.28l19.94-16.64c6.22-5.13,14.77-5.85,21.77-1.82c22.93,13.3,104.86,57.22,196.02,63.56
					c14.49,1.03,28.76,1.05,42.4,0.05c17.48-1.23,32.19-13.93,35.76-30.89c0,0,0,0,0-0.01c6.23-29.18,7.38-76.57-21.3-138.39
					l-64.05,34.17l21.22,61.64c0.6,1.75,0.36,3.69-0.65,5.24c-1.01,1.56-2.7,2.56-4.54,2.71c-5.08,0.42-10.32,0.63-15.57,0.63
					c-44.98,0.16-99.75-12.26-177.6-40.17c-2.41-0.73-52.88-15.55-94.96,8.72c-0.04,0.03-0.08,0.05-0.13,0.07
					c-0.44,0.24-0.88,0.48-1.39,0.8C2599.3,1369.99,2598.74,1371.22,2599.01,1372.31z" style="fill:#fff"></path>
        </g>
      </g>
      <g>
        <g>
          <path d="M2675.78,1117.35c0,0.19,0.01,0.38,0.03,0.56c0,0.05,0,0.11,0.01,0.16l0.6,4.8l0.41,3.32l1.29,10.3
					c0.07,0.6,0.16,1.19,0.25,1.78c0.01,0.05,0.02,0.11,0.03,0.16c0.05,0.32,0.11,0.64,0.17,0.96c0.06,0.31,0.13,0.63,0.19,0.94
					c0.07,0.32,0.14,0.63,0.22,0.95c0.12,0.48,0.24,0.96,0.37,1.43c0.13,0.45,0.26,0.89,0.4,1.33c0.09,0.31,0.19,0.61,0.3,0.91
					c0.44,1.3,0.95,2.59,1.52,3.83c0.12,0.28,0.25,0.56,0.39,0.83c0.1,0.22,0.21,0.43,0.31,0.63c0.13,0.26,0.26,0.51,0.4,0.76
					c0.09,0.18,0.18,0.33,0.26,0.5c0.01,0,0.01,0.01,0.01,0.01c0.09,0.17,0.19,0.35,0.29,0.52c0.21,0.36,0.42,0.72,0.64,1.08
					c0.18,0.3,0.36,0.59,0.55,0.88c0.94,1.46,1.97,2.87,3.09,4.19c0.27,0.32,0.54,0.63,0.81,0.94c0.28,0.31,0.56,0.62,0.84,0.92
					c0.21,0.22,0.42,0.44,0.64,0.66c0.43,0.44,0.88,0.87,1.33,1.29c0.22,0.21,0.45,0.42,0.68,0.62c0.5,0.44,1.01,0.87,1.52,1.29
					c0.52,0.41,1.05,0.82,1.59,1.21c0.58,0.43,1.18,0.84,1.79,1.24c0.5,0.32,1.02,0.64,1.54,0.95c0.23,0.14,0.46,0.28,0.7,0.41
					c0.81,0.46,1.64,0.9,2.5,1.3c0.27,0.13,0.54,0.26,0.82,0.38c0.64,0.3,1.29,0.57,1.96,0.83c0.25,0.1,0.5,0.19,0.75,0.28
					c0.69,0.26,1.4,0.5,2.11,0.72c0.25,0.08,0.5,0.16,0.75,0.23c0.49,0.14,0.98,0.27,1.48,0.4c0.55,0.13,1.1,0.26,1.65,0.37
					c0.45,0.09,0.91,0.18,1.37,0.26c0.46,0.08,0.92,0.15,1.38,0.21c0.31,0.05,0.62,0.09,0.93,0.12c0.36,0.04,0.71,0.08,1.06,0.11
					c0.27,0.02,0.54,0.04,0.82,0.06c0.11,0.01,0.23,0.02,0.34,0.02c0.42,0.03,0.86,0.05,1.29,0.06c0.06,0.01,0.11,0.01,0.17,0.01
					c0.35,0.01,0.7,0.01,1.05,0.01c2.16,0,4.37-0.17,6.57-0.52c0.51-0.08,1.02-0.17,1.52-0.27c0.21-0.04,0.42-0.08,0.62-0.13
					c0.5-0.1,0.99-0.22,1.48-0.34c0.47-0.11,0.93-0.24,1.39-0.38c0.06-0.01,0.12-0.03,0.18-0.05c0.14-0.03,0.27-0.07,0.4-0.11
					c0.51-0.15,1.02-0.32,1.52-0.49c0.56-0.19,1.11-0.39,1.65-0.6c0.03-0.02,0.05-0.03,0.08-0.04c0.46-0.18,0.92-0.37,1.37-0.57
					c0.21-0.09,0.42-0.18,0.62-0.28c0.45-0.2,0.89-0.41,1.32-0.63c0.39-0.19,0.78-0.39,1.16-0.6c0.19-0.1,0.38-0.2,0.56-0.31
					c0.31-0.17,0.61-0.34,0.91-0.52c0.23-0.14,0.46-0.27,0.68-0.42c0.37-0.22,0.72-0.45,1.08-0.68c0.06-0.04,0.12-0.08,0.18-0.12
					c0.41-0.28,0.82-0.57,1.22-0.86c0.04-0.03,0.08-0.06,0.12-0.09c0.45-0.32,0.89-0.66,1.33-1c0.02-0.02,0.04-0.04,0.06-0.05
					c0.45-0.36,0.89-0.73,1.33-1.11c0,0,0.01,0,0.01-0.01c0.43-0.37,0.86-0.76,1.28-1.16c0.01-0.01,0.03-0.02,0.05-0.04
					c0.41-0.39,0.8-0.78,1.19-1.18c0.03-0.03,0.06-0.06,0.09-0.09c0.34-0.35,0.67-0.7,0.99-1.06c0.06-0.07,0.13-0.14,0.18-0.21
					c0.32-0.35,0.62-0.7,0.92-1.06c0.1-0.12,0.2-0.24,0.3-0.36c0.29-0.36,0.57-0.72,0.85-1.08c0.08-0.11,0.16-0.22,0.25-0.34
					c0.28-0.37,0.55-0.75,0.81-1.13c0.33-0.48,0.65-0.96,0.96-1.45c0.57-0.89,1.1-1.81,1.59-2.75c0.07-0.12,0.13-0.24,0.19-0.37
					c0.03-0.06,0.07-0.13,0.1-0.19c0.18-0.34,0.35-0.69,0.52-1.05c0.06-0.12,0.12-0.25,0.17-0.37c0.2-0.42,0.39-0.85,0.58-1.28
					c0.02-0.05,0.04-0.1,0.06-0.15c0.42-0.99,0.79-2.02,1.13-3.05c0.06-0.17,0.12-0.35,0.17-0.53c0.15-0.46,0.28-0.92,0.41-1.38
					c0.16-0.57,0.3-1.14,0.43-1.71c0.14-0.58,0.26-1.15,0.36-1.73c0.11-0.59,0.21-1.17,0.29-1.76c0.17-1.18,0.29-2.38,0.35-3.58
					c0.13-2.37,0.06-4.77-0.22-7.21l-0.05-0.45l-0.54-4.62l-3.08-26.39l-0.32-2.72l-0.01-0.13c-0.01-0.12-0.03-0.24-0.06-0.36
					c-0.03-0.16-0.06-0.32-0.1-0.48c-0.17-0.63-0.44-1.23-0.81-1.78c-0.09-0.15-0.2-0.29-0.31-0.43c-0.13-0.16-0.26-0.31-0.41-0.46
					c-0.01-0.01-0.03-0.03-0.04-0.04c-0.13-0.13-0.27-0.26-0.42-0.38c-0.18-0.15-0.37-0.29-0.56-0.41
					c-0.13-0.08-0.26-0.16-0.39-0.23c-0.32-0.18-0.66-0.32-1-0.43c-0.09-0.03-0.18-0.06-0.27-0.08c-0.16-0.05-0.33-0.09-0.49-0.12
					c-0.17-0.03-0.35-0.06-0.52-0.07c-0.19-0.02-0.39-0.03-0.58-0.03c-1.52,0-3.05,0.57-4.22,1.72h-0.01
					c-1.41,1.39-2.84,2.7-4.29,3.94c-0.04,0.04-0.08,0.07-0.12,0.11h-0.01c-0.29,0.25-0.59,0.5-0.88,0.75c0,0,0,0-0.01,0
					c-0.3,0.25-0.59,0.49-0.89,0.73h-0.01c-0.3,0.24-0.6,0.47-0.89,0.71c0,0,0,0-0.01,0c-0.17,0.13-0.33,0.26-0.5,0.39
					c-1.04,0.79-2.09,1.55-3.15,2.28c-0.3,0.21-0.6,0.41-0.91,0.62c0,0,0,0-0.01,0c-0.3,0.2-0.6,0.4-0.91,0.6c0,0,0,0-0.01,0
					c-0.3,0.2-0.6,0.39-0.91,0.59c-0.31,0.19-0.61,0.38-0.92,0.57h-0.01c-0.31,0.18-0.61,0.37-0.92,0.55c0,0,0,0-0.01,0
					c-0.3,0.18-0.6,0.35-0.91,0.53c-0.45,0.25-0.91,0.51-1.36,0.76c-0.17,0.08-0.34,0.17-0.51,0.27c-0.16,0.09-0.32,0.17-0.48,0.25
					c-0.25,0.13-0.5,0.26-0.75,0.39c-0.52,0.26-1.04,0.52-1.56,0.77c-0.01,0-0.01,0-0.01,0c-0.39,0.19-0.78,0.37-1.17,0.55
					c-0.78,0.36-1.55,0.7-2.33,1.03c-0.39,0.16-0.79,0.32-1.18,0.48c-0.77,0.31-1.55,0.6-2.33,0.89c0,0,0,0-0.01,0
					c-0.77,0.28-1.55,0.55-2.33,0.81c-0.32,0.1-0.64,0.2-0.95,0.3c-0.92,0.29-1.84,0.56-2.77,0.82c-0.01-0.01-0.02,0-0.02,0
					c-0.31,0.09-0.61,0.17-0.92,0.25c-0.61,0.16-1.22,0.31-1.82,0.46c-0.01,0-0.02,0-0.02,0c-2.14,0.51-4.25,0.92-6.34,1.26
					c-0.01-0.01-0.02,0-0.03,0c-1.48,0.23-2.95,0.43-4.39,0.59c-0.3,0.03-0.6,0.06-0.9,0.09c-1.58,0.15-3.15,0.26-4.67,0.34h-0.04
					c-0.93,0.04-1.84,0.07-2.74,0.08c-1.18,0.02-2.34,0.03-3.47,0.01h-0.12c-1.1-0.03-2.19-0.06-3.25-0.12
					c-0.58-0.03-1.15-0.06-1.71-0.1c-0.53-0.03-1.05,0-1.54,0.1c-0.15,0.03-0.3,0.06-0.44,0.1c-0.05,0.01-0.09,0.02-0.13,0.04
					c-0.18,0.05-0.35,0.11-0.51,0.18c-0.18,0.07-0.35,0.14-0.51,0.23c-0.17,0.08-0.33,0.17-0.48,0.27c-0.15,0.09-0.3,0.2-0.44,0.3
					c-0.12,0.09-0.23,0.19-0.34,0.29c-0.1,0.08-0.19,0.17-0.28,0.26c-0.88,0.88-1.49,2.04-1.67,3.35c-0.03,0.15-0.05,0.29-0.06,0.44
					v0.1C2675.78,1117.1,2675.78,1117.23,2675.78,1117.35z M2690.06,1135.02l-1.43-11.43h0.41c0.61,0,1.22-0.01,1.84-0.02
					c0.66-0.01,1.33-0.03,2-0.06c0.67-0.02,1.35-0.05,2.04-0.09c4.78-0.27,9.82-0.87,15.01-1.93c0.29-0.06,0.58-0.12,0.87-0.19
					c0.47-0.1,0.93-0.2,1.4-0.31c1.5-0.35,3.01-0.74,4.52-1.17c3.03-0.86,6.08-1.9,9.14-3.15c1.24-0.51,2.49-1.04,3.73-1.61
					c0.11-0.04,0.22-0.09,0.33-0.15c0.52-0.24,1.03-0.49,1.54-0.74c1.86-0.91,3.73-1.9,5.58-2.99c0.48-0.27,0.95-0.56,1.43-0.85
					c0.21-0.12,0.41-0.24,0.6-0.37c0.51-0.31,1.02-0.63,1.53-0.96c0.04-0.03,0.08-0.05,0.13-0.09c0.52-0.33,1.03-0.67,1.54-1.02
					c0.17-0.11,0.33-0.23,0.5-0.34c0.53-0.37,1.07-0.75,1.6-1.14c0.62-0.44,1.23-0.9,1.84-1.36l2.6,22.16l0.09,0.81
					c1.84,15.87-9.05,30.24-24.81,32.75c-1.56,0.25-3.15,0.37-4.68,0.37C2704.49,1161.12,2691.85,1149.9,2690.06,1135.02z" style="fill:#2e2d33"></path>
          <path d="M2688.63,1123.59l1.43,11.43c1.78,14.89,14.42,26.1,29.39,26.1c1.53,0,3.12-0.12,4.68-0.37
					c15.76-2.51,26.65-16.88,24.81-32.75l-0.09-0.81l-2.6-22.16c-0.61,0.46-1.22,0.92-1.84,1.36c-0.53,0.39-1.07,0.77-1.6,1.14
					c-0.17,0.11-0.33,0.23-0.5,0.34c-0.51,0.35-1.03,0.69-1.54,1.02c-0.05,0.04-0.09,0.06-0.13,0.09c-0.51,0.33-1.02,0.65-1.53,0.96
					c-0.19,0.13-0.39,0.25-0.6,0.37c-0.47,0.29-0.95,0.58-1.43,0.85c-1.85,1.09-3.72,2.08-5.58,2.99c-0.51,0.26-1.02,0.5-1.54,0.74
					c-0.11,0.06-0.22,0.11-0.33,0.15c-1.24,0.58-2.49,1.12-3.73,1.61c-12.25,4.98-24.39,6.74-34.99,6.91
					c-0.62,0.01-1.23,0.02-1.84,0.02h-0.44V1123.59z" style="fill:#fff"></path>
        </g>
        <g>
          <path d="M2675.78,1117.35c0,0.19,0.01,0.38,0.03,0.56c0.27,2.88,2.59,5.21,5.57,5.41c2.3,0.16,4.73,0.26,7.25,0.27
					h0.41c0.61,0,1.22-0.01,1.84-0.02c0.78-0.01,1.57-0.04,2.38-0.07c0.15,0,0.3-0.01,0.44-0.02c0.56-0.02,1.13-0.05,1.71-0.08
					c0.52-0.03,1.05-0.07,1.58-0.11c0.63-0.04,1.27-0.1,1.91-0.15c0.27-0.03,0.53-0.05,0.8-0.09c1.21-0.11,2.44-0.26,3.67-0.43
					c0.59-0.08,1.17-0.17,1.76-0.26c0.05,0,0.09-0.01,0.14-0.02c0.45-0.07,0.91-0.15,1.37-0.23c0.93-0.15,1.86-0.33,2.81-0.52
					c0.16-0.04,0.32-0.07,0.47-0.1c0.29-0.06,0.58-0.12,0.87-0.19c0.47-0.1,0.93-0.2,1.4-0.31c1.5-0.34,3.01-0.73,4.52-1.17
					c3.03-0.86,6.08-1.9,9.14-3.15c1.24-0.49,2.49-1.03,3.73-1.61c0.11-0.04,0.22-0.09,0.33-0.15c0.52-0.24,1.03-0.49,1.54-0.74
					c1.86-0.9,3.73-1.89,5.58-2.99c0.48-0.27,0.95-0.56,1.43-0.85c0.21-0.12,0.41-0.24,0.6-0.37c0.51-0.31,1.02-0.63,1.53-0.96
					c0.04-0.03,0.08-0.05,0.13-0.09c0.52-0.33,1.03-0.67,1.54-1.02c0.17-0.11,0.33-0.23,0.5-0.34c0.53-0.37,1.07-0.75,1.6-1.14
					c0.62-0.44,1.23-0.9,1.84-1.36c3.02-2.31,5.98-4.86,8.88-7.72c1.34-1.31,1.93-3.11,1.76-4.85c-0.02-0.17-0.04-0.33-0.07-0.49
					s-0.06-0.32-0.1-0.48c-0.17-0.63-0.44-1.23-0.81-1.78c-0.09-0.15-0.2-0.29-0.31-0.43c-0.13-0.16-0.26-0.31-0.41-0.46
					c-0.01-0.01-0.03-0.03-0.04-0.04c-0.13-0.13-0.27-0.26-0.42-0.38c-0.18-0.15-0.37-0.29-0.56-0.41
					c-0.13-0.08-0.26-0.16-0.39-0.23c-0.32-0.18-0.66-0.32-1-0.43c-0.09-0.03-0.18-0.06-0.27-0.08c-0.16-0.05-0.33-0.09-0.49-0.12
					c-0.17-0.03-0.35-0.06-0.52-0.07c-0.19-0.02-0.39-0.03-0.58-0.03c-1.52,0-3.05,0.57-4.22,1.72h-0.01
					c-1.41,1.39-2.84,2.7-4.29,3.94c-0.04,0.03-0.08,0.06-0.12,0.1v0.01h-0.01c-0.29,0.25-0.58,0.49-0.88,0.74v0.01c0,0,0,0-0.01,0
					c-0.3,0.24-0.59,0.48-0.89,0.72v0.01h-0.01c-0.29,0.23-0.59,0.47-0.89,0.7v0.01c0,0,0,0-0.01,0c-0.17,0.13-0.33,0.26-0.5,0.39
					c-1.04,0.79-2.09,1.55-3.15,2.28c-0.3,0.21-0.6,0.41-0.91,0.62c0,0,0,0-0.01,0c-0.3,0.2-0.6,0.4-0.91,0.6c0,0,0,0-0.01,0
					c-0.3,0.2-0.6,0.39-0.91,0.59c-0.31,0.19-0.61,0.38-0.92,0.57h-0.01c-0.31,0.18-0.61,0.37-0.92,0.55c0,0,0,0-0.01,0
					c-0.3,0.18-0.6,0.35-0.91,0.53c-0.45,0.25-0.91,0.51-1.36,0.76c-0.17,0.08-0.34,0.17-0.51,0.27c-0.16,0.09-0.32,0.17-0.48,0.25
					c-0.25,0.13-0.5,0.26-0.75,0.39c-0.52,0.26-1.04,0.52-1.56,0.77c-0.01,0-0.01,0-0.01,0c-0.39,0.19-0.78,0.37-1.17,0.55
					c-0.78,0.36-1.55,0.7-2.33,1.03c-0.39,0.16-0.79,0.32-1.18,0.48c-0.77,0.32-1.55,0.61-2.33,0.89c0,0,0,0-0.01,0
					c-0.78,0.29-1.55,0.56-2.33,0.81c-0.32,0.1-0.64,0.2-0.95,0.3c-0.92,0.3-1.84,0.57-2.77,0.82c-0.01-0.01-0.02,0-0.02,0
					c-0.31,0.09-0.61,0.17-0.92,0.25c-0.61,0.17-1.21,0.32-1.82,0.46c-0.01,0-0.02,0-0.02,0c-2.14,0.52-4.25,0.93-6.34,1.26
					c-0.01-0.01-0.02,0-0.03,0c-1.47,0.24-2.95,0.44-4.39,0.59c-0.3,0.03-0.6,0.06-0.9,0.09c-1.58,0.16-3.15,0.27-4.67,0.34h-0.04
					c-0.77,0.04-1.53,0.06-2.3,0.08c-1.33,0.03-2.64,0.03-3.91,0.01h-0.12c-1.1-0.03-2.19-0.06-3.25-0.12
					c-0.58-0.03-1.15-0.06-1.71-0.1c-0.53-0.03-1.05,0-1.54,0.1c-0.15,0.03-0.3,0.06-0.44,0.1c-0.05,0.01-0.09,0.02-0.13,0.04
					c-0.18,0.05-0.35,0.11-0.51,0.18c-0.18,0.07-0.35,0.14-0.51,0.23c-0.17,0.08-0.33,0.17-0.48,0.27c-0.15,0.09-0.3,0.2-0.44,0.3
					c-0.12,0.09-0.23,0.19-0.34,0.29c-0.1,0.08-0.19,0.17-0.28,0.26c-0.88,0.88-1.49,2.04-1.67,3.35c-0.03,0.15-0.05,0.29-0.06,0.44
					v0.1C2675.78,1117.1,2675.78,1117.23,2675.78,1117.35z" style="fill:#2e2d33"></path>
        </g>
        <g>
          <path d="M2627.39,980.14c-1.15,9.2-0.27,18.13,2.62,26.58c0.18,0.53,0.36,1.06,0.56,1.59
					c0.95,2.53,3.47,4.11,6.17,3.88c2.7-0.24,4.9-2.25,5.38-4.9c0.05-0.28,0.1-0.56,0.16-0.84c0.02-0.1,0.03-0.19,0.05-0.29
					c0.04-0.17,0.07-0.34,0.1-0.51c0.13-0.74,0.27-1.47,0.42-2.2c0.03-0.17,0.07-0.33,0.09-0.49c0.16-0.82,0.32-1.63,0.49-2.44
					c0.36-1.75,0.72-3.47,1.08-5.12c0.12-0.57,0.25-1.14,0.38-1.7c0.12-0.56,0.25-1.11,0.38-1.66c0.23-1,0.45-1.98,0.68-2.94
					c0.15-0.64,0.3-1.28,0.45-1.9c0.45-1.82,0.88-3.56,1.3-5.17c0.16-0.65,0.32-1.28,0.49-1.89c0.01-0.05,0.02-0.09,0.03-0.13
					c0.14-0.54,0.28-1.05,0.41-1.55c0.56-2.05,1.06-3.86,1.5-5.38c12.31,3.12,23.88,2.25,34.51-2.62
					c13.72,16.22,42.59,22.65,55.75,24.81c-3.97,26.43,13.97,60.21,14.81,61.77c0.95,1.77,2.73,2.95,4.74,3.14
					c2,0.19,3.97-0.64,5.23-2.21c8.25-10.21,12.9-11.39,14.51-11.42c0.76-0.03,1.81,0.17,3.17,1.71l0.09,0.12
					c1.32,1.61,3.41,2.46,5.47,2.18c2.07-0.27,3.87-1.56,4.72-3.47c0.48-1.06,0.92-2.07,1.34-3.05v-0.01
					c4.12-9.49,5.54-14.53,5.88-15.91c13.96-41.33,13.32-73.95-1.9-96.96c-15.51-23.46-41.15-29.1-49.66-30.36
					c-23.27-28.53-72.22-7.66-92.54,2.87c-8.99,4.64-16.56,11.11-21.89,18.67C2617.36,946.52,2625,973.29,2627.39,980.14z
					 M2637.73,972.73c-2.2-8.34-5.11-26.99,6.5-43.46c4.22-5.99,10.3-11.16,17.58-14.92c14.07-7.29,61.34-29.13,78.88-4.41
					c1.03,1.46,2.67,2.39,4.45,2.52c0.26,0.03,28.32,2.54,43.39,25.46c13.02,19.79,13.15,48.93,0.38,86.59
					c-0.06,0.19-0.12,0.39-0.16,0.59c-0.01,0.02-0.82,3.33-3.68,10.35c-0.42-0.15-0.84-0.29-1.27-0.41
					c-0.22-0.06-0.45-0.11-0.68-0.16c-0.27-0.06-0.55-0.12-0.83-0.16c-0.26-0.05-0.53-0.09-0.8-0.12h-0.03c-0.01,0-0.01,0-0.02,0
					c-0.28-0.03-0.56-0.05-0.84-0.07c-0.27-0.01-0.53-0.02-0.8-0.02h-0.31c-5.54,0.11-11.28,3.06-17.39,8.98
					c-5.32-12.09-13.89-35.52-8.62-51.38c0.57-1.73,0.33-3.63-0.66-5.16c-0.99-1.53-2.63-2.54-4.44-2.72
					c-12.47-1.29-46.98-8.24-56.71-24.59c-1.69-2.85-5.36-3.79-8.22-2.1c-10.57,6.22-22.11,7-35.32,2.35
					c-1.53-0.53-3.21-0.43-4.66,0.29c-1.45,0.71-2.56,1.99-3.06,3.53c-0.03,0.09-0.14,0.44-0.32,1.03
					c-0.01,0.04-0.02,0.07-0.04,0.11c-0.04,0.13-0.08,0.27-0.13,0.42c-0.02,0.08-0.04,0.16-0.07,0.24c-0.06,0.19-0.12,0.4-0.19,0.62
					c-0.02,0.06-0.03,0.11-0.05,0.17c-0.12,0.38-0.25,0.81-0.38,1.27c-0.09,0.29-0.18,0.59-0.27,0.91
					c-0.13,0.45-0.27,0.93-0.42,1.43C2638.28,970.77,2638.01,971.72,2637.73,972.73z" style="fill:#2e2d33"></path>
          <path d="M2637.73,972.73c0.28-1.01,0.55-1.95,0.79-2.82c0.15-0.51,0.29-0.98,0.42-1.43
					c0.09-0.32,0.18-0.62,0.27-0.91c0.13-0.46,0.26-0.89,0.38-1.27c0.02-0.06,0.03-0.11,0.05-0.17c0.07-0.22,0.13-0.43,0.19-0.62
					c0.03-0.08,0.05-0.16,0.07-0.24c0.05-0.15,0.09-0.29,0.13-0.42c0.02-0.04,0.03-0.07,0.04-0.11c0.18-0.59,0.29-0.94,0.32-1.03
					c0.5-1.53,1.6-2.82,3.06-3.53c1.45-0.72,3.13-0.82,4.66-0.29c13.21,4.65,24.76,3.88,35.32-2.35c2.86-1.68,6.53-0.74,8.22,2.1
					c9.72,16.35,44.24,23.3,56.71,24.59c1.81,0.18,3.45,1.18,4.44,2.72c0.99,1.53,1.23,3.43,0.66,5.16
					c-5.27,15.86,3.3,39.29,8.62,51.38c6.11-5.92,11.85-8.87,17.39-8.98h0.31c0.27,0,0.54,0.01,0.8,0.02
					c0.28,0.02,0.56,0.04,0.84,0.07c0.01,0,0.01,0,0.02,0h0.03c0.27,0.03,0.54,0.07,0.8,0.12c0.28,0.04,0.56,0.1,0.83,0.16
					c0.23,0.04,0.45,0.1,0.68,0.16c0.43,0.12,0.85,0.26,1.27,0.41c2.86-7.03,3.67-10.33,3.68-10.35c0.04-0.2,0.1-0.4,0.16-0.59
					c12.77-37.66,12.64-66.8-0.38-86.59c-15.08-22.92-43.13-25.43-43.39-25.46c-1.78-0.13-3.42-1.05-4.45-2.52
					c-17.54-24.72-64.81-2.88-78.88,4.41c-7.28,3.76-13.36,8.92-17.58,14.92C2632.62,945.73,2635.53,964.39,2637.73,972.73z" style="fill:#2e2d33"></path>
        </g>
        <g>
          <path d="M2662.94,1120.35c0.52,0.15,5.59,1.61,13.48,2.52c1.55,0.18,3.21,0.33,4.96,0.45
					c2.3,0.16,4.73,0.26,7.25,0.27h0.41c0.61,0,1.22-0.01,1.84-0.02c0.66-0.01,1.33-0.03,2-0.06c0.12,0.01,0.25,0,0.37-0.01
					c0.15,0,0.3-0.01,0.44-0.02c0.41-0.01,0.82-0.03,1.23-0.06c0.16,0,0.32-0.01,0.48-0.02c0.52-0.03,1.05-0.07,1.58-0.11
					c0.63-0.04,1.27-0.1,1.91-0.15c0.27-0.03,0.53-0.05,0.8-0.09c1.21-0.11,2.44-0.26,3.67-0.43c0.59-0.08,1.17-0.17,1.76-0.26
					c0.05,0,0.09-0.01,0.14-0.02c0.45-0.07,0.91-0.15,1.37-0.23c0.93-0.15,1.86-0.33,2.81-0.52c0.16-0.04,0.32-0.07,0.47-0.1
					c0.29-0.06,0.58-0.12,0.87-0.19c0.47-0.1,0.93-0.2,1.4-0.31c1.5-0.34,3.01-0.73,4.52-1.17c3.03-0.86,6.08-1.9,9.14-3.15
					c1.24-0.49,2.49-1.03,3.73-1.61c0.11-0.04,0.22-0.09,0.33-0.15c0.52-0.24,1.03-0.49,1.54-0.74c1.86-0.9,3.73-1.89,5.58-2.99
					c0.48-0.27,0.95-0.56,1.43-0.85c0.21-0.12,0.41-0.24,0.6-0.37c0.51-0.31,1.02-0.63,1.53-0.96c0.04-0.03,0.08-0.05,0.13-0.09
					c0.52-0.33,1.03-0.67,1.54-1.02c0.17-0.11,0.33-0.23,0.5-0.34c0.53-0.37,1.07-0.75,1.6-1.14c0.62-0.44,1.23-0.9,1.84-1.36
					c3.02-2.31,5.98-4.86,8.88-7.72c0.7-0.69,1.4-1.4,2.08-2.14c3.02-3.15,5.87-6.57,8.54-10.21c3.58,0.54,8.73,0.56,14.13-1.95
					c7.3-3.39,12.69-10.26,16.04-20.43c2.13-6.42,1.56-13.09-1.43-18.54v-0.01c-0.62-1.13-1.34-2.21-2.18-3.22
					c-0.19-0.23-0.32-0.39-0.47-0.55c-1.96-2.26-4.26-3.88-6.79-4.81c-0.42-0.15-0.84-0.29-1.27-0.41
					c-0.22-0.06-0.45-0.11-0.68-0.16c-0.27-0.06-0.55-0.12-0.83-0.16c-0.26-0.05-0.53-0.09-0.8-0.12h-0.03c-0.01,0-0.01,0-0.02,0
					c-0.28-0.03-0.56-0.05-0.84-0.07c-0.27-0.01-0.53-0.02-0.8-0.02h-0.31c-5.54,0.11-11.28,3.06-17.39,8.98
					c-5.32-12.09-13.89-35.52-8.62-51.38c0.57-1.73,0.33-3.63-0.66-5.16c-0.99-1.53-2.63-2.54-4.44-2.72
					c-12.47-1.29-46.98-8.24-56.71-24.59c-1.69-2.85-5.36-3.79-8.22-2.1c-10.57,6.22-22.11,7-35.32,2.35
					c-1.53-0.53-3.21-0.43-4.66,0.29c-1.45,0.71-2.56,1.99-3.06,3.53c-0.03,0.09-0.14,0.44-0.32,1.03
					c-0.01,0.04-0.02,0.07-0.04,0.11c-0.04,0.13-0.08,0.27-0.13,0.42c-0.02,0.08-0.04,0.16-0.07,0.24c-0.06,0.19-0.12,0.4-0.19,0.62
					c-0.02,0.06-0.03,0.11-0.05,0.17c-0.12,0.38-0.25,0.81-0.38,1.27c-0.09,0.29-0.18,0.59-0.27,0.91
					c-0.13,0.45-0.27,0.93-0.42,1.43c-0.24,0.86-0.51,1.8-0.79,2.82c-2.06,7.46-4.98,18.96-7.44,32.4c-0.1,0.53-0.19,1.06-0.28,1.59
					C2618.47,1071.43,2629.85,1110.71,2662.94,1120.35z M2642.13,1007.28c0.05-0.27,0.1-0.55,0.15-0.83
					c0.02-0.1,0.03-0.19,0.05-0.29c0.04-0.17,0.07-0.34,0.1-0.51c0.13-0.74,0.27-1.47,0.42-2.2c0.03-0.17,0.07-0.33,0.09-0.49
					c0.16-0.82,0.32-1.63,0.49-2.44c0.36-1.75,0.72-3.47,1.08-5.12c0.12-0.57,0.25-1.14,0.38-1.7c0.12-0.56,0.25-1.11,0.38-1.66
					c0.23-1,0.45-1.98,0.68-2.94c0.15-0.64,0.3-1.28,0.45-1.9c0.45-1.82,0.88-3.56,1.3-5.17c0.16-0.65,0.32-1.28,0.49-1.89
					c0.01-0.05,0.02-0.09,0.03-0.13c0.14-0.54,0.28-1.05,0.41-1.55c0.56-2.05,1.06-3.86,1.5-5.38c12.31,3.12,23.88,2.25,34.51-2.62
					c13.72,16.22,42.59,22.65,55.75,24.81c-3.97,26.43,13.97,60.21,14.81,61.77c0.95,1.77,2.73,2.95,4.74,3.14
					c2,0.19,3.97-0.64,5.23-2.21c8.25-10.21,12.9-11.39,14.51-11.42c0.76-0.03,1.81,0.17,3.17,1.71l0.09,0.12
					c2.23,2.71,2.8,6.69,1.55,10.43c-2.25,6.83-5.46,11.27-9.56,13.23c-4.73,2.28-9.51,0.52-9.56,0.51
					c-0.72-0.29-1.47-0.43-2.22-0.43c-1.93,0-3.81,0.96-4.95,2.67c-3.49,5.15-7.37,9.85-11.54,13.95c-1.41,1.39-2.84,2.7-4.29,3.94
					c-0.04,0.03-0.08,0.06-0.12,0.1v0.01h-0.01c-0.29,0.25-0.58,0.49-0.88,0.74v0.01c0,0,0,0-0.01,0c-0.3,0.24-0.59,0.48-0.89,0.72
					v0.01h-0.01c-0.29,0.23-0.59,0.47-0.89,0.7v0.01c0,0,0,0-0.01,0c-0.17,0.13-0.33,0.26-0.5,0.39c-1.04,0.79-2.09,1.55-3.15,2.28
					c-0.3,0.21-0.6,0.41-0.91,0.62c0,0,0,0-0.01,0c-0.3,0.2-0.6,0.4-0.91,0.6c0,0,0,0-0.01,0c-0.3,0.2-0.6,0.39-0.91,0.59
					c-0.31,0.19-0.61,0.38-0.92,0.57h-0.01c-0.31,0.18-0.61,0.37-0.92,0.55c0,0,0,0-0.01,0c-0.3,0.18-0.6,0.35-0.91,0.53
					c-0.45,0.25-0.91,0.51-1.36,0.76c-0.17,0.08-0.34,0.17-0.51,0.27c-0.16,0.09-0.32,0.17-0.48,0.25c-0.25,0.13-0.5,0.26-0.75,0.39
					c-0.52,0.26-1.04,0.52-1.56,0.77c-0.01,0-0.01,0-0.01,0c-0.39,0.19-0.78,0.37-1.17,0.55c-0.77,0.36-1.55,0.7-2.33,1.03
					c-0.39,0.16-0.79,0.32-1.18,0.48c-0.77,0.31-1.55,0.6-2.33,0.89c0,0,0,0-0.01,0c-0.77,0.28-1.55,0.55-2.33,0.81
					c-0.32,0.1-0.64,0.2-0.95,0.3c-0.92,0.29-1.84,0.56-2.77,0.82c-0.01-0.01-0.02,0-0.02,0c-0.31,0.09-0.61,0.17-0.92,0.25
					c-0.61,0.16-1.22,0.31-1.82,0.46c-0.01,0-0.02,0-0.02,0c-2.14,0.51-4.25,0.92-6.34,1.26c-0.01-0.01-0.02,0-0.03,0
					c-1.48,0.23-2.95,0.43-4.39,0.59c-0.3,0.03-0.6,0.06-0.9,0.09c-1.58,0.15-3.15,0.26-4.67,0.34h-0.04
					c-0.77,0.04-1.53,0.06-2.3,0.08c-1.33,0.03-2.64,0.03-3.91,0.01h-0.12c-1.1-0.03-2.19-0.06-3.25-0.12
					c-0.58-0.03-1.15-0.06-1.71-0.1c-9.49-0.65-15.79-2.49-15.85-2.51c-0.01,0-0.03-0.01-0.04-0.01
					C2631,1098.53,2636,1040.79,2642.13,1007.28z" style="fill:#2e2d33"></path>
          <path d="M2666.32,1108.8c0.01,0,0.03,0.01,0.04,0.01c0.06,0.02,6.35,1.85,15.85,2.51c0.56,0.04,1.13,0.07,1.71,0.1
					c1.06,0.06,2.15,0.09,3.25,0.12h0.12c0.56,0.01,1.13,0.01,1.7,0.01c1.46,0,2.97-0.03,4.5-0.1h0.04
					c1.52-0.08,3.09-0.19,4.67-0.34c0.3-0.03,0.6-0.06,0.9-0.09c1.44-0.16,2.91-0.36,4.39-0.59c0.01,0,0.02-0.01,0.03,0
					c2.09-0.34,4.2-0.75,6.34-1.26c0,0,0.01,0,0.02,0c0.6-0.15,1.21-0.3,1.82-0.46c0.31-0.08,0.61-0.16,0.92-0.25
					c0,0,0.01-0.01,0.02,0c0.92-0.26,1.84-0.53,2.77-0.82c0.31-0.1,0.63-0.2,0.95-0.3c0.77-0.26,1.55-0.53,2.33-0.81
					c0.01,0,0.01,0,0.01,0c0.77-0.29,1.55-0.58,2.33-0.89c0.39-0.16,0.79-0.32,1.18-0.48c0.77-0.33,1.55-0.67,2.33-1.03
					c0.39-0.18,0.78-0.36,1.17-0.55c0,0,0,0,0.01,0c0.52-0.25,1.04-0.51,1.56-0.77c0.25-0.13,0.5-0.26,0.75-0.39
					c0.16-0.08,0.32-0.16,0.48-0.25c0.17-0.1,0.34-0.19,0.51-0.27c0.45-0.25,0.91-0.51,1.36-0.76c0.31-0.18,0.61-0.35,0.91-0.53
					c0.01,0,0.01,0,0.01,0c0.31-0.18,0.61-0.37,0.92-0.55h0.01c0.31-0.19,0.61-0.38,0.92-0.57c0.31-0.2,0.61-0.39,0.91-0.59
					c0.01,0,0.01,0,0.01,0c0.31-0.2,0.61-0.4,0.91-0.6c0.01,0,0.01,0,0.01,0c0.31-0.21,0.61-0.41,0.91-0.62
					c1.05-0.72,2.11-1.48,3.15-2.28c0.17-0.13,0.33-0.26,0.5-0.39c0.01,0,0.01,0,0.01,0V1095c0.3-0.23,0.6-0.47,0.89-0.7h0.01v-0.01
					c0.3-0.24,0.59-0.48,0.89-0.72c0.01,0,0.01,0,0.01,0v-0.01c0.3-0.25,0.59-0.49,0.88-0.74h0.01v-0.01
					c0.04-0.04,0.08-0.07,0.12-0.1c1.45-1.24,2.88-2.55,4.29-3.94c4.17-4.1,8.05-8.8,11.54-13.95c1.14-1.7,3.02-2.67,4.95-2.67
					c0.74,0,1.49,0.14,2.22,0.43c0.05,0.01,4.83,1.76,9.56-0.51c4.1-1.96,7.32-6.41,9.56-13.23c1.24-3.75,0.67-7.73-1.55-10.43
					l-0.09-0.12c-1.35-1.54-2.41-1.74-3.17-1.71c-1.61,0.03-6.27,1.2-14.51,11.42c-1.26,1.56-3.23,2.4-5.23,2.21
					c-2.01-0.19-3.79-1.36-4.74-3.14c-0.83-1.55-18.78-35.33-14.81-61.77c-13.16-2.16-42.03-8.59-55.75-24.81
					c-10.64,4.86-22.2,5.73-34.51,2.62c-0.44,1.52-0.94,3.33-1.5,5.38c-0.13,0.5-0.27,1.01-0.41,1.55
					c-0.01,0.04-0.02,0.08-0.03,0.13c-0.17,0.61-0.33,1.24-0.49,1.89c-0.42,1.61-0.85,3.35-1.3,5.17c-0.15,0.62-0.3,1.26-0.45,1.9
					c-0.23,0.95-0.45,1.93-0.68,2.94c-0.13,0.55-0.26,1.1-0.38,1.66c-0.13,0.56-0.26,1.13-0.38,1.7c-0.36,1.65-0.72,3.37-1.08,5.12
					c-0.17,0.8-0.33,1.61-0.49,2.44c-0.02,0.16-0.06,0.32-0.09,0.49c-0.15,0.72-0.29,1.45-0.42,2.2c-0.03,0.17-0.06,0.34-0.1,0.51
					c-0.02,0.1-0.03,0.19-0.05,0.29c-0.05,0.28-0.1,0.56-0.15,0.83C2636,1040.79,2631,1098.53,2666.32,1108.8z" style="fill:#fff"></path>
        </g>
      </g>
      <g>
        <g>
          <path d="M2405.23,1318.75l15.08,168.82c0,0.05,0.01,0.09,0.01,0.14c0.31,2.7,1.63,5.1,3.76,6.79
					c1.8,1.43,4,2.21,6.29,2.21c0.3,0,0.6-0.02,0.9-0.04l88.55-3.69c0.14-0.01,0.29-0.02,0.43-0.04c2.69-0.3,5.1-1.63,6.79-3.76
					c1.66-2.1,2.42-4.7,2.14-7.36l-1.93-21.65l-1.16-13.03l-6.38-71.54l-1.54-17.38l-4.04-45.24c-0.01-0.04-0.01-0.09-0.02-0.14
					c-0.3-2.69-1.64-5.09-3.76-6.78c-2.04-1.63-4.59-2.41-7.19-2.17l-88.56,3.69c-0.15,0-0.3,0.01-0.46,0.03
					C2408.6,1308.27,2404.64,1313.25,2405.23,1318.75z M2417.37,1319.5l84.91-3.54l12.6,141.08l0.03,0.3l2.12,23.71l-84.91,3.54
					L2417.37,1319.5z" style="fill:#2e2d33"></path>
          <polygon points="2417.37 1319.5 2432.12 1484.59 2517.03 1481.05 2514.91 1457.34 2514.88 1457.04 2502.28 1315.96" style="fill:#fff"></polygon>
          <path d="M2519.69,1375.59l6.38,71.54c15.32-8.66,39.58-26.4,67.17-61.58c-0.01-1.83-0.02-3.66-0.04-5.46
					c0,0-0.01,0-0.01-0.01c-0.03-5.15-0.13-10.62-0.29-16.7c-0.29-11.31-0.72-22.05-1.32-32.74c-7.76-2.5-24.92-8.74-41.6-19.79
					C2544.75,1332.67,2535.55,1358.72,2519.69,1375.59z" style="fill:#fff"></path>
        </g>
        <g>
          <g>
            <path d="M2481.77,1328.36c0.15,1.37,0.57,2.69,1.22,3.86s1.53,2.22,2.62,3.08c1.85,1.47,4.1,2.26,6.44,2.26
						c0.39,0,0.79-0.02,1.19-0.07c2.75-0.31,5.21-1.67,6.94-3.84c1.72-2.18,2.5-4.88,2.19-7.63c-0.65-5.67-5.8-9.77-11.47-9.12
						c-2.76,0.31-5.22,1.68-6.94,3.85C2482.24,1322.91,2481.45,1325.61,2481.77,1328.36z M2490.77,1326.16
						c0.27-0.34,0.68-0.57,1.11-0.62c0.44-0.05,0.88,0.08,1.22,0.35s0.57,0.68,0.62,1.11c0.05,0.44-0.08,0.88-0.35,1.22
						c-0.27,0.35-0.68,0.57-1.11,0.62c-0.92,0.12-1.74-0.55-1.84-1.46C2490.37,1326.95,2490.5,1326.5,2490.77,1326.16z" style="fill:#2e2d33"></path>
            <path d="M2490.42,1327.38c0.1,0.91,0.92,1.58,1.84,1.46c0.43-0.05,0.84-0.27,1.11-0.62
						c0.27-0.34,0.4-0.78,0.35-1.22c-0.05-0.43-0.28-0.84-0.62-1.11s-0.78-0.4-1.22-0.35c-0.43,0.05-0.84,0.28-1.11,0.62
						S2490.37,1326.95,2490.42,1327.38z" style="fill:#fff"></path>
          </g>
          <g>
            <path d="M2483.86,1349.55c0.14,1.23,0.52,2.41,1.1,3.46c0.59,1.06,1.38,2,2.36,2.78c1.66,1.32,3.68,2.02,5.77,2.02
						c0.36,0,0.72-0.02,1.08-0.06c2.47-0.29,4.68-1.51,6.24-3.46c1.54-1.95,2.25-4.39,1.96-6.86c-0.58-5.1-5.21-8.79-10.31-8.2
						C2486.96,1339.82,2483.28,1344.45,2483.86,1349.55z M2490.4,1348.5c0-0.61,0.21-1.21,0.59-1.69c0.45-0.56,1.11-0.93,1.82-1.01
						c0.1-0.01,0.2-0.01,0.3-0.01c0.61,0,1.21,0.2,1.69,0.58c0.55,0.45,0.92,1.11,1,1.82c0.17,1.48-0.9,2.83-2.39,3
						c-0.71,0.08-1.43-0.13-1.99-0.57s-0.92-1.1-1.01-1.81C2490.41,1348.7,2490.4,1348.6,2490.4,1348.5z" style="fill:#2e2d33"></path>
            <path d="M2490.4,1348.5c0,0.1,0.01,0.2,0.02,0.3c0.09,0.71,0.45,1.37,1.01,1.81c0.56,0.44,1.28,0.65,1.99,0.57
						c1.48-0.17,2.56-1.51,2.39-3c-0.08-0.71-0.45-1.37-1-1.82c-0.48-0.38-1.08-0.58-1.69-0.58c-0.1,0-0.2,0-0.3,0.01
						c-0.71,0.08-1.37,0.45-1.82,1.01C2490.61,1347.29,2490.4,1347.89,2490.4,1348.5z" style="fill:#fff"></path>
          </g>
        </g>
      </g>
      <g>
        <path d="M2387.35,1401.04l2.05,19.42c1.49,14.07,13.82,26.35,27.49,27.38c1.38,0.1,2.76,0.15,4.11,0.15
				c22.48,0,41.27-13.52,48.59-19.61c3.6-3,5.59-7.38,5.48-12.04c-0.11-4.5-2.2-8.68-5.72-11.49c-2.23-1.75-4.85-2.84-7.59-3.17
				c3.69-3.94,4.45-9.97,1.63-14.75c-1.72-2.94-4.62-5.04-7.95-5.79c-0.48-0.1-0.96-0.18-1.45-0.23c3.83-5.4,3.23-12.67-1.49-17.39
				c-2.54-2.54-5.99-3.96-9.58-3.96c-0.13,0-0.27,0.01-0.4,0.01c-2.37,0.07-4.67,0.77-6.67,1.99c-0.26-3.27-1.65-6.43-4.09-8.84
				c-5.06-5.02-13.06-5.43-18.61-0.97l-10.08,8.12C2391.13,1369.48,2385.55,1384.1,2387.35,1401.04z M2410.6,1369.25l10.08-8.12
				c0.77-0.62,1.88-0.56,2.6,0.14c0.58,0.58,0.74,1.47,0.37,2.22l-11.93,24.74c-1.3,2.71-0.42,5.96,2.08,7.62s5.84,1.23,7.83-1.01
				l20.16-22.73c0.36-0.4,0.78-0.5,1.08-0.51c0.28-0.02,0.73,0.06,1.11,0.44c0.3,0.3,0.45,0.69,0.45,1.08c0,0.31-0.1,0.61-0.29,0.87
				c-6.67,8.99-19.2,23.37-19.33,23.51c-1.98,2.28-1.97,5.68,0.03,7.95c2.01,2.27,5.39,2.69,7.89,0.98l19.8-13.49
				c0.03-0.02,0.12-0.08,0.27-0.05c0.14,0.04,0.19,0.12,0.21,0.16c0.09,0.15,0.05,0.34-0.08,0.44l-17.15,13.43
				c-2.21,1.72-2.93,4.73-1.75,7.27s3.95,3.93,6.69,3.36l18.58-3.87c0.22-0.05,0.44-0.07,0.65-0.07c0.9,0,1.56,0.4,1.9,0.67
				c0.43,0.34,1.14,1.09,1.18,2.37c0.02,0.95-0.4,1.86-1.15,2.49c-6.64,5.52-24.21,18.18-44.12,16.71
				c-7.87-0.59-15.54-8.37-16.42-16.65l-2.06-19.41C2397.95,1387.04,2401.97,1376.2,2410.6,1369.25z" style="fill:#2e2d33"></path>
        <path d="M2399.31,1399.78l2.06,19.41c0.88,8.28,8.55,16.06,16.42,16.65c19.91,1.47,37.48-11.19,44.12-16.71
				c0.75-0.62,1.17-1.53,1.15-2.49c-0.04-1.27-0.75-2.02-1.18-2.37c-0.34-0.27-1-0.67-1.9-0.67c-0.21,0-0.43,0.02-0.65,0.07
				l-18.58,3.87c-2.74,0.57-5.5-0.82-6.69-3.36c-1.17-2.54-0.45-5.54,1.75-7.27l17.15-13.43c0.13-0.1,0.17-0.29,0.08-0.44
				c-0.02-0.04-0.07-0.12-0.21-0.16c-0.15-0.03-0.24,0.03-0.27,0.05l-19.8,13.49c-2.5,1.7-5.87,1.28-7.89-0.98
				c-2-2.27-2.01-5.67-0.03-7.95c0.13-0.14,12.66-14.51,19.33-23.51c0.19-0.26,0.29-0.56,0.29-0.87c0-0.39-0.15-0.78-0.45-1.08
				c-0.38-0.38-0.83-0.46-1.11-0.44c-0.3,0.01-0.72,0.11-1.08,0.51l-20.16,22.73c-1.98,2.25-5.33,2.68-7.83,1.01
				c-2.51-1.65-3.39-4.91-2.08-7.62l11.93-24.74c0.37-0.75,0.21-1.64-0.37-2.22c-0.71-0.7-1.82-0.76-2.6-0.14l-10.08,8.12
				C2401.97,1376.2,2397.95,1387.04,2399.31,1399.78z" style="fill:#fff"></path>
      </g>
    </g>
  </g>
</svg>