<svg xmlns="http://www.w3.org/2000/svg" xml:space="preserve" id="50-price-cut-or-half-price-offer" x="0" y="0" style="enable-background:new 0 0 3000 3000" version="1.1" viewBox="0 0 3000 3000">
  <g>
    <g>
      <g>
        <g>
          <path d="M1785,2817.7V1406.3c0-37.6-30.6-68.2-68.2-68.2H877.7c-37.6,0-68.2,30.6-68.2,68.2v84.4c0,0.1,0,0.2,0,0.3
					v1326.8c0,0.1,0,0.2,0,0.4v88.7c0,37.6,30.6,68.1,68.2,68.1h839.2c37.6,0,68.2-30.5,68.2-68.1v-88.7
					C1785,2818,1785,2817.9,1785,2817.7z M1773,2906.9c0,30.9-25.2,56.1-56.2,56.1H877.7c-31,0-56.2-25.2-56.2-56.1v-88.4
					c0-0.1,0-0.2,0-0.4V1490.7c0-0.1,0-0.2,0-0.3v-84c0-31,25.2-56.2,56.2-56.2h839.2c31,0,56.2,25.2,56.2,56.2v1411.9
					c0,0.2,0,0.3,0,0.5V2906.9z" style="fill:#2e2d33"></path>
          <path d="M1773,2818.2V1406.3c0-31-25.2-56.2-56.2-56.2H877.7c-31,0-56.2,25.2-56.2,56.2v84c0,0.1,0,0.2,0,0.3
					v1327.5c0,0.1,0,0.2,0,0.4v88.4c0,30.9,25.2,56.1,56.2,56.1h839.2c31,0,56.2-25.2,56.2-56.1v-88.2
					C1773,2818.5,1773,2818.4,1773,2818.2z M1297.2,2938.3c-27.4,0-49.6-22.3-49.6-49.6s22.3-49.6,49.6-49.6s49.6,22.2,49.6,49.6
					S1324.6,2938.3,1297.2,2938.3z M1728.9,2818.2c0,3.3-2.7,6-6,6H871.7c-3.3,0-6-2.7-6-6V1490.7c0-3.3,2.7-6,6-6h851.2
					c3.3,0,6,2.7,6,6V2818.2z" style="fill:#e1e3e8"></path>
        </g>
      </g>
      <g>
        <path d="M1722.9,1484.7H871.7c-3.3,0-6,2.7-6,6v1327.5c0,3.3,2.7,6,6,6h851.2c3.3,0,6-2.7,6-6V1490.7
				C1728.9,1487.3,1726.2,1484.7,1722.9,1484.7z M1716.9,2812.2H877.7V1496.7h839.2V2812.2z" style="fill:#2e2d33"></path>
        <rect width="839.2" height="1315.5" x="877.7" y="1496.7" style="fill:#fff"></rect>
      </g>
      <g>
        <path d="M1297.2,2839c-27.4,0-49.6,22.2-49.6,49.6s22.3,49.6,49.6,49.6s49.6-22.3,49.6-49.6S1324.6,2839,1297.2,2839
				z M1297.2,2926.3c-20.8,0-37.6-16.9-37.6-37.6c0-20.7,16.9-37.6,37.6-37.6c20.7,0,37.6,16.9,37.6,37.6S1318,2926.3,1297.2,2926.3
				z" style="fill:#2e2d33"></path>
      </g>
      <g>
        <path d="M1297.2,2839c-27.4,0-49.6,22.2-49.6,49.6s22.3,49.6,49.6,49.6s49.6-22.3,49.6-49.6S1324.6,2839,1297.2,2839
				z M1297.2,2926.3c-20.8,0-37.6-16.9-37.6-37.6c0-20.7,16.9-37.6,37.6-37.6c20.7,0,37.6,16.9,37.6,37.6S1318,2926.3,1297.2,2926.3
				z" style="fill:#2e2d33"></path>
        <path d="M1334.9,2888.6c0,20.7-16.9,37.6-37.6,37.6c-20.8,0-37.6-16.9-37.6-37.6c0-20.7,16.9-37.6,37.6-37.6
				C1318,2851,1334.9,2867.9,1334.9,2888.6z" style="fill:#fff"></path>
      </g>
    </g>
    <g>
      <g>
        <g>
          <path d="M1602.3,1542.1c-35.9,0-65.1,29.2-65.1,65.1c0,35.9,29.2,65.1,65.1,65.1c35.9,0,65.1-29.2,65.1-65.1
					C1667.4,1571.3,1638.2,1542.1,1602.3,1542.1z M1602.3,1660.3c-29.3,0-53.1-23.8-53.1-53.1c0-29.3,23.8-53.1,53.1-53.1
					c29.3,0,53.1,23.8,53.1,53.1C1655.4,1636.5,1631.6,1660.3,1602.3,1660.3z M1602.3,1542.1c-35.9,0-65.1,29.2-65.1,65.1
					c0,35.9,29.2,65.1,65.1,65.1c35.9,0,65.1-29.2,65.1-65.1C1667.4,1571.3,1638.2,1542.1,1602.3,1542.1z M1602.3,1660.3
					c-29.3,0-53.1-23.8-53.1-53.1c0-29.3,23.8-53.1,53.1-53.1c29.3,0,53.1,23.8,53.1,53.1
					C1655.4,1636.5,1631.6,1660.3,1602.3,1660.3z M2154.2,1515.3h-1104c-20,0-36.2,16.2-36.2,36.2v635.9c0,20,16.3,36.2,36.2,36.2
					h1104c20,0,36.2-16.3,36.2-36.2v-635.9C2190.5,1531.6,2174.2,1515.3,2154.2,1515.3z M2178.5,2187.5c0,13.4-10.9,24.2-24.2,24.2
					h-1104c-13.4,0-24.2-10.9-24.2-24.2v-635.9c0-13.4,10.9-24.2,24.2-24.2h1104c13.4,0,24.2,10.9,24.2,24.2V2187.5z M1602.3,1542.1
					c-35.9,0-65.1,29.2-65.1,65.1c0,35.9,29.2,65.1,65.1,65.1c35.9,0,65.1-29.2,65.1-65.1
					C1667.4,1571.3,1638.2,1542.1,1602.3,1542.1z M1602.3,1660.3c-29.3,0-53.1-23.8-53.1-53.1c0-29.3,23.8-53.1,53.1-53.1
					c29.3,0,53.1,23.8,53.1,53.1C1655.4,1636.5,1631.6,1660.3,1602.3,1660.3z" style="fill:#2e2d33"></path>
          <path d="M2154.2,1527.3h-1104c-13.4,0-24.2,10.9-24.2,24.2v635.9c0,13.4,10.9,24.2,24.2,24.2h1104
					c13.4,0,24.2-10.9,24.2-24.2v-635.9C2178.5,1538.2,2167.6,1527.3,2154.2,1527.3z M1602.3,1672.3c-35.9,0-65.1-29.2-65.1-65.1
					c0-35.9,29.2-65.1,65.1-65.1c35.9,0,65.1,29.2,65.1,65.1C1667.4,1643.1,1638.2,1672.3,1602.3,1672.3z" style="fill:#00dcab"></path>
          <path d="M1655.4,1607.2c0,29.3-23.8,53.1-53.1,53.1c-29.3,0-53.1-23.8-53.1-53.1c0-29.3,23.8-53.1,53.1-53.1
					C1631.6,1554.1,1655.4,1577.9,1655.4,1607.2z" style="fill:#fff"></path>
        </g>
      </g>
    </g>
    <g>
      <path d="M1378.6,1423.4H1216c-3.3,0-6-2.7-6-6s2.7-6,6-6h162.6c3.3,0,6,2.7,6,6S1381.9,1423.4,1378.6,1423.4z" style="fill:#2e2d33"></path>
    </g>
    <g>
      <g>
        <path d="M1449.1,1910.6c0,12.3-2.1,23.2-6.2,32.7c-4.1,9.6-10,17.6-17.5,24.1c-7.6,6.5-16.5,11.5-27,14.9
				c-10.4,3.4-22,5.1-34.8,5.1c-7.1,0-13.8-0.5-20.2-1.5s-12-2.2-17-3.7c-4.9-1.5-9-2.9-12.2-4.3c-3.2-1.4-5.2-2.5-6.1-3.4
				c-0.9-0.8-1.5-1.6-1.9-2.3s-0.7-1.6-1-2.6c-0.3-1-0.5-2.3-0.6-3.8s-0.2-3.4-0.2-5.5c0-2,0.1-3.8,0.3-5.4s0.5-2.9,1-3.9
				s1-1.7,1.7-2.2s1.4-0.7,2.2-0.7c1.2,0,3,0.7,5.5,2.2c2.5,1.5,5.8,3.1,10,4.8c4.2,1.7,9.4,3.3,15.6,4.9c6.2,1.5,13.5,2.3,22,2.3
				c7.9,0,15.2-0.9,21.8-2.8c6.6-1.9,12.3-4.8,17.1-8.8s8.5-9.1,11.2-15.1s4.1-13.5,4.1-22.2c0-7.3-1.2-13.8-3.4-19.4
				c-2.3-5.6-5.8-10.3-10.6-14s-10.8-6.5-18.1-8.3c-7.3-1.8-16-2.7-26.2-2.7c-7.2,0-13.4,0.3-18.6,1.1c-5.2,0.7-10,1.1-14.5,1.1
				c-3.3,0-5.7-0.8-7.1-2.3c-1.4-1.5-2.1-4.5-2.1-8.8v-93.2c0-3.9,0.9-6.8,2.7-8.7s4.4-2.8,7.9-2.8h101.3c0.9,0,1.9,0.3,2.7,0.8
				s1.6,1.3,2.2,2.4s1,2.4,1.3,4.1c0.3,1.7,0.4,3.6,0.4,5.8c0,4.2-0.6,7.6-1.7,9.9c-1.1,2.4-2.7,3.5-4.7,3.5h-81.8v64.2
				c4-0.6,8-0.9,12.2-1.1c4.1-0.1,8.9-0.2,14.4-0.2c12.6,0,23.6,1.6,33.1,4.7c9.4,3.1,17.3,7.6,23.6,13.3
				c6.3,5.7,11.1,12.6,14.3,20.8C1447.4,1891.7,1449.1,1900.7,1449.1,1910.6z" style="fill:#2e2d33"></path>
      </g>
      <g>
        <path d="M1641.3,1869.3c0,17.6-1.4,33.6-4.2,48.1s-7.4,27-13.8,37.4c-6.4,10.4-14.8,18.5-25.2,24.2
				s-23.2,8.6-38.4,8.6c-14.4,0-26.5-2.6-36.3-7.7c-9.8-5.1-17.8-12.7-23.8-22.6s-10.3-22.2-12.8-36.8c-2.5-14.6-3.8-31.3-3.8-50.1
				c0-17.4,1.4-33.4,4.2-48s7.4-27.1,13.8-37.5c6.4-10.4,14.7-18.5,25.1-24.2c10.4-5.7,23.1-8.6,38.2-8.6c14.5,0,26.7,2.6,36.5,7.7
				c9.8,5.1,17.8,12.7,23.8,22.6s10.3,22.2,12.8,36.8C1640,1833.7,1641.3,1850.4,1641.3,1869.3z M1610.1,1871.4
				c0-11.4-0.4-21.7-1.2-30.8c-0.8-9.1-2-17.1-3.6-24.1c-1.6-6.9-3.7-12.9-6.2-17.9c-2.5-5-5.6-9.1-9.1-12.4
				c-3.5-3.2-7.6-5.6-12.1-7.1c-4.5-1.5-9.6-2.2-15.3-2.2c-10,0-18.2,2.4-24.4,7.1c-6.2,4.7-11.2,11.2-14.8,19.4s-6,17.9-7.3,29
				c-1.3,11.1-1.9,23-1.9,35.7c0,17.1,0.9,31.6,2.7,43.6s4.6,21.7,8.4,29.3c3.8,7.6,8.7,13,14.7,16.4c5.9,3.4,13.2,5.1,21.7,5.1
				c6.6,0,12.4-1.1,17.4-3.2s9.3-5.2,12.9-9.1c3.6-3.9,6.6-8.7,8.9-14.2c2.4-5.5,4.2-11.7,5.7-18.4c1.4-6.7,2.4-14,2.9-21.8
				C1609.9,1888,1610.1,1879.9,1610.1,1871.4z" style="fill:#2e2d33"></path>
      </g>
      <g>
        <path d="M1765,1812c0,9.1-1,17.3-3,24.8s-5.1,13.8-9.2,19s-9.3,9.3-15.7,12.3c-6.3,2.9-13.7,4.4-22.2,4.4
				c-8.6,0-16-1.3-22.1-4.1c-6.1-2.7-11.1-6.6-15-11.8s-6.8-11.4-8.6-18.7c-1.8-7.4-2.7-15.8-2.7-25.2c0-8.6,1-16.6,2.9-23.9
				c1.9-7.3,4.9-13.6,8.9-18.9s9.2-9.5,15.5-12.6c6.3-3.1,13.8-4.6,22.4-4.6c9.3,0,17.1,1.6,23.4,4.8c6.3,3.2,11.3,7.5,15.1,12.8
				c3.8,5.4,6.4,11.6,8,18.8C1764.3,1796.4,1765,1804,1765,1812z M1715,1985.6c-0.6,1.1-1.3,1.9-2.1,2.4c-0.8,0.5-1.8,1-3,1.4
				s-2.6,0.7-4.2,0.9c-1.7,0.2-3.7,0.3-6,0.3c-2.6,0-4.7-0.2-6.3-0.7c-1.6-0.5-2.7-1.1-3.4-1.9s-0.9-1.7-0.7-2.8
				c0.2-1.1,0.7-2.4,1.7-3.8l159.1-227.9c0.6-0.9,1.3-1.7,2.1-2.4s1.9-1.2,3.1-1.5s2.7-0.6,4.2-0.8s3.6-0.3,6.1-0.3s4.5,0.2,6.1,0.6
				s2.7,1,3.4,1.9s1,1.8,0.8,3c-0.2,1.2-0.7,2.4-1.7,3.7L1715,1985.6z M1740.3,1812.9c0-6.6-0.5-12.5-1.4-17.6
				c-0.9-5.1-2.4-9.4-4.3-12.8c-1.9-3.4-4.5-6-7.7-7.7c-3.2-1.7-7-2.6-11.3-2.6c-4.1,0-7.7,0.8-10.8,2.5c-3.1,1.7-5.6,4.1-7.5,7.4
				c-1.9,3.3-3.4,7.4-4.3,12.3s-1.4,10.6-1.4,17.2c0,8,0.6,14.7,1.7,20.1c1.1,5.4,2.7,9.6,4.8,12.7s4.7,5.3,7.8,6.5
				s6.7,1.9,10.7,1.9c4.7,0,8.6-0.9,11.6-2.7c3-1.8,5.4-4.4,7.2-7.9s3.1-7.7,3.9-12.6C1739.9,1824.9,1740.3,1819.2,1740.3,1812.9z
				 M1900,1926.4c0,9.1-1,17.3-3,24.8s-5.1,13.8-9.2,19c-4.1,5.2-9.3,9.3-15.7,12.3c-6.3,2.9-13.7,4.4-22.2,4.4
				c-8.6,0-16-1.4-22.1-4.1c-6.1-2.7-11.1-6.6-15-11.8s-6.8-11.4-8.6-18.7c-1.8-7.4-2.7-15.8-2.7-25.2c0-8.6,1-16.6,2.9-23.9
				c1.9-7.3,4.9-13.6,8.9-18.9s9.2-9.5,15.5-12.6c6.3-3.1,13.8-4.6,22.4-4.6c9.3,0,17.1,1.6,23.4,4.8c6.3,3.2,11.3,7.5,15.1,12.8
				c3.8,5.4,6.4,11.6,8,18.8C1899.2,1910.8,1900,1918.4,1900,1926.4z M1875.2,1927.3c0-6.6-0.5-12.5-1.4-17.6
				c-0.9-5.1-2.4-9.4-4.3-12.8c-1.9-3.4-4.5-6-7.7-7.7c-3.2-1.7-7-2.6-11.3-2.6c-4.1,0-7.7,0.8-10.8,2.5c-3.1,1.7-5.6,4.1-7.5,7.4
				c-1.9,3.3-3.4,7.4-4.3,12.3c-0.9,4.9-1.4,10.6-1.4,17.2c0,8,0.6,14.7,1.7,20.1c1.1,5.4,2.7,9.6,4.8,12.7s4.7,5.3,7.8,6.5
				s6.7,1.9,10.7,1.9c4.7,0,8.6-0.9,11.6-2.7c3-1.8,5.4-4.4,7.2-7.9s3.1-7.7,3.9-12.6C1874.8,1939.3,1875.2,1933.6,1875.2,1927.3z" style="fill:#2e2d33"></path>
      </g>
    </g>
    <g>
      <g>
        <path d="M1034.4,2258.9H915.1c-3.3,0-6,2.7-6,6v119.3c0,3.3,2.7,6,6,6h119.3c3.3,0,6-2.7,6-6v-119.3
				C1040.4,2261.6,1037.7,2258.9,1034.4,2258.9z M1028.4,2378.1H921.1v-107.3h107.3V2378.1z" style="fill:#2e2d33"></path>
        <rect width="107.3" height="107.3" x="921.1" y="2270.9" style="fill:#00dcab"></rect>
      </g>
      <g>
        <path d="M1675.7,2303.2h-602.8c-3.3,0-6-2.7-6-6s2.7-6,6-6h602.8c3.3,0,6,2.7,6,6S1679,2303.2,1675.7,2303.2z" style="fill:#2e2d33"></path>
      </g>
      <g>
        <path d="M1366.7,2357.9h-293.8c-3.3,0-6-2.7-6-6s2.7-6,6-6h293.8c3.3,0,6,2.7,6,6S1370,2357.9,1366.7,2357.9z" style="fill:#2e2d33"></path>
      </g>
      <g>
        <path d="M960,2358.9c-1.5,0-3.1-0.6-4.2-1.8l-20.8-20.8c-2.3-2.3-2.3-6.1,0-8.5c2.3-2.3,6.1-2.3,8.5,0l16.5,16.6
				l46.5-46.5c2.3-2.3,6.1-2.3,8.5,0c2.3,2.3,2.3,6.1,0,8.5l-50.8,50.8C963.1,2358.3,961.6,2358.9,960,2358.9z" style="fill:#2e2d33"></path>
      </g>
    </g>
    <g>
      <g>
        <path d="M1034.4,2459.3H915.1c-3.3,0-6,2.7-6,6v119.3c0,3.3,2.7,6,6,6h119.3c3.3,0,6-2.7,6-6v-119.3
				C1040.4,2462,1037.7,2459.3,1034.4,2459.3z M1028.4,2578.6H921.1v-107.3h107.3V2578.6z" style="fill:#2e2d33"></path>
        <rect width="107.3" height="107.3" x="921.1" y="2471.3" style="fill:#00dcab"></rect>
      </g>
      <g>
        <path d="M1675.7,2503.6h-602.8c-3.3,0-6-2.7-6-6s2.7-6,6-6h602.8c3.3,0,6,2.7,6,6S1679,2503.6,1675.7,2503.6z" style="fill:#2e2d33"></path>
      </g>
      <g>
        <path d="M1366.7,2558.3h-293.8c-3.3,0-6-2.7-6-6s2.7-6,6-6h293.8c3.3,0,6,2.7,6,6S1370,2558.3,1366.7,2558.3z" style="fill:#2e2d33"></path>
      </g>
      <g>
        <path d="M960,2559.3c-1.6,0-3.1-0.6-4.2-1.8l-20.8-20.8c-2.3-2.3-2.3-6.1,0-8.5c2.3-2.3,6.1-2.3,8.5,0l16.5,16.6
				l46.5-46.5c2.3-2.3,6.1-2.3,8.5,0c2.3,2.3,2.3,6.1,0,8.5l-50.8,50.8C963.2,2558.7,961.6,2559.3,960,2559.3z" style="fill:#2e2d33"></path>
      </g>
    </g>
    <g>
      <g>
        <path d="M1034.4,2659.7H915.1c-3.3,0-6,2.7-6,6V2785c0,3.3,2.7,6,6,6h119.3c3.3,0,6-2.7,6-6v-119.3
				C1040.4,2662.4,1037.7,2659.7,1034.4,2659.7z M1028.4,2779H921.1v-107.3h107.3V2779z" style="fill:#2e2d33"></path>
        <rect width="107.3" height="107.3" x="921.1" y="2671.7" style="fill:#00dcab"></rect>
      </g>
      <g>
        <path d="M1675.7,2704h-602.8c-3.3,0-6-2.7-6-6s2.7-6,6-6h602.8c3.3,0,6,2.7,6,6S1679,2704,1675.7,2704z" style="fill:#2e2d33"></path>
      </g>
      <g>
        <path d="M1366.7,2758.7h-293.8c-3.3,0-6-2.7-6-6s2.7-6,6-6h293.8c3.3,0,6,2.7,6,6S1370,2758.7,1366.7,2758.7z" style="fill:#2e2d33"></path>
      </g>
      <g>
        <path d="M960,2759.7c-1.6,0-3.1-0.6-4.2-1.8l-20.8-20.8c-2.3-2.3-2.3-6.1,0-8.5c2.3-2.3,6.1-2.3,8.5,0l16.5,16.6
				l46.5-46.5c2.3-2.3,6.1-2.3,8.5,0c2.3,2.3,2.3,6.1,0,8.5l-50.8,50.8C963.2,2759.1,961.6,2759.7,960,2759.7z" style="fill:#2e2d33"></path>
      </g>
    </g>
    <g>
      <g>
        <g>
          <path d="M1986.8,1129.5c-1.4-1.1-3.2-1.6-4.9-1.3c-1.3,0.2-2.7,0.4-4,0.4l-94.9,1.5c-1.3,0-2.6-0.1-3.9-0.2h0
					c-1.7-0.2-3.5,0.3-4.8,1.4c-1.3,1.1-2.1,2.8-2.1,4.5v44c0,1.6,0.1,3.2,0.2,4.7c0.4,4.8,1.4,9.6,2.9,14.1
					c0.1,0.4,0.3,0.8,0.4,1.3c1,2.7,2.2,5.3,3.6,7.9c10.3,18.7,29.9,30.3,51.2,30.3c25.5,0,47.9-16.3,55.6-40.6
					c0.2-0.5,0.3-1,0.5-1.5c0.9-3.2,1.6-6.5,1.9-9.8c0.2-2.1,0.3-4.2,0.3-6.3v-45.6C1989,1132.4,1988.2,1130.7,1986.8,1129.5z
					 M1977,1179.8c0,1.7-0.1,3.4-0.3,5c-0.3,2.6-0.8,5.2-1.5,7.8c-0.1,0.4-0.2,0.8-0.3,1.2c-6.1,19.3-23.9,32.3-44.2,32.3
					c-16.9,0-32.5-9.2-40.6-24c-1.1-2-2.1-4.2-2.9-6.3c-0.1-0.3-0.2-0.6-0.3-1c-1.2-3.6-2-7.4-2.3-11.2c-0.1-1.2-0.2-2.5-0.2-3.8
					v-37.7l92.7-1.4V1179.8z" style="fill:#2e2d33"></path>
          <path d="M1977,1140.6v39.1c0,1.7-0.1,3.4-0.3,5c-0.3,2.6-0.8,5.2-1.5,7.8c-0.1,0.4-0.2,0.8-0.3,1.2
					c-6.1,19.3-23.9,32.3-44.2,32.3c-16.9,0-32.5-9.2-40.6-24c-1.1-2-2.1-4.2-2.9-6.3c-0.1-0.3-0.2-0.6-0.3-1
					c-1.2-3.6-2-7.4-2.3-11.2c-0.1-1.2-0.2-2.5-0.2-3.8v-37.7L1977,1140.6z" style="fill:#fff"></path>
        </g>
        <g>
          <g>
            <path d="M2063.6,971.9c-1.2-74.7-62.9-134.6-137.6-133.4c-15.8,0.2-31.3,3.2-45.9,8.8
						c-53.2,20.1-88.4,71.9-87.5,128.8c0.1,7.4,0.8,14.8,2.1,22c5.9,33.3,24,62.9,50.9,83.5l0.4,24.4c0.3,16.3,11.1,30.2,26.3,34.6
						c1.7,0.5,3.4,0.9,5.2,1.1c1.7,0.2,3.5,0.4,5.2,0.4c0.2,0,0.4,0,0.5,0l93.7-1.4l1.2,0c2,0,3.9-0.2,5.9-0.6
						c1.7-0.3,3.3-0.7,4.9-1.2c15.1-4.9,25.5-19.1,25.3-35.4l-0.4-24.4C2046.1,1052.6,2064.2,1013.7,2063.6,971.9z M2004.1,1071.4
						c-1.5,1.2-2.3,2.9-2.3,4.8l0.5,27.3c0.2,12.2-8.4,22.6-20.3,24.7c-1.3,0.2-2.7,0.4-4,0.4l-94.9,1.5c-1.3,0-2.6-0.1-3.9-0.2h0
						c-12.1-1.7-21-11.8-21.2-24l-0.4-27.3c0-1.9-0.9-3.7-2.5-4.8c-25.8-18.9-43.1-46.5-48.6-77.8c-1.2-6.5-1.8-13.3-1.9-20
						c-0.8-51.9,31.3-99.1,79.8-117.4c13.4-5.1,27.4-7.8,41.8-8c0.7,0,1.3,0,1.9,0c67.2,0,122.5,54.2,123.5,121.6
						C2052.2,1011.1,2034.9,1047.3,2004.1,1071.4z" style="fill:#2e2d33"></path>
            <path d="M2004.1,1071.4c-1.5,1.2-2.3,2.9-2.3,4.8l0.5,27.3c0.2,12.2-8.4,22.6-20.3,24.7c-1.3,0.2-2.7,0.4-4,0.4
						l-94.9,1.5c-1.3,0-2.6-0.1-3.9-0.2h0c-12.1-1.7-21-11.8-21.2-24l-0.4-27.3c0-1.9-0.9-3.7-2.5-4.8
						c-25.8-18.9-43.1-46.5-48.6-77.8c-1.2-6.5-1.8-13.3-1.9-20c-0.8-51.9,31.3-99.1,79.8-117.4c13.4-5.1,27.4-7.8,41.8-8
						c0.7,0,1.3,0,1.9,0c67.2,0,122.5,54.2,123.5,121.6C2052.2,1011.1,2034.9,1047.3,2004.1,1071.4z" style="fill:#ffc42e"></path>
          </g>
          <g>
            <g>
              <path d="M1964.2,961.5h-0.8c-15.4,0-27.9,12.5-27.9,27.8v20.4h-14.9v-20.4c0-15.4-12.5-27.8-27.8-27.8h-0.8
							c-7.4,0-14.4,2.9-19.7,8.2c-5.3,5.3-8.2,12.3-8.2,19.7c0,15.4,12.5,27.9,27.8,27.9h21.2v118.4l1.6,0l4.2-0.1l1.6,0v-118.3
							h14.9v118l1.6,0l4.2-0.1l1.6,0v-117.9h21.2c7.4,0,14.4-2.9,19.7-8.2c5.2-5.3,8.2-12.3,8.2-19.7
							C1992.1,974,1979.6,961.5,1964.2,961.5z M1913.2,1009.8H1892c-11.2,0-20.4-9.2-20.4-20.4c0-5.4,2.1-10.6,6-14.4
							c3.9-3.8,9-6,14.4-6h0.8c11.2,0,20.4,9.2,20.4,20.4L1913.2,1009.8L1913.2,1009.8z M1978.6,1003.8c-3.8,3.8-9,6-14.4,6H1943
							v-20.4c0-11.2,9.2-20.4,20.4-20.4h0.8c11.2,0,20.4,9.2,20.4,20.4C1984.6,994.8,1982.5,999.9,1978.6,1003.8z" style="fill:#2e2d33"></path>
            </g>
          </g>
        </g>
      </g>
      <g>
        <path d="M1780.3,962.8h-33.9c-3.3,0-6-2.7-6-6s2.7-6,6-6h33.9c3.3,0,6,2.7,6,6S1783.6,962.8,1780.3,962.8z" style="fill:#2e2d33"></path>
      </g>
      <g>
        <path d="M1799.9,898.7c-1,0-2-0.3-3-0.8l-29.4-16.9c-2.9-1.7-3.9-5.3-2.2-8.2s5.3-3.9,8.2-2.2l29.4,16.9
				c2.9,1.7,3.9,5.3,2.2,8.2C1804,897.6,1802,898.7,1799.9,898.7z" style="fill:#2e2d33"></path>
      </g>
      <g>
        <path d="M1850.7,850.5c-1.7,0-3.4-0.7-4.6-2.2l-21.6-26.1c-2.1-2.5-1.8-6.3,0.8-8.5s6.3-1.8,8.4,0.8l21.6,26.1
				c2.1,2.5,1.8,6.3-0.8,8.5C1853.4,850,1852,850.5,1850.7,850.5z" style="fill:#2e2d33"></path>
      </g>
      <g>
        <path d="M1928.1,830.2c-3.3,0-6-2.7-6-6v-33.9c0-3.3,2.7-6,6-6s6,2.7,6,6v33.9
				C1934.1,827.6,1931.4,830.2,1928.1,830.2z" style="fill:#2e2d33"></path>
      </g>
      <g>
        <path d="M1995.8,850.5c-1.3,0-2.7-0.5-3.8-1.4c-2.6-2.1-2.9-5.9-0.8-8.5l21.6-26.1c2.1-2.5,5.9-2.9,8.4-0.8
				c2.6,2.1,2.9,5.9,0.8,8.5l-21.6,26.1C1999.3,849.7,1997.6,850.5,1995.8,850.5z" style="fill:#2e2d33"></path>
      </g>
      <g>
        <path d="M2046.6,898.7c-2.1,0-4.1-1.1-5.2-3c-1.7-2.9-0.7-6.5,2.2-8.2l29.4-16.9c2.9-1.7,6.5-0.7,8.2,2.2
				c1.6,2.9,0.7,6.5-2.2,8.2l-29.4,16.9C2048.6,898.4,2047.6,898.7,2046.6,898.7z" style="fill:#2e2d33"></path>
      </g>
      <g>
        <path d="M2066.2,962.8c-3.3,0-6-2.7-6-6s2.7-6,6-6h33.9c3.3,0,6,2.7,6,6s-2.7,6-6,6H2066.2z" style="fill:#2e2d33"></path>
      </g>
    </g>
    <g>
      <path d="M1604.8,1632c-0.4,0-0.7,0-1.1-0.1c-2.6-0.5-4.6-2.6-4.9-5.2l-89.2-723.9c-0.4-3.3,1.9-6.3,5.2-6.7
			c3.3-0.4,6.3,1.9,6.7,5.2l86.9,705l99.8-188.2c1.6-2.9,5.2-4,8.1-2.5c2.9,1.6,4,5.2,2.5,8.1l-108.7,205.1
			C1609.1,1630.8,1607,1632,1604.8,1632z" style="fill:#2e2d33"></path>
    </g>
    <g>
      <g>
        <g>
          <path d="M1508.8,298.9c0,1,0,2-0.1,3c-1.2,13.3-10.1,24.9-16,31.3c-1.9,2-3.4,3.5-4.3,4.3c-1.4,1.9-3.6,3-5.8,3
					c-1.3,0-2.6-0.4-3.8-1.1c-3.4-2.1-4.5-6.6-2.3-10l0.3-0.5c0.4-0.6,0.9-1.2,1.5-1.7c0.7-0.6,1.7-1.5,2.7-2.6
					c2.7-2.7,6-6.6,8.7-11.1c2.8-4.5,4.8-9.6,4.8-14.6c0-2,0.8-3.8,2.1-5.2l0,0c1.3-1.3,3.1-2.1,5.1-2.1
					C1505.6,291.6,1508.8,294.9,1508.8,298.9z" style="fill:#2e2d33"></path>
        </g>
        <g>
          <path d="M1453.2,301.1l-3.3-6.3c1.7-0.2,3.3-0.9,4.6-2.3c2.7-2.9,2.6-7.5-0.4-10.3l-1.6-1.4c-4-4.5-10.6-5.4-15.6-2
					c-0.1,0.1-0.2,0.1-0.3,0.2c-3,2.2-4.9,5.8-4.9,9.6c0,1.9,0.5,3.8,1.4,5.5l7.2,13.7c0.2,0.3,0.3,0.7,0.4,1c0.3,1.1,0.3,2.3,0,3.4
					l-1.2,4.1c-1.1,3.8,1,7.9,4.9,9c0.7,0.2,1.4,0.3,2.1,0.3c3.1,0,6-2,7-5.2l1.2-4c0.2-0.8,0.4-1.5,0.6-2.3
					c0.6-3.3,0.3-6.7-0.7-9.8C1454.2,303.2,1453.7,302.1,1453.2,301.1z" style="fill:#2e2d33"></path>
        </g>
        <g>
          <path d="M1048.9,760.9c0,3.8-1.7,7.3-4.7,9.7c-4.8,3.8-11.4,3.6-15.9-0.4c-1.6,4.4-4.4,8.5-8.2,11.7
					c-5.3,4.6-11.9,6.9-18.5,6.9c-4.8,0-9.5-1.2-13.9-3.7c-13.8-7.8-21.5-17.9-23-30.2c-2.5-21.5,16.1-41.3,20.4-45.6l0.9-1.5
					l3.9-6.9c2-3.5,6.4-4.7,9.9-2.8c3.5,2,4.7,6.4,2.8,9.9l-3.1,5.4l-2.2,3.9c-0.4,0.7-0.8,1.2-1.4,1.8
					c-5.2,4.9-18.4,20.5-16.7,34.1c0.9,7.3,6.2,13.8,15.7,19.2c6.2,3.5,12.2,1.5,15.8-1.6c3.5-3,6.4-8.6,3.9-15.1
					c-0.1-0.2-0.1-0.4-0.2-0.6c0,0,0-0.1-0.1-0.1c-1.4-3.6,0-7.6,3.3-9.6c2.3-1.4,5.1-1.5,7.4-0.4c-2-4.5-2.5-9.5-1.3-14.3l1.8-7.3
					l1.6-6.3c1-3.9,4.9-6.2,8.8-5.3c3.9,1,6.3,4.9,5.3,8.8l-1.8,7.3l-1.6,6.3c-0.5,1.9-0.2,3.8,0.8,5.5l8.6,14.8
					C1048.3,756.6,1048.9,758.7,1048.9,760.9z" style="fill:#2e2d33"></path>
        </g>
        <g>
          <path d="M1025,745.1c-2.3-1.1-5.1-1-7.4,0.4c-3.3,2-4.7,6-3.3,9.6c0,0,0,0.1,0.1,0.1c0.1,0.2,0.1,0.3,0.2,0.6
					c2.5,6.5-0.4,12.1-3.9,15.1c-3.6,3.1-9.6,5.1-15.8,1.6c-9.5-5.4-14.8-11.8-15.7-19.2c-1.6-13.6,11.5-29.2,16.7-34.1
					c0.5-0.5,1-1.1,1.4-1.8l2.2-3.9l26,9.9l-1.8,7.3C1022.5,735.7,1023,740.7,1025,745.1z" style="fill:#fff"></path>
          <path d="M1236.7,367.9c-0.1,4-3.4,7.2-7.5,7c-2.2-0.1-4.4-0.1-6.5,0c-14.5,0.2-28.2,2.9-40.8,7.9
					c-18.2,7.2-33.3,19.7-48.8,40.5c-12.4,16.6-96.7,198-132.2,275.3l35,13.3l85.8-138.2c2.1-3.4,6.6-4.5,10-2.3
					c3.4,2.1,4.5,6.6,2.3,10l-60.9,98.1l-7.7,12.3l-2.2,3.5l-14.3,23l-3.9,6.3c-1.3,2-3.4,3.2-5.7,3.4c-0.2,0-0.3,0-0.5,0
					c-0.9,0-1.7-0.2-2.6-0.5l-10.8-4.1l-26-9.9l-11.1-4.2c-0.9-0.3-1.7-0.8-2.4-1.5c-0.8-0.7-1.4-1.6-1.8-2.6
					c-0.8-1.9-0.7-4,0.1-5.8c4.9-10.7,120.6-263.2,137-285.1c17.3-23.1,34.3-37,55.1-45.3c14-5.5,29.1-8.5,45.1-8.9
					c2.7-0.1,5.3-0.1,8.1,0c3.7,0.1,6.7,3,7,6.5C1236.7,367.2,1236.7,367.5,1236.7,367.9z" style="fill:#2e2d33"></path>
        </g>
        <g>
          <path d="M1492.6,336.1c-1,4.6-25.9,114.3-57.1,168.7c-16.1,28-49.9,40.1-80.5,28.7l-43.6-16.2
					c-38.4,70.9-38.6,172.5-38.1,193.9c0,0.2,0,0.3,0,0.5c0.1,4-3.1,7.3-7.1,7.4h-0.2c-3.9,0-7.2-3.2-7.3-7.1c0-1.7-0.1-3.8-0.1-6.5
					c-0.2-31.8,2.8-131.7,43.2-200.9c1.8-3,5.5-4.4,8.8-3.1l49.4,18.4c23.8,8.9,50.3-0.5,62.8-22.4c26.1-45.4,48.4-134.8,54.1-158.7
					l-31.9-13.1c-4.2,11.9-13.2,36.9-22.5,61.7c-27,72.5-29.4,73.1-34,74.4c-2.4,0.6-5,0.1-6.8-1.6c-3.8-3.3-7.7-6.6-11.6-10
					c-11.3-9.8-23-19.8-34.6-29.6c-2.2-1.8-4.2-3.6-6.4-5.4c-12.8-11-24.8-21.3-39.9-27.1c-1.3-0.5-2.6-1-4-1.5
					c-0.2-0.1-0.4-0.2-0.7-0.2c-2.3-0.8-4.3-1.5-6.2-2.1c-3.8-1.2-5.9-5.3-4.7-9.2c1.2-3.8,5.3-5.9,9.2-4.7c1,0.3,2.1,0.7,3.2,1.1
					c1.1,0.4,2.2,0.8,3.4,1.2c1.7,0.6,3.3,1.2,5,1.9c17.5,6.7,31.1,18.4,44.2,29.7c2.1,1.8,4.2,3.6,6.3,5.4
					c11.7,9.8,23.4,19.9,34.7,29.7c1.7,1.5,3.4,3,5.2,4.4c8.8-19.2,30.5-77.4,49.2-130.1c0.7-1.9,2.1-3.4,3.9-4.2
					c0.9-0.4,1.8-0.6,2.8-0.6c1,0,2,0.1,2.9,0.5l11.6,4.8l25.6,10.5l7.5,3.1c2.4,1,4,3.1,4.4,5.5
					C1492.8,334.2,1492.8,335.1,1492.6,336.1z" style="fill:#2e2d33"></path>
        </g>
        <g>
          <path d="M996.2,1226.4l-2.9,6.5l-5,11.3l-3.1,6.9c-1.2,2.7-3.9,4.3-6.7,4.3c-1,0-2-0.2-2.9-0.6
					c-3.7-1.6-5.3-5.9-3.7-9.6l2-4.6h0l6-13.4l3-6.8c1.6-3.7,5.9-5.3,9.6-3.7C996.1,1218.5,997.8,1222.8,996.2,1226.4z" style="fill:#2e2d33"></path>
        </g>
        <g>
          <path d="M1032.7,1242l-2.8,6.4l-5.4,12.2l-2.5,5.6c-1.2,2.7-3.9,4.3-6.7,4.3c-1,0-2-0.2-2.9-0.6
					c-3.7-1.6-5.3-5.9-3.7-9.6l2.9-6.4l4.9-10.9l3-6.8c1.6-3.7,5.9-5.3,9.6-3.7C1032.7,1234.1,1034.3,1238.3,1032.7,1242z" style="fill:#2e2d33"></path>
        </g>
        <g>
          <path d="M1059.1,1311.1l-33.3-48.9c-0.4-0.6-0.8-1.1-1.3-1.6c-1.5-1.6-3.3-2.9-5.5-3.8l-7.4-3l-23.3-9.5l-5.9-2.4
					c-2.7-1.1-5.7-1.5-8.5-1.2h0c-3.8,0.4-7.5,2.1-10.1,4.8l-21.8,23.3c-2.8,3-4.6,6.5-5.3,10.3c-1.7,9.4,3.9,18.6,13.7,23.1
					l68.5,31c6.7,3,13.9,4.8,21.5,5.4c0.6,0,1.2,0.1,1.9,0.1c10.6,0,19.3-6.8,20.2-16C1063.1,1318.6,1061.8,1314.5,1059.1,1311.1z
					 M1041.7,1324.2c-5.8-0.4-11.6-1.9-16.6-4.2l-68.5-31c-3.7-1.7-5.9-4.6-5.4-7.3c0.2-1,0.7-2,1.6-3l21.7-23.3
					c0.3-0.2,1.4-0.5,2.4-0.1l35.5,14.5l1.1,0.4c0.2,0.1,0.3,0.2,0.3,0.2l33.5,49.1c0.2,0.2,0.3,0.4,0.5,0.6
					c0.2,0.2,0.6,0.8,0.5,1.2C1048.1,1322.6,1045.5,1324.5,1041.7,1324.2z" style="fill:#2e2d33"></path>
          <path d="M1048.2,1321.4c-0.1,1.2-2.7,3.1-6.6,2.9c-5.8-0.4-11.6-1.9-16.6-4.2l-68.5-31c-3.7-1.7-5.9-4.6-5.4-7.3
					c0.2-1,0.7-2,1.6-3l21.7-23.3c0.3-0.2,1.4-0.5,2.4-0.1l35.5,14.5l1.1,0.4c0.2,0.1,0.3,0.2,0.3,0.2l33.5,49.1
					c0.2,0.2,0.3,0.4,0.5,0.6C1047.9,1320.4,1048.3,1320.9,1048.2,1321.4z" style="fill:#67737e"></path>
        </g>
        <g>
          <path d="M1265.2,1275.4c0,4-3.2,7.2-7.2,7.3h-0.1c-4,0-7.2-3.2-7.3-7.2l0-5.6l-0.1-16l-0.1-7.2c0-4,3.2-7.3,7.2-7.3
					h0.1c4,0,7.2,3.2,7.3,7.2l0.1,7.3l0.1,14L1265.2,1275.4z" style="fill:#2e2d33"></path>
        </g>
        <g>
          <path d="M1305.2,1274c0,4-3.2,7.3-7.2,7.3h-0.1c-0.1,0-0.1,0-0.2,0h-0.1c-3.8-0.2-6.9-3.3-6.9-7.2l-0.1-7.1l-0.1-13
					l-0.1-7.2c0-4,3.2-7.3,7.2-7.3h0c4,0,7.2,3.2,7.3,7.2l0.1,7.3l0.1,14.8L1305.2,1274z" style="fill:#2e2d33"></path>
        </g>
        <g>
          <path d="M1364,1308.9c-1.3-4-4.2-7.2-8.2-9.2l-50.5-30.8c-0.1-0.1-0.2-0.1-0.3-0.2c-2.4-1.4-5.2-2.1-8.1-1.9
					l-6.4,0.2l-25.4,0.9l-7.6,0.3c-2.4,0.1-4.8,0.7-6.9,1.7c-0.9,0.4-1.8,1-2.6,1.5c-2.7,1.9-4.8,4.6-5.9,7.7l-10.2,30.2
					c-1.3,3.8-1.5,7.8-0.6,11.6c2.3,9.2,11.2,15.4,22,15.4l75.2,0.1h0.1c7.3,0,14.6-1.3,21.8-3.9
					C1361.2,1328.6,1367.2,1318.2,1364,1308.9z M1345.4,1318.9c-5.4,2-11.3,3.1-16.8,3.1h-0.1l-75.2-0.1c-4.1,0-7.3-1.8-8-4.4
					c-0.2-1-0.2-2.2,0.2-3.3l10.2-30.2c0.2-0.3,1.1-1,2.1-1.1l39.5-1.4h0.1c0.1,0,0.2,0,0.2,0c0,0,0,0,0,0l0,0l50.7,31
					c0.2,0.1,0.4,0.2,0.7,0.4c0.3,0.2,0.8,0.4,1,0.9C1350.6,1314.7,1349.1,1317.5,1345.4,1318.9z" style="fill:#2e2d33"></path>
          <path d="M1345.4,1318.9c-5.4,2-11.3,3.1-16.8,3.1h-0.1l-75.2-0.1c-4.1,0-7.3-1.8-8-4.4c-0.2-1-0.2-2.2,0.2-3.3
					l10.2-30.2c0.2-0.3,1.1-1,2.1-1.1l39.5-1.4h0.1c0.1,0,0.2,0,0.2,0h0.1l50.7,31c0.2,0.1,0.4,0.2,0.7,0.4c0.3,0.2,0.8,0.4,1,0.9
					C1350.6,1314.7,1349.1,1317.5,1345.4,1318.9z" style="fill:#67737e"></path>
        </g>
        <g>
          <path d="M1316.1,949.5l-42.8-238.3l-0.1-0.6c-0.7-3.9-4.4-6.5-8.3-5.9c-0.2,0-2.3,0.4-6.1,0.9
					c-25.3,3.2-122.5,12.5-185.6-26.1c-2-1.2-3.9-2.5-5.8-3.8c-3.3-2.3-7.8-1.4-10.1,1.9c-1.8,2.7-1.6,6.1,0.2,8.6
					c-0.5-0.1-1-0.2-1.5-0.2c-4,0-7.2,3.3-7.2,7.3l0.3,25l3,273.8c0.1,6.6-1.1,13-3.4,19.2l-78.4,204.3c-1.4,3.7,0.3,7.8,3.9,9.3
					l5.8,2.5l13.4,5.7l23.2,9.9l12,5.1c0.5,0.2,1,0.3,1.5,0.4c3,0.6,6-0.7,7.6-3.4l93.7-156.7c19.3-32.4,31.2-67.8,35.4-105.3
					l10.3-93.6l35.6,96.3c4.1,11,6.6,22.5,7.6,34.1l19.1,227.5c0.3,3.8,3.5,6.7,7.2,6.7h62c3.9,0,7.2-3.1,7.3-7.1l6.2-224.6
					C1322.3,997.9,1320.5,973.4,1316.1,949.5z M1307.1,1021.9l-6,217.5h-48.2l-18.5-220.8c-1.1-13-3.9-25.8-8.4-38l-46.2-125.2
					c-1.2-3.2-4.3-5.1-7.7-4.7c-3.3,0.4-6,3.1-6.3,6.4l-13.6,124.3c-3.9,35.4-15.1,68.8-33.4,99.4l-90.4,151.3l-35.8-15.2l-6.2-2.7
					l75.9-197.8c3-7.9,4.5-16.1,4.4-24.5l-3.2-296.7l0-2.1c0-1.2-0.3-2.3-0.8-3.3c1,0.6,2,1.3,3,1.9c31.8,19.6,74.6,30.2,127.2,31.6
					c30.5,0.8,55.7-1.8,67.5-3.3l41.6,232C1306,975,1307.8,998.5,1307.1,1021.9z" style="fill:#2e2d33"></path>
          <path d="M1307.1,1021.9l-6,217.5h-48.2l-18.5-220.8c-1.1-13-3.9-25.8-8.4-38l-46.2-125.2c-1.2-3.2-4.3-5.1-7.7-4.7
					c-3.3,0.4-6,3.1-6.3,6.4l-13.6,124.3c-3.9,35.4-15.1,68.8-33.4,99.4l-90.4,151.3l-35.8-15.2l-6.2-2.7l75.9-197.8
					c3-7.9,4.5-16.1,4.4-24.5l-3.3-298.8c0-1.2-0.3-2.3-0.8-3.3c32.1,20.8,75.9,32,130.2,33.5c30.5,0.8,55.7-1.8,67.5-3.3l41.6,232
					C1306,975,1307.8,998.5,1307.1,1021.9z" style="fill:#fff"></path>
          <polygon points="1290.6 1267 1265.1 1267.9 1265.1 1254 1290.5 1254" style="fill:#fff"></polygon>
          <polygon points="1016.4 1242.9 1011.5 1253.8 988.2 1244.3 993.2 1233" style="fill:#fff"></polygon>
        </g>
        <g>
          <path d="M1308,262.6c-0.7-2.6-1.7-5-3-7.4c-1.1-1.9-2.3-3.8-3.8-5.5c-2.6-3-7.2-3.4-10.2-0.8
					c-0.2,0.2-0.4,0.4-0.6,0.6c0,0-0.1,0.1-0.1,0.1c-0.1,0.1-0.2,0.2-0.3,0.4c-2.1,2.7-2.1,6.5,0.2,9.2c1.6,1.8,2.7,3.8,3.5,6
					c0.1,0.4,0.2,0.7,0.3,1.1c12.4,45.3,6.8,64.6-0.1,72.8c-6.2,7.3-15,7.7-19.8,7.2c-3.1-0.2-6.2,1.1-8,3.7c-1.8,2.6-2.2,5.8-1,8.7
					l8.2,19.5c-0.5,0.5-1,1-1.5,1.5c-4.5,3.7-11.4,4.5-20.5,2.2c-5.8-1.4-11-3.8-13.9-5.3l-0.7-9.9l-1.6-21.6c0-0.4-0.1-0.8-0.2-1.1
					c-0.2-1.2-0.7-2.3-1.4-3.3c-2.3-3.3-6.8-4.1-10.1-1.9c-2.7,1.9-3.8,5.3-2.8,8.3l0.4,5.8l0.5,7.1l1.1,14.5l0.5,6.2
					c0,0.1,0,0.2,0,0.4c0.3,2.5,1.7,4.7,3.7,6.1c2.2,1.5,10.6,6.2,20.9,8.7c4.5,1.1,8.7,1.6,12.7,1.6c8.1,0,15-2.2,20.4-6.7
					c1.6-1.3,3.1-2.8,4.4-4.5c0.6-0.8,1.3-1.7,1.8-2.6c0.1-0.1,0.1-0.2,0.2-0.2c2.4-4,0.8-7.8,0.1-9.4l-1.2-2.9l-4.5-10.7
					c7.1-0.9,16.2-3.8,23.3-12.2C1318.3,332.8,1319.3,303.9,1308,262.6z" style="fill:#2e2d33"></path>
          <path d="M1477,338.9c-5.7,23.9-28,113.3-54.1,158.7c-12.5,21.8-38.9,31.2-62.8,22.3l-49.4-18.4
					c-3.3-1.2-7,0.1-8.8,3.1c-40.3,69.2-43.3,169-43.2,200.9c-25.3,3.2-122.5,12.5-185.6-26.1l60.9-98.1c2.1-3.4,1.1-7.9-2.3-10
					c-3.4-2.1-7.9-1.1-10,2.3l-85.8,138.2l-35-13.3c35.5-77.4,119.8-258.7,132.2-275.3c15.6-20.8,30.6-33.3,48.8-40.5
					c12.6-5,26.3-7.6,40.8-7.9l0.5,6.2c0,0.1,0,0.2,0,0.4c0.3,2.5,1.7,4.7,3.7,6.1c2.2,1.5,10.6,6.2,20.9,8.7
					c4.5,1.1,8.7,1.6,12.7,1.6c8.1,0,15-2.2,20.4-6.7c1.6-1.3,3.1-2.8,4.4-4.5c1.3,0.5,2.7,1,4,1.5c15.1,5.8,27.2,16.2,39.9,27.1
					c2.1,1.8,4.2,3.6,6.4,5.4c11.6,9.8,23.3,19.9,34.6,29.6c3.8,3.3,7.7,6.6,11.6,10c1.9,1.6,4.4,2.2,6.8,1.6c4.7-1.2,7-1.9,34-74.4
					c9.3-24.8,18.2-49.8,22.5-61.7L1477,338.9z" style="fill:#8a8bc4"></path>
        </g>
        <g>
          <path d="M1311.6,225.8c-2.4-4.4-7.5-6.8-12.4-5.7l-10.5,2.3l-2.8-8.2c-1-2.9-3.3-5.1-6.1-5.9
					c-2.9-0.9-6-0.3-8.4,1.5l-15.1,11.4c-1.1,0.8-2.5,1-3.8,0.4c-8.7-4.2-26.6-9.4-48.4,3.4c-18.7,11.1-26.6,32.7-29.8,48.9
					c-2.3,11.4,0.5,23.2,7.8,32.4l13.9,17.4c0.3,0.4,0.5,0.7,0.8,1.1c0.4,0.6,0.8,1.5,1.4,2.6c5.9,11.1,12.9,23.2,22.3,25.7
					c0.2,0,0.4,0.1,0.6,0.1c1,0.2,2,0.3,3,0.3c2.5,0,4.9-0.7,7.2-2.1c2.4-1.5,3.8-4.2,3.7-7l0-0.2l0.6-12.9c0-0.6,0-1.3-0.2-1.9
					c-1-4.4-3.2-8.5-6.4-11.6c-6-5.9-8.6-10.8-8.3-12.9c0-0.2,0.1-0.8,1.5-1.7c2.1-1.3,4.6-1.7,7-1.1c0.3,0.1,0.6,0.2,0.8,0.2
					l7.5,20.3c1.2,3.1,4.3,5.1,7.7,4.7s6-3,6.4-6.4l2-16.6c0.1-0.5,0.1-1.1,0-1.6c-0.1-0.8,0.3-1.6,1-2.1
					c9.9-7.3,14.8-17.1,13.7-27.3c8.5-1.4,18.1-3.8,25.5-8.1c3.2-1.8,5.9-4,8-6.6c0.9-1.1,1.9-2.2,2.9-3.1c0.1-0.1,0.2-0.2,0.4-0.4
					C1314.5,246.7,1316.9,235.7,1311.6,225.8z M1263,259.5c-3.2,0.5-6.1,2.2-7.9,4.9s-2.5,6-1.8,9.1c1.3,5.6-1.3,10.8-7.6,15.5
					c-1.7,1.3-3.2,2.8-4.3,4.5c-1.6-2.1-4.3-4.2-8.9-5.4c-6.2-1.6-13-0.5-18.4,3c-6.1,3.9-7.8,8.9-8.1,12.5
					c-0.8,7.5,3.5,15.8,12.7,24.7c1,1,1.8,2.2,2.2,3.5l-0.2,4.5c-2.2-2.5-5.3-7.1-9.7-15.6c-0.7-1.3-1.2-2.3-1.7-3
					c-0.6-1-1.3-2-2-2.9l-13.8-17.4c-4.6-5.8-6.4-13.2-5-20.5c2.7-13.3,8.9-30.9,23-39.3c7.7-4.5,14.6-6.1,20.5-6.1
					c5.7,0,10.5,1.5,14.2,3.3c6.2,3,13.4,2.3,18.9-1.9l9.3-7.1l1.9,5.7c1.5,4.5,6.2,7.2,10.9,6.1l12.4-2.7c0.5,2.2,0.2,5.6-4.6,9.8
					c-1.7,1.5-3.3,3.1-4.7,4.9c0,0-0.1,0.1-0.1,0.1c-0.1,0.1-0.2,0.2-0.3,0.4C1286.3,254.1,1276.1,257.7,1263,259.5z" style="fill:#2e2d33"></path>
          <path d="M1295,244.7c-1.7,1.5-3.3,3.1-4.7,4.9c0,0-0.1,0.1-0.1,0.1c-0.1,0.1-0.2,0.2-0.3,0.4
					c-3.6,4-13.8,7.6-26.9,9.4c-3.2,0.5-6.1,2.2-7.9,4.9s-2.5,6-1.8,9.1c1.3,5.6-1.3,10.8-7.6,15.5c-1.7,1.3-3.2,2.8-4.3,4.5
					c-1.6-2.1-4.3-4.2-8.9-5.4c-6.2-1.6-13-0.5-18.4,3c-6.1,3.9-7.8,8.9-8.1,12.5c-0.8,7.5,3.5,15.8,12.7,24.7c1,1,1.8,2.2,2.2,3.5
					l-0.2,4.5c-2.2-2.5-5.3-7.1-9.7-15.6c-0.7-1.3-1.2-2.3-1.7-3c-0.6-1-1.3-2-2-2.9l-13.8-17.4c-4.6-5.8-6.4-13.2-5-20.5
					c2.7-13.3,8.9-30.9,23-39.3c7.7-4.5,14.6-6.1,20.5-6.1c5.7,0,10.5,1.5,14.2,3.3c6.2,3,13.4,2.3,18.9-1.9l9.3-7.1l1.9,5.7
					c1.5,4.5,6.2,7.2,10.9,6.1l12.4-2.7C1300.1,237.1,1299.8,240.5,1295,244.7z" style="fill:#333"></path>
          <path d="M1293.8,339.3c-6.2,7.3-15,7.7-19.8,7.2c-3.1-0.2-6.2,1.1-8,3.7c-1.8,2.6-2.2,5.8-1,8.7l8.2,19.5
					c-0.5,0.5-1,1-1.5,1.5c-4.5,3.7-11.4,4.5-20.5,2.2c-5.8-1.4-11-3.8-13.9-5.3l-0.7-9.9l-1.6-21.6c0-0.4-0.1-0.8-0.2-1.1l0.6-12.9
					c0-0.6,0-1.3-0.2-1.9c-1-4.4-3.2-8.5-6.4-11.6c-6-5.9-8.6-10.8-8.3-12.9c0-0.2,0.1-0.8,1.5-1.7c2.1-1.3,4.6-1.7,7-1.1
					c0.3,0.1,0.6,0.2,0.8,0.2l7.5,20.3c1.2,3.1,4.3,5.1,7.7,4.7s6-3,6.4-6.4l2-16.6c0.1-0.5,0.1-1.1,0-1.6c-0.1-0.8,0.3-1.6,1-2.1
					c9.9-7.3,14.8-17.1,13.7-27.3c8.5-1.4,18.1-3.8,25.5-8.1c0.1,0.4,0.2,0.7,0.3,1.1C1306.4,311.8,1300.8,331.1,1293.8,339.3z" style="fill:#fff"></path>
        </g>
        <g>
          <g>
            <g>
              <g>
                <path d="M1648.6,238.6c-0.2,0.1-0.4,0.2-0.6,0.3c-0.4,0.2-0.8,0.3-1.2,0.4l-6.3,1.4l-122.4,26.1l-14.3,3
								l-50.4,10.8l-1,0.2l-13.7,2.9l-6.5,1.4l-55.5,11.9c-0.5,0.1-1,0.2-1.5,0.2c-2.8,0-5.4-1.6-6.6-4.2l-12.5-26.6
								c-1.4-3.1-0.6-6.7,2.1-8.8l212.1-166.6l5-4c0.3-0.2,0.7-0.5,1-0.7c0.1-0.1,0.2-0.1,0.4-0.2c0.1-0.1,0.2-0.1,0.3-0.1
								c2.9-1.2,6.5-0.4,8.5,2.2c2.5,3.2,1.9,7.7-1.2,10.2l-0.8,0.7l-2.6,2.1l-17.9,14.1l-191.2,150.2l7.6,16.2l62.4-13.3l66.1-14.1
								l0.4-0.1l108.9-23.2l22.3-4.8l3.2-0.7l1.1-0.2c3.9-0.8,7.8,1.7,8.6,5.6C1653.1,233.9,1651.4,237.2,1648.6,238.6z" style="fill:#2e2d33"></path>
              </g>
            </g>
            <g>
              <g>
                <path d="M1661.8,202.4c-1.2-16.4-6.9-36.1-16-55.5c-9.1-19.4-20.6-36.4-32.4-47.8
								c-13.4-12.9-26.2-17.6-36.3-13.1c-0.1,0-0.2,0.1-0.3,0.1c-0.1,0.1-0.2,0.1-0.4,0.2c-2.3,1.2-4.4,2.7-6.1,4.6
								c-4.9,5.6-7.2,14.1-7.3,24.2c-0.2,18.1,6.2,41.4,16.3,62.8c10.1,21.5,23.8,41.4,37.8,52.8c7.7,6.2,15.4,9.9,22.6,9.9
								c0.2,0,0.4,0,0.6,0c2.6-0.1,5.1-0.6,7.5-1.7c0.1,0,0.2-0.1,0.3-0.1c0.1,0,0.2-0.1,0.2-0.1
								C1658.5,233.9,1663.2,221,1661.8,202.4z M1639.5,226c-3.7-0.2-9.7-3.1-17.6-10.6c-10.6-10.2-21-25.7-29.4-43.5
								s-13.6-35.8-14.6-50.4c-0.8-10.8,0.9-17.3,3-20.3c0.7-0.9,1.4-1.5,2.1-1.8c0.2-0.1,0.4-0.2,0.6-0.2c0.5-0.1,1-0.2,1.6-0.2
								c3.7,0,9.9,2.7,18.1,10.7c5.3,5.1,10.5,11.5,15.5,18.9c5,7.4,9.7,15.7,13.8,24.6c8.4,17.9,13.6,35.8,14.6,50.4
								c1,13.3-1.8,19.9-4.6,21.8c-0.2,0.1-0.3,0.2-0.5,0.3C1641.5,225.9,1640.6,226.1,1639.5,226z" style="fill:#2e2d33"></path>
                <path d="M1642.7,225.3l-3.2,0.7c-3.7-0.2-9.7-3.1-17.6-10.6c-10.6-10.2-21-25.7-29.4-43.5s-13.6-35.8-14.6-50.4
								c-0.8-10.8,0.9-17.3,3-20.3l2.6-2.1c0.5-0.1,1-0.2,1.6-0.2c3.7,0,9.9,2.7,18.1,10.7c5.3,5.1,10.5,11.5,15.5,18.9
								c5,7.4,9.7,15.7,13.8,24.6c8.4,17.9,13.6,35.8,14.6,50.4C1648.3,216.7,1645.5,223.4,1642.7,225.3z" style="fill:#fff"></path>
              </g>
            </g>
          </g>
          <g>
            <g>
              <g>
                <path d="M1489.5 313.6c-2.7 4.5-6.1 8.4-8.7 11.1l-25.6-10.5c.6-3.3.3-6.7-.7-9.8 8.2 6.6 17.7 10.1 27 10.1C1484.2 314.5 1486.9 314.2 1489.5 313.6zM1496.4 293.8 1496.4 293.8c-1.7 1.7-3.7 3.1-5.9 4.1-8.7 4.1-19.6 1.7-28.5-6.2-3.4-3.1-6.4-6.9-8.6-11.1l50.4-10.8C1504.7 279.2 1502.1 288.2 1496.4 293.8z" style="fill:#fff"></path>
                <path d="M1617.2,230.7L1508.3,254l-0.4,0.1l-66.1,14.1l-62.4,13.3l-7.6-16.2l191.2-150.2
								c-0.2,18.1,6.2,41.4,16.3,62.8C1589.4,199.4,1603.2,219.4,1617.2,230.7z" style="fill:#ffc42e"></path>
                <path d="M1508.7,301.9c-0.6,0.7-1.3,1.5-2,2.2c-2.9,2.9-6.2,5.3-10,7c-2.3,1.1-4.8,1.9-7.2,2.5
								c-2.6,0.6-5.3,0.9-8,0.9c-9.3,0-18.8-3.5-27-10.1c-0.7-0.6-1.4-1.2-2.1-1.8c-5.4-4.9-9.8-10.8-13-17.6
								c-0.2-0.4-0.4-0.8-0.6-1.2c-0.7-1.6-1.3-3.2-1.9-4.8c-0.2-0.5-0.3-1-0.5-1.5c-1.2-3.8,1-7.9,4.8-9.1c0.2,0,0.3-0.1,0.5-0.1
								c3.7-0.8,7.4,1.3,8.5,5c0.6,1.9,1.3,3.8,2.1,5.6c0.3,0.6,0.6,1.2,0.9,1.8c0.6,1.1,1.2,2.1,1.8,3.1c1.9,3,4.2,5.7,6.8,8
								c8.8,7.9,19.7,10.3,28.5,6.2c2.2-1,4.1-2.4,5.8-4.1l0,0c5.7-5.6,8.3-14.6,7.4-24c-0.2-2.2-0.6-4.5-1.2-6.7
								c-1.1-3.9,1.2-7.9,5.1-8.9c0.1,0,0.2-0.1,0.3-0.1l0.4-0.1c3.7-0.6,7.2,1.6,8.3,5.2c0.7,2.5,1.2,5,1.5,7.5
								C1519.8,280,1516.5,292.8,1508.7,301.9z" style="fill:#2e2d33"></path>
              </g>
            </g>
          </g>
        </g>
      </g>
      <g>
        <g>
          <path d="M1779.5,182.1c-1.8,0-3.5-0.6-4.8-1.9c-2-1.8-2.8-4.4-2.2-7l6.1-27.4l-41.6,13.9c-3.8,1.3-7.9-0.8-9.2-4.6
					c-1.3-3.8,0.8-7.9,4.6-9.2l53.8-18c2.5-0.8,5.2-0.3,7.2,1.5c1.9,1.8,2.8,4.4,2.2,7l-6.1,27.3l36.2-12.3c3.8-1.3,7.9,0.7,9.2,4.5
					c1.3,3.8-0.7,7.9-4.5,9.2l-48.4,16.5C1781.1,181.9,1780.3,182.1,1779.5,182.1z" style="fill:#2e2d33"></path>
        </g>
      </g>
      <g>
        <g>
          <path d="M1691.7,127.9c-1.8,0-3.5-0.6-4.8-1.8c-2-1.8-2.8-4.4-2.2-7l7.6-34.5l-51.2,17.1c-3.8,1.3-7.9-0.8-9.2-4.6
					c-1.3-3.8,0.8-7.9,4.6-9.2l63.3-21.2c2.5-0.8,5.2-0.3,7.2,1.5c1.9,1.8,2.8,4.4,2.2,7l-7.6,34.4l44.8-15.2
					c3.8-1.3,7.9,0.7,9.2,4.5c1.3,3.8-0.7,7.9-4.5,9.2l-57,19.4C1693.2,127.8,1692.4,127.9,1691.7,127.9z" style="fill:#2e2d33"></path>
        </g>
      </g>
      <g>
        <g>
          <path d="M1808.5,86.5c-1.8,0-3.5-0.6-4.8-1.8c-2-1.8-2.8-4.4-2.2-7l7.6-34.5l-51.2,17.1c-3.8,1.3-7.9-0.8-9.2-4.6
					c-1.3-3.8,0.8-7.9,4.6-9.2l63.3-21.1c2.5-0.8,5.2-0.3,7.2,1.5c1.9,1.8,2.8,4.4,2.2,7l-7.6,34.4l44.8-15.2
					c3.8-1.3,7.9,0.7,9.2,4.5c1.3,3.8-0.7,7.9-4.5,9.2l-57,19.4C1810.1,86.4,1809.3,86.5,1808.5,86.5z" style="fill:#2e2d33"></path>
        </g>
      </g>
    </g>
    <g>
      <g>
        <path d="M1978.5,2867.9L1978.5,2867.9L1978.5,2867.9z M2063.7,2645.8c-4.1-83.7-40.6-160.8-102.7-217
				c-62.1-56.2-142.4-84.9-226.1-80.8c-83.7,4.2-160.8,40.7-217,102.8c-56.2,62.1-84.9,142.4-80.7,226.1
				c4.2,83.7,40.7,160.8,102.8,217c58.2,52.6,132.2,81.1,210.2,81.1c5.3,0,10.6-0.1,15.9-0.4c41.8-2.1,82-12.2,118.8-29.6
				c36.8-17.4,70.1-42.1,98.2-73.1C2039.2,2809.8,2067.9,2729.4,2063.7,2645.8z M1974.1,2863.8c-111.6,123.3-302.8,132.8-426.1,21.1
				c-123.3-111.7-132.8-302.8-21.2-426.1c59.5-65.7,141.5-99.1,223.8-99.1c72.2,0,144.7,25.7,202.4,77.9
				c65.7,59.4,99,141.4,99,223.7C2052,2733.7,2026.3,2806.2,1974.1,2863.8z" style="fill:#2e2d33"></path>
        <path d="M1952.9,2437.7c-57.7-52.2-130.1-77.9-202.4-77.9c-82.3,0-164.3,33.4-223.8,99.1
				c-111.7,123.3-102.1,314.5,21.2,426.1c123.3,111.6,314.5,102.1,426.1-21.1c52.2-57.7,77.9-130.1,77.9-202.4
				C2052,2579.1,2018.6,2497.1,1952.9,2437.7z M1951.1,2843.1c-24.3,26.8-53,48.1-84.7,63.1c-31.7,15-66.4,23.8-102.5,25.6
				c-4.6,0.2-9.2,0.4-13.8,0.4c-67.2,0-131.2-24.6-181.4-70c-53.6-48.5-85.1-115.1-88.7-187.3c-3.6-72.2,21.2-141.6,69.7-195.1
				c48.5-53.6,115.1-85.1,187.3-88.7c72.2-3.6,141.6,21.2,195.2,69.7c53.6,48.5,85.1,115,88.7,187.3
				C2024.4,2720.1,1999.7,2789.4,1951.1,2843.1z" style="fill:#ffc42e"></path>
      </g>
      <g>
        <path d="M1946.7,2839L1946.7,2839L1946.7,2839z M2020.8,2647.9c-3.6-72.2-35.1-138.8-88.7-187.3
				c-53.6-48.5-122.9-73.3-195.2-69.7c-72.2,3.6-138.8,35.1-187.3,88.7c-48.5,53.6-73.3,122.9-69.7,195.1
				c3.6,72.2,35.1,138.8,88.7,187.3c50.2,45.4,114.1,70,181.4,70c4.6,0,9.2-0.1,13.8-0.4c36.1-1.8,70.8-10.6,102.5-25.6
				c31.7-15,60.5-36.3,84.7-63.1C1999.7,2789.4,2024.4,2720.1,2020.8,2647.9z M1942.2,2835c-95.8,105.8-259.7,113.9-365.4,18.1
				c-51.2-46.4-81.3-110-84.8-179c-3.4-69,20.2-135.3,66.6-186.5c51-56.3,121.4-85,192-85c62,0,124.1,22.1,173.6,66.8
				C2029.9,2565.2,2038,2729.2,1942.2,2835z" style="fill:#2e2d33"></path>
        <path d="M1942.2,2835c-95.8,105.8-259.7,113.9-365.4,18.1c-51.2-46.4-81.3-110-84.8-179
				c-3.4-69,20.2-135.3,66.6-186.5c51-56.3,121.4-85,192-85c62,0,124.1,22.1,173.6,66.8C2029.9,2565.2,2038,2729.2,1942.2,2835z" style="fill:#fff"></path>
      </g>
    </g>
    <g>
      <path d="M1826.4,2710.9c0,9.7-1.8,18.5-5.5,26.4c-3.7,7.9-8.9,14.8-15.7,20.4c-6.8,5.7-15.1,10.2-24.9,13.6
			c-9.8,3.4-20.8,5.4-32.9,6l-4,39.4c-0.1,0.7-0.3,1.4-0.6,2.1c-0.3,0.7-0.9,1.2-1.7,1.6c-0.8,0.4-2,0.8-3.5,1
			c-1.5,0.2-3.5,0.4-5.9,0.4c-2.8,0-5-0.1-6.6-0.4c-1.6-0.3-2.9-0.7-3.9-1.1c-1-0.4-1.6-1-1.9-1.8s-0.3-1.7-0.1-2.6l4.2-39.2
			c-5.8-0.7-11.2-1.7-16.2-2.8c-5-1.1-9.4-2.4-13.3-3.7c-3.9-1.3-7.2-2.7-9.9-4.2c-2.7-1.4-4.7-2.8-6-4.1c-1.3-1.3-2.2-2.9-2.6-5
			s-0.7-4.9-0.7-8.5c0-2.7,0.1-4.9,0.4-6.6s0.6-3.2,1.1-4.4c0.5-1.1,1.1-1.9,1.9-2.4c0.8-0.4,1.7-0.6,2.8-0.6c1.6,0,3.8,0.9,6.7,2.6
			c2.9,1.8,6.8,3.7,11.5,5.8c4.8,2.1,10.6,4.1,17.5,5.9c6.9,1.8,15.2,2.7,24.9,2.7c17.2,0,30.3-3.4,39.2-10.2
			c8.9-6.8,13.4-16,13.4-27.6c0-7.1-1.6-13.1-4.9-17.9c-3.3-4.8-7.6-8.9-13-12.4c-5.4-3.4-11.5-6.4-18.3-8.9
			c-6.8-2.5-13.8-5-20.9-7.5s-14.1-5.4-20.9-8.7c-6.8-3.3-12.9-7.3-18.3-12.2c-5.3-4.8-9.6-10.8-12.9-17.7s-4.9-15.5-4.9-25.7
			c0-8.1,1.4-15.7,4.2-22.7s7-13.2,12.5-18.4c5.6-5.3,12.6-9.6,21.1-12.9c8.5-3.3,18.3-5.4,29.6-6.1l3.6-36.7
			c0.1-0.7,0.3-1.4,0.6-2.1c0.3-0.7,0.9-1.2,1.7-1.7c0.8-0.5,2-0.8,3.4-1s3.4-0.3,6-0.3c2.7,0,4.9,0.1,6.6,0.4s3.1,0.6,4,1.2
			s1.5,1.2,1.7,1.9c0.2,0.7,0.4,1.6,0.4,2.5l-4,36.3c3.6,0.4,7.4,1,11.4,1.9s7.6,1.9,11.1,3.1c3.4,1.1,6.6,2.4,9.4,3.8
			c2.8,1.4,4.7,2.6,5.7,3.5c1,1,1.8,1.9,2.2,2.7c0.4,0.9,0.8,1.8,1,2.9c0.2,1.1,0.4,2.4,0.6,3.8c0.2,1.4,0.3,3.1,0.3,4.9
			c0,2.3-0.1,4.3-0.3,6s-0.4,3-0.8,4c-0.4,1-0.8,1.7-1.4,2.2c-0.6,0.5-1.3,0.7-2.2,0.7c-1.3,0-3.4-0.8-6.4-2.4s-6.6-3.3-11-5.1
			s-9.5-3.5-15.4-5.1c-5.8-1.6-12.3-2.4-19.4-2.4c-8.1,0-15.1,0.8-20.8,2.4c-5.8,1.6-10.4,3.8-14,6.6c-3.6,2.9-6.2,6.3-7.8,10.3
			c-1.6,4-2.4,8.4-2.4,13.1c0,7.3,1.7,13.3,5,18.2c3.3,4.9,7.7,9,13.1,12.4c5.4,3.4,11.5,6.3,18.4,8.7c6.9,2.4,14,4.9,21.2,7.5
			c7.2,2.6,14.3,5.5,21.2,8.6c6.9,3.1,13.1,7.1,18.4,12c5.4,4.9,9.8,10.8,13.1,17.7C1824.7,2692.2,1826.4,2700.7,1826.4,2710.9z" style="fill:#2e2d33"></path>
    </g>
  </g>
</svg>