<svg xmlns="http://www.w3.org/2000/svg" xml:space="preserve" id="travel-location" x="0" y="0" enable-background="new 0 0 140 140" version="1.1" viewBox="0 0 140 140">
  <g id="Traveling">
    <path fill="#fedcee" d="M42.1,69.3c0,0.5-4.3,0.9-9.6,0.9S23,69.8,23,69.3c0-0.5,4.3-0.9,9.6-0.9S42.1,68.8,42.1,69.3z"></path>
    <path fill="#231f24" d="M57.3,118.1H30.6c-0.1,0-0.1-0.1-0.1-0.2V85.8c0-1.7,1.4-3.1,3.1-3.1h23.1c1.7,0,3.1,1.4,3.1,3.1v29.8       C59.8,117,58.7,118.1,57.3,118.1z M30.8,117.8h26.6c1.2,0,2.2-1,2.2-2.2V85.8c0-1.6-1.3-2.8-2.8-2.8H33.6       c-1.6,0-2.8,1.3-2.8,2.8V117.8z"></path>
    <path fill="#fec75a" d="M30.6,117.9V85.8c0-1.6,1.3-3,3-3h-4.2c-1.6,0-3,1.3-3,3v29.8c0,1.3,1,2.3,2.3,2.3H30.6z"></path>
    <path fill="#231f24" d="M30.6,118.1h-1.9c-1.4,0-2.5-1.1-2.5-2.5V85.8c0-1.7,1.4-3.1,3.1-3.1h4.2c0.1,0,0.1,0.1,0.1,0.2       S33.7,83,33.6,83c-1.6,0-2.8,1.3-2.8,2.8v32.1C30.8,118,30.7,118.1,30.6,118.1z M29.4,83c-1.6,0-2.8,1.3-2.8,2.8v29.8       c0,1.2,1,2.2,2.2,2.2h1.8V85.8c0-1.2,0.7-2.3,1.8-2.8H29.4z"></path>
    <path fill="#231f24" d="M28.3,113.7c-0.1,0-0.1-0.1-0.1-0.2V87.2c0-0.1,0.1-0.2,0.1-0.2s0.1,0.1,0.1,0.2v26.4       C28.5,113.6,28.4,113.7,28.3,113.7z"></path>
    <rect width=".8" height="2.7" x="27.5" y="89.7" fill="#2c2c2c"></rect>
    <rect width=".8" height="2.7" x="27.5" y="109.6" fill="#2c2c2c"></rect>
    <path fill="#178afc" d="M56,114.6V99.2c0-0.6-0.5-1.2-1.2-1.2H35c-0.6,0-1.2,0.5-1.2,1.2v15.4c0,0.6,0.5,1.2,1.2,1.2h19.9       C55.5,115.8,56,115.2,56,114.6z"></path>
    <path fill="#231f24" d="M54.9 115.9H35c-.7 0-1.3-.6-1.3-1.3V99.2c0-.7.6-1.3 1.3-1.3h19.9c.7 0 1.3.6 1.3 1.3v15.4C56.2 115.3 55.6 115.9 54.9 115.9zM35 98.2c-.6 0-1 .5-1 1v15.4c0 .6.5 1 1 1h19.9c.6 0 1-.5 1-1V99.2c0-.6-.5-1-1-1H35zM54.6 88.4H35.3c-.1 0-.1-.1-.1-.2s.1-.2.1-.2h19.2c.1 0 .1.1.1.2S54.6 88.4 54.6 88.4z"></path>
    <path fill="#178afc" d="M38.6,90v0.8c0,0.5-0.4,0.8-0.8,0.8l0,0c-0.5,0-0.8-0.4-0.8-0.8V90c0-0.5,0.4-0.8,0.8-0.8l0,0       C38.2,89.2,38.6,89.6,38.6,90z"></path>
    <path fill="#231f24" d="M37.8,91.8c-0.5,0-1-0.4-1-1V90c0-0.5,0.4-1,1-1s1,0.4,1,1v0.8C38.8,91.3,38.3,91.8,37.8,91.8z M37.8,89.3       c-0.4,0-0.7,0.3-0.7,0.7v0.8c0,0.4,0.3,0.7,0.7,0.7s0.7-0.3,0.7-0.7V90C38.5,89.6,38.1,89.3,37.8,89.3z"></path>
    <path fill="#231f24" d="M37.8,89.3c-0.1,0-0.1-0.1-0.1-0.2v-1c0-0.1,0.1-0.2,0.1-0.2s0.1,0.1,0.1,0.2v1       C37.9,89.2,37.9,89.3,37.8,89.3z"></path>
    <g>
      <path fill="#231f24" d="M53.3,102.8H37.2c-0.1,0-0.1-0.1-0.1-0.2s0.1-0.2,0.1-0.2h16.2c0.1,0,0.1,0.1,0.1,0.2       S53.4,102.8,53.3,102.8z"></path>
    </g>
    <g>
      <path fill="#fff" d="M40,104.5v0.8c0,0.5-0.4,0.8-0.8,0.8h0c-0.5,0-0.8-0.4-0.8-0.8v-0.8c0-0.5,0.4-0.8,0.8-0.8h0       C39.6,103.7,40,104,40,104.5z"></path>
      <path fill="#231f24" d="M39.2,106.3c-0.5,0-1-0.4-1-1v-0.8c0-0.5,0.4-1,1-1s1,0.4,1,1v0.8C40.1,105.8,39.7,106.3,39.2,106.3z        M39.2,103.8c-0.4,0-0.7,0.3-0.7,0.7v0.8c0,0.4,0.3,0.7,0.7,0.7s0.7-0.3,0.7-0.7v-0.8C39.8,104.1,39.5,103.8,39.2,103.8z"></path>
    </g>
    <g>
      <path fill="#231f24" d="M39.2,103.8c-0.1,0-0.1-0.1-0.1-0.2v-1c0-0.1,0.1-0.2,0.1-0.2s0.1,0.1,0.1,0.2v1       C39.3,103.7,39.2,103.8,39.2,103.8z"></path>
    </g>
    <g>
      <path fill="#231f24" d="M51,83H35.1c-0.1,0-0.1-0.1-0.1-0.2V75c0-0.6,0.5-1.1,1.1-1.1h14c0.6,0,1.1,0.5,1.1,1.1v7.8       C51.1,82.9,51.1,83,51,83z M35.2,82.7h15.6V75c0-0.4-0.4-0.8-0.8-0.8H36c-0.4,0-0.8,0.4-0.8,0.8V82.7z"></path>
      <path fill="#fec75a" d="M51,78.3c-0.6,0-1.2-0.5-1.2-1.2v-1.9H36.2v1.9c0,0.6-0.5,1.2-1.2,1.2s-1.2-0.5-1.2-1.2V75       c0-1.2,1-2.1,2.1-2.1h14c1.2,0,2.1,1,2.1,2.1v2.1C52.1,77.8,51.6,78.3,51,78.3z"></path>
      <path fill="#231f24" d="M51 78.5c-.7 0-1.3-.6-1.3-1.3v-1.7H36.4v1.7c0 .7-.6 1.3-1.3 1.3s-1.3-.6-1.3-1.3V75c0-1.3 1-2.3 2.3-2.3h14c1.3 0 2.3 1 2.3 2.3v2.1C52.3 77.9 51.7 78.5 51 78.5zM36.2 75.1h13.6c.1 0 .1.1.1.2v1.9c0 .6.5 1 1 1 .6 0 1-.5 1-1V75c0-1.1-.9-2-2-2H36c-1.1 0-2 .9-2 2v2.1c0 .6.5 1 1 1 .6 0 1-.5 1-1v-1.9C36.1 75.2 36.1 75.1 36.2 75.1zM48.2 83H37.8c-.1 0-.1-.1-.1-.2v-2.3c0-.5.4-.9.9-.9h8.8c.5 0 .9.4.9.9v2.3C48.4 82.9 48.3 83 48.2 83zM38 82.7h10.1v-2.2c0-.4-.3-.6-.6-.6h-8.8c-.4 0-.6.3-.6.6V82.7z"></path>
      <g>
        <path fill="#178afc" d="M46.4,79.7L46.4,79.7c0,0.5-0.4,0.8-0.8,0.8h-5.1c-0.5,0-0.8-0.4-0.8-0.8l0,0c0-0.5,0.4-0.8,0.8-0.8h5.1       C46,78.9,46.4,79.3,46.4,79.7z"></path>
        <path fill="#231f24" d="M45.6,80.7h-5.1c-0.5,0-1-0.4-1-1s0.4-1,1-1h5.1c0.5,0,1,0.4,1,1S46.1,80.7,45.6,80.7z M40.5,79.1       c-0.4,0-0.7,0.3-0.7,0.7s0.3,0.7,0.7,0.7h5.1c0.4,0,0.7-0.3,0.7-0.7s-0.3-0.7-0.7-0.7H40.5z"></path>
      </g>
    </g>
    <g>
      <path fill="#fedcee" d="M116.5,28.4l-10.5,1.8l-4.3,4.4c-0.7,0.7-1.8,0.9-2.6,0.5l-0.7-0.4c-0.1,0-0.1-0.2-0.1-0.3l2-3.2l-8.3,1.4      c-0.9,0.2-1.8-0.2-2.3-1l-3.4-5.3c-0.1-0.1,0-0.2,0.1-0.3c0.6-0.3,1.3-0.5,1.9-0.4c0.9,0,1.8,0.4,2.4,1l2.1,2l6.2-2l-4.1-3.7      c-0.1-0.1-0.1-0.2,0-0.3l0.7-0.5c0.8-0.6,1.8-0.6,2.6-0.1l5.9,3.7l4.8-1.2c2.4-0.6,5,0,6.9,1.7l1,0.9      C117.2,27.7,117,28.3,116.5,28.4z"></path>
    </g>
    <g>
      <polygon fill="#fff" points="77.9 70.4 74.8 70.7 65.3 71.8 58.9 57.8 53.9 47.1 67.5 48.3"></polygon>
      <path fill="#231f24" d="M65.3,71.9c-0.1,0-0.1,0-0.1-0.1L53.8,47.2c0,0,0-0.1,0-0.1c0,0,0.1-0.1,0.1-0.1l13.6,1.2         c0.1,0,0.1,0,0.1,0.1L78,70.3c0,0.1,0,0.2-0.1,0.2C68.8,71.5,71.3,71.3,65.3,71.9z M54.2,47.3l11.2,24.3l12.3-1.4L67.4,48.4         L54.2,47.3z"></path>
      <path fill="#fedcee" d="M74.8,70.7l-9.5,1.1l-6.4-14l3.9-0.6c0.4-0.1,0.8,0.1,0.9,0.5l1.5,3.2c0.2,0.3,0.5,0.5,0.9,0.5l3.9-0.4         c0.5-0.1,1,0.4,0.9,0.9L70.4,67c0,0.3,0.1,0.6,0.4,0.8L74.8,70.7z"></path>
      <path fill="#231f24" d="M65.3,71.9c-0.1,0-0.1,0-0.1-0.1l-6.4-14c0-0.1,0-0.2,0.1-0.2l3.9-0.6c0.4-0.1,0.9,0.2,1.1,0.6l1.5,3.2         c0.1,0.3,0.4,0.4,0.7,0.4l3.9-0.4c0.6-0.1,1.2,0.5,1.1,1.1l-0.4,5.2c0,0.2,0.1,0.5,0.3,0.6l4,2.9c0.1,0.1,0.1,0.3-0.1,0.3         C73.3,71,64.8,72,65.3,71.9z M59.1,57.9l6.3,13.7l9-1l-3.7-2.7c-0.3-0.2-0.4-0.6-0.4-0.9l0.4-5.2c0-0.4-0.3-0.8-0.8-0.8         l-3.9,0.4c-0.4,0-0.8-0.2-1-0.6l-1.5-3.2c-0.1-0.3-0.4-0.5-0.8-0.4L59.1,57.9z"></path>
      <polygon fill="#fff" points="104.8 62 93.7 39.5 83 45.8 91.7 64.8"></polygon>
      <path fill="#231f24" d="M91.7,64.9c-0.1,0-0.1,0-0.1-0.1l-8.7-18.9c0-0.1,0-0.2,0.1-0.2l10.7-6.3c0.1,0,0.2,0,0.2,0.1L104.9,62         c0,0,0,0.1,0,0.1c0,0-0.1,0.1-0.1,0.1L91.7,64.9C91.7,64.9,91.7,64.9,91.7,64.9z M83.2,45.9l8.6,18.7l12.8-2.7L93.6,39.7         L83.2,45.9z"></path>
      <polygon fill="#fff" points="85.6 63.7 83.5 65.5 77.9 70.4 72.3 58.5 68.5 50.2 67.5 48.3 75.1 41.6 84.5 61.4"></polygon>
      <path fill="#231f24" d="M77.9,70.5c-0.1,0-0.1,0-0.1-0.1L67.4,48.3c0-0.1,0-0.1,0-0.2l7.5-6.6c0,0,0.1,0,0.1,0         c0,0,0.1,0,0.1,0.1l10.5,22c0,0.1,0,0.1,0,0.2l-2.1,1.8L77.9,70.5C78,70.5,77.9,70.5,77.9,70.5z M67.7,48.3l10.2,21.8         l7.4-6.5L75,41.9L67.7,48.3z"></path>
      <polygon fill="#fff" points="91.7 64.8 87.7 64.1 85.6 63.7 84.5 61.4 75.1 41.6 79.6 44.1 83 45.9 85.2 50.7"></polygon>
      <path fill="#231f24" d="M91.7,64.9C91.7,64.9,91.7,64.9,91.7,64.9l-6.2-1.1c0,0-0.1,0-0.1-0.1l-10.5-22c0-0.1,0-0.1,0-0.2         c0,0,0.1-0.1,0.2,0l7.9,4.2c0,0,0.1,0,0.1,0.1l8.7,18.9c0,0.1,0,0.1,0,0.2C91.8,64.9,91.7,64.9,91.7,64.9z M85.7,63.5         l5.8,1.1L82.9,46l-7.5-4L85.7,63.5z"></path>
      <path fill="#fbccb3" d="M94.8,56.2v2.9c0,2,1.6,3.7,3.7,3.7c1,0,1.9-0.4,2.6-1.1c0.7-0.7,1.1-1.6,1.1-2.6v-5.8       c-0.3,0.4-0.6,0.8-0.9,1.2c-1.2,1.2-2.9,2-4.7,2C95.9,56.4,95.3,56.4,94.8,56.2z"></path>
      <path fill="#231f24" d="M103,62c0.9-0.5,3-4-0.6-4.1c-8.6-0.2-9.8,4.9-9.8,4.9S100.8,63.3,103,62z"></path>
      <path fill="#fbccb3" d="M88.8,48.9c0,0.6,0.3,0.8,1.1,0.9c0,3.7,3,6.7,6.7,6.7c1.8,0,3.5-0.8,4.7-2c1.2-1.2,1.9-2.9,1.9-4.7v-3.1       c0-3.7-3-6.7-6.7-6.7c-1.8,0-3.5,0.7-4.7,2c-2.6,2.6-1.8,5.8-1.9,6.1C89.1,48.2,88.8,48.3,88.8,48.9z"></path>
      <path fill="#231f24" d="M89.3,45.7c0.7,0.6,1.7,0.5,3.8-0.2c4.6-1.4,0.9,3.7,0.9,3.7s3.3-0.8,3.5,0.3c0.4,1.9-1.4,2.7-1.4,2.7v0.4       c0,1,0.8,1.9,1.9,1.9h3.9c0.7,0,1.3-0.4,1.7-1c1.6-3.3,6-13.3-1.5-13.3c0,0-1.8-4.2-9.4-3.1C85,38.1,87.5,44.3,89.3,45.7z"></path>
      <path fill="#fbccb3" d="M94.8,56.4c0,0,0.5,0.1,1.3-0.1"></path>
      <path d="M94.8,56.5c-0.1,0-0.1-0.1-0.1-0.2c0-0.1,0.1-0.1,0.2-0.1c0,0,0.5,0.1,1.3-0.1c0.1,0,0.2,0,0.2,0.1        c0,0.1,0,0.2-0.1,0.2C95.3,56.6,94.9,56.5,94.8,56.5z"></path>
      <g>
        <path fill="#fbccb3" d="M82.5,74L78,78.7c0,0-9.8-5.7-10.8-8.7c-0.3-1-1.2-2.8-1.5-3.8c-0.3-1.2-0.2-3.3-1.1-3.4        c-1.1-0.1-1.5,3.8-1.5,3.8l-2.3-4.7c0,0-2.2-0.3-1.7,7.2c0,0.2,0.5,2,0.6,2.2c2.1,6.6,13.8,20.1,18.1,20.8        C82.8,93,90,82.4,90,82.4L82.5,74z"></path>
      </g>
      <g>
        <path fill="#fbccb3" d="M93.9,50.3c0-1,0.8-1.9,1.9-1.9c1,0,1.9,0.8,1.9,1.9c0,1-0.8,1.8-1.9,1.8"></path>
        <path fill="#231f24" d="M95.7,52.3c-0.1,0-0.1-0.1-0.1-0.2s0.1-0.2,0.1-0.2c0.9,0,1.7-0.8,1.7-1.7c0-0.9-0.8-1.7-1.7-1.7         S94,49.3,94,50.3c0,0.1-0.1,0.2-0.1,0.2s-0.1-0.1-0.1-0.2c0-1.1,0.9-2,2-2s2,0.9,2,2C97.7,51.4,96.8,52.3,95.7,52.3z"></path>
      </g>
      <g>
        <path fill="#231f24" d="M96.1,50.7c-0.4,0-0.7-0.3-0.7-0.7c0-0.1,0.1-0.2,0.1-0.2s0.1,0.1,0.1,0.2c0,0.2,0.2,0.4,0.4,0.4        c0.1,0,0.1,0.1,0.1,0.2S96.2,50.7,96.1,50.7z"></path>
      </g>
      <g>
        <path fill="#178afc" d="M87.7,86.2L87.7,86.2l-0.3,9.1h28.6c0.4-13.3,0.4-32.3-9.9-33.5c-10.1-1.2-15.6,0.3-19.2,3.9       c-2.3,2.3-5.8,6.7-6.9,8.9c-0.3,0.5-0.2,1.2,0.2,1.7C82.1,78.4,87.7,86.2,87.7,86.2z"></path>
      </g>
      <g>
        <path d="M87.7,86.4C87.7,86.4,87.7,86.4,87.7,86.4c-0.2-0.1-0.2-0.2-0.1-0.2l5-7.4c0-0.1,0.1-0.1,0.2,0c0.1,0,0.1,0.1,0,0.2        l-5,7.4C87.8,86.4,87.8,86.4,87.7,86.4z"></path>
      </g>
      <g>
        <path fill="#231f24" d="M89.1,84.2c-0.1,0-0.1,0-0.1-0.1l-7.9-10.8c-0.1-0.1,0-0.2,0-0.2c0.1-0.1,0.2,0,0.2,0L89.3,84        C89.3,84,89.3,84.1,89.1,84.2C89.2,84.2,89.2,84.2,89.1,84.2z"></path>
      </g>
      <g>
        <path d="M78,81c-0.1,0-0.1-0.1-0.1-0.2v-2.2c0-0.1,0.1-0.2,0.1-0.2s0.1,0.1,0.1,0.2v2.2C78.1,80.9,78,81,78,81z"></path>
      </g>
      <g>
        <path d="M61.2,66c-1.8-1.4-1.6-3.3-1.6-3.4c0-0.1,0.1-0.1,0.2-0.1c0.1,0,0.1,0.1,0.1,0.2c0,0-0.2,1.9,1.5,3.1        c0.1,0,0.1,0.1,0,0.2C61.4,66,61.3,66,61.2,66z"></path>
      </g>
      <g>
        <path d="M60.2,67.1c-0.6-0.4-1.2-1.6-1.2-2.2c0-0.1,0.1-0.2,0.1-0.2c0.1,0,0.2,0.1,0.2,0.1c0,0.5,0.6,1.7,1.1,2        c0.1,0,0.1,0.1,0,0.2C60.3,67.1,60.2,67.1,60.2,67.1z"></path>
      </g>
      <g>
        <path d="M59.7,68.9c-0.4-0.3-0.8-1-0.9-1.4c0-0.1,0-0.2,0.1-0.2c0.1,0,0.2,0,0.2,0.1c0.1,0.3,0.4,0.9,0.8,1.2        c0.1,0.1,0.1,0.1,0,0.2C59.8,69,59.7,69,59.7,68.9z"></path>
      </g>
      <g>
        <path fill="#fbccb3" d="M76.2,54.1l-3.8,4.4l-3.9-8.3l3.7-0.3c0.2,0,0.5,0.2,0.5,0.4v2.9c0,0.3,0.2,0.5,0.5,0.4l2.7-0.3        C76.2,53.4,76.4,53.8,76.2,54.1z"></path>
        <path fill="#231f24" d="M72.2,58.6l-3.9-8.3c0-0.1,0-0.2,0.1-0.2l3.7-0.3c0.4,0,0.6,0.3,0.6,0.6v2.9c0,0.2,0.2,0.3,0.3,0.3        l2.7-0.3c0.5-0.1,0.8,0.6,0.5,1l0,0l-3.8,4.4C72.4,58.7,72.2,58.7,72.2,58.6z M68.7,50.4l3.7,7.9L76,54c0.2-0.2,0-0.5-0.2-0.5        l-2.7,0.3c-0.4,0-0.6-0.2-0.6-0.6v-2.9c0-0.1-0.1-0.3-0.3-0.3L68.7,50.4z M76.2,54.1L76.2,54.1L76.2,54.1z"></path>
      </g>
      <g>
        <path fill="#178afc" d="M85.2,50.7l-3.7-1.3c-0.2-0.1-0.4-0.3-0.5-0.5l-1.4-4.7l3.3,1.8L85.2,50.7z"></path>
        <path fill="#231f24" d="M85.1,50.8l-3.7-1.3c-0.3-0.1-0.5-0.3-0.6-0.6l-1.4-4.7c0-0.1,0.1-0.2,0.2-0.2l3.3,1.8c0,0,0.1,0,0.1,0.1       l2.2,4.8C85.4,50.7,85.3,50.8,85.1,50.8z M79.9,44.4l1.3,4.4c0.1,0.2,0.2,0.4,0.4,0.4l3.4,1.2l-2-4.4L79.9,44.4z"></path>
      </g>
      <g>
        <path fill="#fbccb3" d="M85.6,63.7l-2.1,1.8l-1.1-1.8l1.1-0.2c0.2,0,0.4-0.2,0.5-0.4l0.5-1.7L85.6,63.7z"></path>
        <path fill="#231f24" d="M83.4,65.6l-1.1-1.8c-0.1-0.1,0-0.2,0.1-0.2l1.1-0.2c0.2,0,0.3-0.1,0.3-0.3l0.5-1.7         c0-0.1,0.1-0.1,0.1-0.1c0.1,0,0.1,0,0.1,0.1l1.1,2.3c0,0.1,0,0.1,0,0.2l-2.1,1.8C83.5,65.7,83.4,65.6,83.4,65.6z M82.6,63.8         l0.9,1.4l1.9-1.6l-0.9-1.8l-0.4,1.4c-0.1,0.3-0.3,0.5-0.6,0.5L82.6,63.8z"></path>
        <g>
          <path fill="#fbccb3" d="M87.7,63.4v0.7l-2.1-0.4l-1.1-2.3l0.6-0.6c0.2-0.3,0.7-0.2,0.9,0.1L87.7,63.4z"></path>
          <path fill="#231f24" d="M87.7,64.2C87.7,64.2,87.7,64.2,87.7,64.2l-2.2-0.4c0,0-0.1,0-0.1-0.1l-1.1-2.3c0-0.1,0-0.1,0-0.2         l0.6-0.6c0.3-0.3,0.9-0.3,1.1,0.1l1.7,2.5c0,0,0,0.1,0,0.1v0.7C87.8,64.1,87.8,64.2,87.7,64.2z M85.7,63.5l1.9,0.3v-0.5         l-1.7-2.5c-0.2-0.2-0.5-0.2-0.7,0l-0.5,0.6L85.7,63.5z"></path>
        </g>
      </g>
      <g>
        <polygon fill="#fbccb3" points="98.7 117.9 100.4 111.5 101.3 117.9 117 117.9 116.1 95.3 87.5 95.3 83.6 117.9"></polygon>
      </g>
      <g>
        <polygon fill="#231f24" points="98.7 117.9 100.4 111.5 101.3 117.9 117 117.9 116.1 95.3 87.5 95.3 83.6 117.9"></polygon>
      </g>
    </g>
    <g>
      <path fill="#fec75a" d="M32.3,50c-4.4,0-7.9,3.5-7.9,7.9c0,3.5,5,8.9,7,11.1c0.5,0.5,1.3,0.5,1.8,0c2.1-2.1,7-7.6,7-11.1      C40.2,53.5,36.6,50,32.3,50z M32.3,60.9c-2.1,0-3.7-1.7-3.7-3.7c0-2.1,1.7-3.7,3.7-3.7c2.1,0,3.7,1.7,3.7,3.7      C36,59.2,34.3,60.9,32.3,60.9z"></path>
    </g>
    <g>
      <path fill="#231f24" d="M27.6,50.4C27.5,50.4,27.5,50.4,27.6,50.4c-0.2-0.1-0.2-0.2-0.1-0.2c4.4-6.9,24-14.5,46.8-18.1      c4.7-0.7,9.4-1.3,13.9-1.6c0.1,0,0.2,0.1,0.2,0.1c0,0.1-0.1,0.2-0.1,0.2c-4.5,0.3-9.1,0.9-13.9,1.6c-22.6,3.6-42.2,11.1-46.5,18      C27.7,50.4,27.6,50.4,27.6,50.4z"></path>
    </g>
    <g>
      <path fill="#231f24" d="M50.8,60.8c-3.9,0-7.5-0.2-10.6-0.6c-0.1,0-0.1-0.1-0.1-0.2c0-0.1,0.1-0.1,0.2-0.1      c5.2,0.7,11.8,0.8,18.9,0.3c0.1,0,0.2,0.1,0.2,0.1c0,0.1-0.1,0.2-0.1,0.2C56.2,60.7,53.4,60.8,50.8,60.8z"></path>
    </g>
  </g>
</svg>