<svg xmlns="http://www.w3.org/2000/svg" viewBox="0 0 240 160" fill="none">
  <ellipse cx="120" cy="138" rx="68" ry="6" fill="#0f172a" opacity="0.08" />
  <!-- folded map -->
  <g transform="translate(40,28)">
    <path d="M0 16 L52 0 L104 16 L156 0 L156 92 L104 108 L52 92 L0 108 Z" fill="#fda4af" />
    <!-- folds -->
    <line x1="52" y1="0" x2="52" y2="92" stroke="#fb7185" stroke-width="1.5" />
    <line x1="104" y1="16" x2="104" y2="108" stroke="#fb7185" stroke-width="1.5" />
    <!-- patches (water/parks) -->
    <path d="M10 30 q22 -6 36 8 q12 18 -6 28 q-26 6 -32 -10 q-6 -14 2 -26 Z" fill="#bfdbfe" opacity="0.85" />
    <path d="M62 70 q12 -10 26 -4 q12 10 -2 22 q-22 6 -28 -6 q-4 -8 4 -12 Z" fill="#bbf7d0" />
    <path d="M114 28 q14 -2 22 8 q4 14 -10 18 q-18 4 -20 -10 q-2 -12 8 -16 Z" fill="#fde68a" />
    <!-- route -->
    <path d="M14 92 C46 80, 62 36, 92 50 S 130 76, 144 30" stroke="#e11d48" stroke-width="3" stroke-linecap="round" fill="none" stroke-dasharray="2 6" />
  </g>
  <!-- pin -->
  <g transform="translate(176,40)">
    <path d="M0 0 C-12 0 -16 10 -16 18 C-16 28 0 46 0 46 S 16 28 16 18 C 16 10 12 0 0 0 Z" fill="#e11d48" />
    <circle cx="0" cy="18" r="6" fill="#fff" />
  </g>
</svg>
